<svg width="60" height="42" viewBox="0 0 60 42" fill="none" xmlns="http://www.w3.org/2000/svg">
<rect width="60" height="42" rx="6" fill="#F9F9F9"/>
<path d="M15.1186 32.2881C15.8628 32.3109 16.6358 32.2101 17.3577 32.4409C18.335 32.9674 18.2935 34.8166 17.1564 35.1286C16.5144 35.2814 15.5019 35.4016 15.2144 34.6216C15.0515 33.8546 15.1346 33.0616 15.1186 32.2881Z" fill="white"/>
<path d="M32.7557 33.7603C33.3115 33.6076 33.8896 33.5686 34.4614 33.5068C34.4518 34.0366 34.439 34.5728 34.4103 35.1091C33.8449 35.1448 33.1646 35.4926 32.6631 35.0766C32.2766 34.6736 32.4267 34.1341 32.7557 33.7603Z" fill="white"/>
<path d="M14.0529 28.5247C15.5094 28.5247 16.9659 28.5182 18.4224 28.5345C18.4352 28.8757 18.4448 29.2235 18.4544 29.5745C17.346 29.6135 16.2345 29.6005 15.1229 29.6395C15.1229 30.1595 15.1197 30.6827 15.1197 31.2092C16.26 31.2905 17.6111 31.0467 18.5246 31.9144C19.601 33.0812 19.4062 35.4927 17.774 36.0484C16.5092 36.5034 14.449 36.4352 14.0945 34.8004C13.9252 32.7172 14.0306 30.6145 14.0529 28.5247ZM15.1197 32.2882C15.1357 33.0617 15.0527 33.8547 15.2156 34.6217C15.503 35.4017 16.5156 35.2814 17.1576 35.1287C18.2947 34.8167 18.3362 32.9675 17.3588 32.441C16.6369 32.2102 15.864 32.311 15.1197 32.2882Z" fill="#231F20"/>
<path d="M36.6348 28.5399C38.1615 28.5139 39.6883 28.5106 41.2151 28.5431C41.2087 28.8063 41.1927 29.3328 41.1831 29.5961C39.6755 29.6123 38.1679 29.6058 36.6603 29.6026C36.6539 29.3361 36.6412 28.8064 36.6348 28.5399Z" fill="#231F20"/>
<path d="M26.9121 31.3551C27.8065 30.4516 29.1959 30.8676 30.3202 30.7766C30.3713 32.5901 30.3458 34.4068 30.3426 36.2235C30.0838 36.2235 29.5632 36.2235 29.3045 36.2235C29.2853 34.7318 29.3141 33.2433 29.2725 31.7548C28.72 31.8458 28.0875 31.7613 27.6052 32.0993C27.1964 33.1978 27.42 34.4621 26.8834 35.5216C26.5352 36.1943 25.7175 36.2235 25.0723 36.3308C25.0149 35.5703 25.5898 35.1283 26.12 34.7286C26.2861 33.5943 26.1839 32.3041 26.9121 31.3551Z" fill="#231F20"/>
<path d="M31.7412 30.8877C32.9358 30.5237 34.8075 30.2214 35.424 31.6611C35.705 33.1464 35.4974 34.6771 35.5453 36.1851C34.4689 36.1071 33.367 36.4614 32.3161 36.1656C30.965 35.7009 30.9587 33.4519 32.2427 32.9026C32.9709 32.6329 33.7599 32.6654 34.52 32.5874C34.4594 32.3631 34.3412 31.9211 34.2805 31.7001C33.4436 31.6156 32.6036 31.7034 31.7795 31.8594C31.77 31.6156 31.7508 31.1281 31.7412 30.8877ZM32.7537 33.7606C32.4247 34.1344 32.2746 34.6739 32.6611 35.0769C33.1626 35.4929 33.8429 35.1451 34.4083 35.1094C34.437 34.5731 34.4498 34.0369 34.4594 33.5071C33.8876 33.5689 33.3095 33.6079 32.7537 33.7606Z" fill="#231F20"/>
<path d="M36.674 30.7767C36.9263 30.7767 37.4342 30.7734 37.6865 30.7734C37.7599 31.9857 37.6514 33.2077 37.7791 34.4167C37.9228 35.7491 40.1555 35.3332 40.1459 34.1372C40.1779 33.0159 40.1204 31.8947 40.1906 30.7767C40.4398 30.7767 40.9412 30.7734 41.1936 30.7734C41.2638 32.5902 41.2287 34.4069 41.2159 36.2269C40.5643 36.0124 39.884 35.8727 39.2356 36.1782C38.3061 36.5454 36.9678 36.2236 36.741 35.1089C36.5143 33.6789 36.6484 32.2164 36.674 30.7767Z" fill="#231F20"/>
<path d="M45.9639 30.7767C46.2131 30.7767 46.7113 30.7734 46.9605 30.7734C47.0275 32.5869 46.9892 34.4036 46.9956 36.2204C46.7305 36.2204 46.2003 36.2204 45.9352 36.2204C45.9256 35.4631 45.9224 34.7092 45.9128 33.9552C45.1175 33.9584 44.3254 33.9584 43.53 33.9617C43.5236 34.7124 43.5173 35.4664 43.5077 36.2204C43.2522 36.2236 42.7347 36.2269 42.476 36.2269C42.4696 34.4167 42.4696 32.6064 42.4728 30.7962C42.7283 30.7929 43.2362 30.7832 43.4917 30.7799C43.5173 31.5047 43.5236 32.2294 43.5428 32.9607C44.3317 32.9607 45.1207 32.9639 45.9096 32.9574C45.9192 32.2294 45.932 31.5014 45.9639 30.7767Z" fill="#231F20"/>
<path d="M20.0239 35.0117C19.8483 33.5947 19.9568 32.1615 19.9824 30.7445C20.2475 30.7672 20.7809 30.8127 21.046 30.8355C21.062 32.0445 20.9662 33.26 21.1035 34.4657C21.2568 35.6487 23.0168 35.3367 23.416 34.4852C23.5086 33.2372 23.4064 31.986 23.4991 30.7412C23.761 30.764 24.288 30.816 24.5499 30.842C24.5371 32.6327 24.5531 34.4235 24.5403 36.2174C23.8951 36.0614 23.234 35.8339 22.5951 36.1557C21.6114 36.5814 20.2283 36.1947 20.0239 35.0117Z" fill="#231F20"/>
<g clip-path="url(#clip0_23_2134)">
<path d="M21.7987 23.2145H38.5061C39.5802 21.8788 40.4155 20.1788 40.8929 18.3574H19.5312C19.8893 20.1788 20.7246 21.8788 21.7987 23.2145Z" fill="url(#paint0_linear_23_2134)"/>
<path d="M22.0391 8.76367C20.8457 10.0994 20.0104 11.7994 19.6523 13.6208H40.8946C40.5366 11.7994 39.7013 10.2208 38.5079 8.76367H22.0391Z" fill="url(#paint1_linear_23_2134)"/>
<path d="M30.1541 5C26.932 5 23.9485 6.45713 22.0391 8.76426H38.3885C36.3597 6.45713 33.3762 5 30.1541 5Z" fill="black"/>
<path d="M19.293 16.0506C19.293 16.9006 19.4123 17.6292 19.5316 18.3577H40.7739C40.8933 17.6292 41.0126 16.7792 41.0126 16.0506C41.0126 15.2006 40.8933 14.3506 40.7739 13.6221H19.5316C19.4123 14.3506 19.293 15.2006 19.293 16.0506Z" fill="black"/>
<path d="M30.1565 27.0996C33.4979 27.0996 36.4814 25.521 38.5102 23.2139H21.8027C23.8315 25.6424 26.815 27.0996 30.1565 27.0996Z" fill="black"/>
</g>
<defs>
<linearGradient id="paint0_linear_23_2134" x1="19.2769" y1="20.8038" x2="41.0279" y2="20.8038" gradientUnits="userSpaceOnUse">
<stop stop-color="#FAA61A"/>
<stop offset="1" stop-color="#FFE100"/>
</linearGradient>
<linearGradient id="paint1_linear_23_2134" x1="19.2787" y1="11.1868" x2="41.0296" y2="11.1868" gradientUnits="userSpaceOnUse">
<stop stop-color="#FAA61A"/>
<stop offset="1" stop-color="#FFE100"/>
</linearGradient>
<clipPath id="clip0_23_2134">
<rect width="21.7197" height="22.0999" fill="white" transform="translate(19.293 5)"/>
</clipPath>
</defs>
</svg>
