<svg width="60" height="42" viewBox="0 0 60 42" fill="none" xmlns="http://www.w3.org/2000/svg">
<rect width="60" height="42" rx="6" fill="#F9F9F9"/>
<path d="M30.3784 11.3804C33.0553 8.91166 36.7769 7.64491 40.3766 8.08686C43.9263 8.46689 47.2489 10.4796 49.3134 13.4269C51.5524 16.5488 52.3034 20.6925 51.3501 24.428C50.2639 28.932 46.6476 32.6985 42.2166 33.8527C38.1043 35.004 33.507 33.8189 30.3701 30.8997C30.8135 30.4606 31.2208 29.9792 31.6254 29.5007C30.7414 29.4416 29.8187 29.5739 28.9652 29.3092C28.6188 28.9602 28.3666 28.5323 28.0923 28.1298C29.5997 28.0791 31.11 28.1016 32.6202 28.1016C32.8918 27.6456 33.1689 27.1895 33.4433 26.7307C31.7861 26.6547 30.1262 26.7082 28.4691 26.711C28.0812 26.6603 27.6267 26.756 27.2969 26.5168C27.078 26.1424 26.9256 25.737 26.7594 25.3401C29.1702 25.2556 31.5811 25.3795 33.9892 25.2669C34.1444 24.611 34.294 23.9523 34.3937 23.2851C34.9535 24.352 36.1479 24.9122 37.3145 24.6194C38.0682 24.6448 37.8826 23.6032 38.1431 23.1247C37.4115 23.1613 36.4471 23.5554 35.9206 22.8178C35.3138 21.8101 35.6019 20.3547 36.4194 19.5468C37.0291 18.9359 37.9047 19.2878 38.6141 19.4651C38.6973 19.0035 38.7804 18.5418 38.8691 18.0802C38.0793 17.869 37.2286 17.596 36.4277 17.9028C35.4551 18.2209 34.8621 19.1245 34.3937 19.9916L34.3549 19.4426C34.3494 19.3188 34.3356 19.071 34.33 18.95C34.3217 18.7952 34.3051 18.4855 34.2968 18.3335C31.6975 18.2941 29.0926 18.4292 26.4961 18.2575C26.5598 17.8324 26.6291 17.4102 26.6984 16.9851C29.0899 16.8866 31.4869 17.002 33.8811 16.9176C33.7176 16.4587 33.5596 16.0027 33.3989 15.5466C31.376 15.5213 29.3503 15.5889 27.3302 15.5044C27.563 15.0484 27.8013 14.5952 28.0396 14.142C29.5443 14.1617 31.049 14.1757 32.5537 14.1223C32.2711 13.669 31.9857 13.2158 31.703 12.7654C30.8578 12.757 30.0126 12.7345 29.1674 12.6922C29.5582 12.2418 29.9517 11.797 30.3784 11.3804ZM48.8589 19.6678C48.2687 19.2822 47.5509 18.7895 46.8443 19.2146C45.2786 20.121 44.7216 22.5588 45.7553 24.0592C46.2956 24.8137 47.2905 24.7151 47.9999 24.2873C48.4155 24.6279 48.9642 24.5378 49.463 24.5631C49.7872 22.3449 50.1558 20.1323 50.4911 17.9141C50.0449 17.9056 49.6016 17.8944 49.161 17.8859C49.0501 18.4771 48.9476 19.071 48.8589 19.6678ZM39.3208 19.2991C39.2709 19.696 39.2238 20.0901 39.1794 20.4898C39.9692 20.3828 41.4545 19.8142 41.5765 21.0556C40.7756 21.1147 39.8916 21.0472 39.2071 21.5567C38.3149 22.176 38.1431 23.744 39.0298 24.4393C39.6644 24.8953 40.4264 24.5434 41.0361 24.2366C41.1358 24.3239 41.3326 24.4956 41.4296 24.5828C41.654 24.5716 42.103 24.5491 42.3274 24.5378C42.4715 23.2823 42.7209 22.0437 42.829 20.7854C42.8983 20.2139 42.6766 19.5665 42.1556 19.2906C41.2689 18.7952 40.238 19.0823 39.3208 19.2991ZM43.4109 19.1555C43.12 20.9571 42.8373 22.7615 42.5657 24.5688C43.0257 24.5688 43.4885 24.566 43.9541 24.566C44.148 23.4259 44.2561 22.2576 44.6468 21.1654C45.3535 20.6446 45.6915 19.848 45.855 19.0007C45.4006 19.1555 44.9849 19.3948 44.6053 19.6847C44.608 19.5496 44.6164 19.2794 44.6219 19.1414C44.2145 19.147 43.8127 19.1499 43.4109 19.1555Z" fill="#FFB930"/>
<path d="M47.3744 20.5126C47.6958 20.2423 48.2861 20.4281 48.3941 20.8419C48.6241 21.5963 48.4939 22.5422 47.9064 23.0939C47.5323 23.4514 46.834 23.2825 46.7537 22.742C46.5791 21.9792 46.6982 20.9883 47.3744 20.5126Z" fill="#FFB930"/>
<path d="M39.8854 22.5497C40.2151 22.0627 40.8691 22.1865 41.3679 22.0908C41.1628 22.6003 41.0659 23.4082 40.398 23.4927C39.8881 23.5912 39.5972 22.941 39.8854 22.5497Z" fill="#FFB930"/>
<path d="M17.8762 8.63983C22.1382 7.17321 27.0652 8.31329 30.3794 11.3788C29.9527 11.7955 29.5592 12.2402 29.1685 12.6906C30.0137 12.7329 30.8588 12.7554 31.704 12.7638C31.9867 13.2142 32.2721 13.6674 32.5547 14.1207C31.05 14.1742 29.5453 14.1601 28.0406 14.1404C27.8023 14.5936 27.564 15.0468 27.3312 15.5028C29.3514 15.5873 31.377 15.5197 33.3999 15.5451C33.5607 16.0011 33.7186 16.4571 33.8821 16.916C31.4879 17.0004 29.0909 16.885 26.6994 16.9835C26.6301 17.4086 26.5608 17.8308 26.4971 18.2559C29.0936 18.4276 31.6985 18.2925 34.2978 18.3319C34.3061 18.4839 34.3227 18.7936 34.331 18.9484C33.9902 19.1595 33.6549 19.3763 33.3223 19.5959C33.0868 19.0132 32.455 19.1708 31.9673 19.1173C31.6957 20.933 31.3992 22.7459 31.1193 24.5616C31.5765 24.57 32.0338 24.5784 32.4938 24.5897C32.8817 23.2329 32.5908 21.389 33.9126 20.5248C34.065 20.1645 34.2119 19.8014 34.356 19.441L34.3948 19.99C34.2091 21.0794 34.1537 22.1941 34.3948 23.2835C34.295 23.9507 34.1454 24.6094 33.9902 25.2653C31.5821 25.3779 29.1712 25.254 26.7604 25.3385C26.9266 25.7354 27.079 26.1408 27.298 26.5152C27.6277 26.7544 28.0822 26.6587 28.4701 26.7094C30.1273 26.7066 31.7872 26.6531 33.4443 26.7291C33.1699 27.188 32.8928 27.644 32.6213 28.1C31.111 28.1 29.6008 28.0775 28.0933 28.1282C28.3676 28.5307 28.6198 28.9586 28.9662 29.3077C29.8197 29.5723 30.7424 29.44 31.6264 29.4991C31.2219 29.9776 30.8145 30.459 30.3711 30.8982C27.7746 33.2965 24.1888 34.5661 20.6861 34.2255C17.0754 33.9299 13.6614 31.9425 11.5304 28.9783C9.25253 25.8733 8.44892 21.724 9.38001 17.9716C10.3915 13.6562 13.7085 9.98541 17.8762 8.63983ZM11.3032 17.9012C10.9346 20.1166 10.5854 22.3377 10.2058 24.5531C10.6464 24.5531 11.087 24.5587 11.5331 24.5587C11.7936 22.9176 12.0791 21.2821 12.298 19.6353C12.4282 21.2736 12.4282 22.9204 12.4809 24.5616C12.7885 24.5644 13.0961 24.5644 13.4064 24.5672C13.9856 22.9908 14.4816 21.3834 15.0996 19.8239C14.9056 21.4087 14.6174 22.9823 14.3957 24.5644C14.8557 24.5616 15.3185 24.5616 15.784 24.5616C16.1415 22.3405 16.5073 20.1223 16.8564 17.8984C16.1332 17.8984 15.4099 17.9012 14.6894 17.9097C14.2627 19.2215 13.8692 20.5473 13.3676 21.8338C13.3233 20.522 13.3177 19.2102 13.29 17.9012C12.625 17.8984 11.9627 17.9012 11.3032 17.9012ZM25.1116 18.3178C24.779 20.1589 24.3523 22.0083 24.3384 23.8831C24.5186 24.8712 25.6464 24.6488 26.3641 24.5728C26.4306 24.1703 26.4999 23.7649 26.5692 23.3624C26.3558 23.3286 25.9263 23.261 25.7101 23.2272C25.8016 22.318 25.9429 21.4144 26.087 20.5107C26.2699 20.4939 26.6357 20.4573 26.8186 20.4404C26.8795 20.0181 26.9433 19.6015 27.0098 19.1821C26.8407 19.168 26.4999 19.1398 26.3309 19.1258C26.3613 18.9287 26.4223 18.529 26.4528 18.3319C26.0039 18.3263 25.5549 18.3235 25.1116 18.3178ZM17.2693 19.2721C17.1973 19.6747 17.1225 20.0744 17.0532 20.477C17.8734 20.4094 19.3532 19.7845 19.4862 21.0569C18.7325 21.116 17.9095 21.0456 17.2444 21.4735C16.2579 22.028 16.0251 23.6636 16.9091 24.4095C17.5354 24.8937 18.3362 24.5841 18.9375 24.2181C19.1814 24.7445 19.8021 24.4827 20.2372 24.5784C20.3924 23.3117 20.6224 22.059 20.7471 20.7894C20.8219 20.1955 20.5697 19.517 20.0127 19.2552C19.1482 18.8077 18.1644 19.0892 17.2693 19.2721ZM21.9719 19.2468C21.16 19.6156 20.8385 20.6937 21.1766 21.4988C21.5036 22.2138 22.4236 22.3377 22.8088 22.9992C22.407 23.7902 21.365 23.2948 20.6916 23.2976C20.6307 23.7058 20.5753 24.1168 20.5198 24.5278C21.4038 24.5672 22.346 24.7811 23.1967 24.4321C24.1528 24.0436 24.38 22.6614 23.8175 21.8591C23.3852 21.4566 22.8448 21.1948 22.4097 20.7951C22.6924 20.0463 23.5847 20.4094 24.1777 20.3278C24.2276 19.914 24.2802 19.5002 24.3329 19.0863C23.5487 19.0638 22.7146 18.9118 21.9719 19.2468ZM27.6942 19.7394C26.8103 20.8204 26.5027 22.5207 27.2259 23.7677C27.988 24.8684 29.4761 24.7389 30.6177 24.4799C30.6953 24.0323 30.7757 23.5876 30.8616 23.14C29.9167 23.4862 28.2401 23.7621 28.1404 22.3152C29.0964 22.3095 30.0524 22.3152 31.0085 22.3152C31.0944 21.4876 31.3161 20.567 30.8339 19.8211C30.1744 18.712 28.448 18.7514 27.6942 19.7394Z" fill="#D52A2A"/>
<path d="M28.25 21.1818C28.5049 20.8018 28.7045 20.16 29.2753 20.2557C29.788 20.1966 29.7658 20.8778 29.8988 21.2156C29.3474 21.21 28.7959 21.1987 28.25 21.1818Z" fill="#D52A2A"/>
<path d="M17.7903 22.5738C18.1034 22.0389 18.7906 22.1543 19.3061 22.1966C19.0511 22.6864 18.9043 23.4915 18.2253 23.4943C17.757 23.5252 17.5409 22.9256 17.7903 22.5738Z" fill="#D52A2A"/>
</svg>
