<svg width="60" height="42" viewBox="0 0 60 42" fill="none" xmlns="http://www.w3.org/2000/svg">
<rect width="60" height="42" rx="6" fill="#F9F9F9"/>
<path fill-rule="evenodd" clip-rule="evenodd" d="M30.0998 7C28.0873 7.06674 26.0295 7.1721 24.1388 7.93078C19.7134 9.61673 16.2315 13.663 15.3192 18.3626C14.3513 22.6723 15.6291 27.3859 18.5469 30.6665C20.6883 33.1848 23.7454 34.783 26.9592 35.3941C26.9937 33.0789 26.9868 30.7624 26.9798 28.4461C26.9749 26.7917 26.9699 25.1373 26.9801 23.4836C26.989 23.3784 26.9928 23.2677 26.9966 23.1551C27.0139 22.6514 27.0325 22.1084 27.5163 21.8328C28.1654 21.6846 28.833 21.6728 29.4986 21.6611C29.7006 21.6576 29.9023 21.654 30.1033 21.6466C30.104 20.6704 30.105 19.6942 30.1059 18.718C30.1098 14.812 30.1137 10.906 30.0998 7ZM25.7614 18.8543C24.7168 18.1308 25.0407 16.3921 26.1897 15.9741C27.3282 15.4578 28.6688 16.631 28.425 17.8392C28.2579 19.0334 26.6632 19.7113 25.7614 18.8543ZM42.6224 14.8189C40.5785 10.6954 36.4385 7.7274 31.8982 7.15137C31.8539 9.68101 31.8628 12.2107 31.8716 14.7403C31.8802 17.1842 31.8888 19.6281 31.8494 22.072C31.933 23.3967 30.6781 23.3584 29.6128 23.326C29.3025 23.3165 29.0083 23.3076 28.768 23.3329C28.6804 26.3233 28.6957 29.3136 28.711 32.3054C28.7164 33.3583 28.7218 34.4114 28.7227 35.4647C31.5987 35.6544 34.5409 35.0994 37.0479 33.6242C40.4462 31.6292 43.0123 28.1906 43.8375 24.2953C44.513 21.1201 44.123 17.7026 42.6224 14.8189ZM30.7457 28.2292C29.924 27.6005 30.1154 26.1955 31.0347 25.7635C32.0444 25.1488 33.4476 26.1288 33.2283 27.3019C33.1447 28.4786 31.5744 29.0054 30.7457 28.2292ZM35.4218 28.5453C34.0987 28.3135 33.9386 26.1499 35.199 25.7108C36.1287 25.2858 37.2672 25.9778 37.316 27.0139C37.3752 27.9974 36.3689 28.8579 35.4218 28.5453ZM38.8097 28.1414C38.0228 27.4319 38.3779 26.0024 39.3564 25.6827C40.3765 25.2683 41.6057 26.2271 41.3689 27.3371C41.2505 28.5242 39.5757 29.0406 38.8097 28.1414Z" fill="#10A96B"/>
</svg>
