<svg width="60" height="42" viewBox="0 0 60 42" fill="none" xmlns="http://www.w3.org/2000/svg">
<rect width="60" height="42" rx="6" fill="#F9F9F9"/>
<path d="M10 15.0029H13.8226C14.3497 15.0708 14.8809 15.2701 15.2533 15.6683C15.4953 15.914 15.6586 16.2303 15.7516 16.5627C16.2684 18.4083 16.7693 20.2587 17.3 22.1007C17.3991 22.1002 17.4983 22.1002 17.5979 22.1007C18.1317 20.2457 18.6367 18.3822 19.1591 16.5246C19.2989 16.0231 19.6364 15.5832 20.0838 15.327C20.4003 15.137 20.764 15.0499 21.1257 15.0029H24.8979C24.8979 18.986 24.8979 22.9696 24.8979 26.9526H21.1991C21.196 24.5888 21.2048 22.2244 21.195 19.8606C21.0953 19.8616 20.9962 19.8621 20.8971 19.8626C20.1614 22.2213 19.4597 24.5919 18.7302 26.9526H16.1652C15.4429 24.5882 14.7314 22.2208 14.0045 19.8585C13.9033 19.8569 13.8021 19.8553 13.7008 19.8548C13.6957 22.2208 13.7003 24.5867 13.6988 26.9526H10V15.0029Z" fill="#10A96B"/>
<path d="M26.4902 15H30.189C30.1906 17.3659 30.1859 19.7319 30.1911 22.0973C30.2913 22.0968 30.3919 22.0968 30.4926 22.0957C31.3886 20.1295 32.2588 18.1508 33.1517 16.1824C33.4347 15.5657 34.0245 15.1111 34.6861 15H38.2031C38.2031 18.9831 38.2031 22.9666 38.2031 26.9497H34.5043C34.5027 24.5838 34.5074 22.2178 34.5022 19.8524C34.4015 19.8524 34.3008 19.8529 34.2007 19.8535C33.4188 21.6057 32.6554 23.3663 31.8802 25.1212C31.7055 25.5053 31.5673 25.918 31.2858 26.2384C30.9611 26.622 30.4947 26.861 30.0082 26.9497H26.4902C26.4902 22.9666 26.4902 18.9831 26.4902 15Z" fill="#10A96B"/>
<path d="M39.8481 20.4291C43.6712 20.4275 47.4944 20.4238 51.3175 20.4312C50.8135 21.9721 49.3073 23.0966 47.7101 23.1347C46.3226 23.1504 44.9345 23.1342 43.5464 23.1425C43.5423 24.4116 43.5464 25.6812 43.5449 26.9503H39.8461C39.8471 24.7764 39.8435 22.603 39.8481 20.4291Z" fill="#10A96B"/>
<path d="M39.3242 15H47.7811C48.7274 15.0678 49.6541 15.4629 50.3333 16.1412C51.0591 16.8415 51.4891 17.8262 51.56 18.8369V19.353C51.5369 19.5341 51.5087 19.7146 51.483 19.8952C49.4029 19.9124 47.3218 19.8999 45.2413 19.9056C44.1136 19.9192 42.9814 19.6098 42.0238 19.0013C40.6229 18.1299 39.6253 16.639 39.3242 15Z" fill="#03A6DC"/>
</svg>
