<svg width="60" height="42" viewBox="0 0 60 42" fill="none" xmlns="http://www.w3.org/2000/svg">
<rect width="60" height="42" rx="6" fill="#F9F9F9"/>
<path d="M7.15089 13.1396C7.92777 12.9469 8.7361 13.0143 9.53184 13.0015C13.1017 13.0272 16.6747 13.0079 20.2477 13.0047C20.905 13.0304 21.6819 12.9983 22.1757 13.5314C22.6821 14.0452 22.6255 14.8352 22.6569 15.5032C22.6443 19.4791 22.6412 23.4549 22.6601 27.4276C22.6255 28.1694 22.7104 29.0879 22.0719 29.6018C21.4617 30.0803 20.6408 29.9583 19.9269 30C16.14 29.9807 12.3531 29.9872 8.5694 30C7.75164 29.9807 6.66967 30.0321 6.24821 29.1522C5.89594 28.1855 6.0312 27.1289 6.00289 26.1205C6.03435 22.4754 5.98716 18.8272 6.01547 15.1821C5.98401 14.3567 6.25136 13.3451 7.15089 13.1396ZM7.03137 13.9938C6.70112 16.0942 6.91186 18.2266 6.86154 20.3398C6.9213 23.2366 6.71684 26.143 6.98734 29.0301C9.61047 29.2935 12.2493 29.104 14.8787 29.1586C17.1528 29.0847 19.4456 29.3545 21.7008 28.9627C21.9335 26.416 21.7731 23.8564 21.8171 21.3032C21.77 18.8785 21.9398 16.4442 21.6882 14.0259C19.323 13.753 16.9389 13.936 14.5642 13.8878C12.0543 13.9296 9.53498 13.7787 7.03137 13.9938Z" fill="#FF0000"/>
<path d="M14.0423 15.6014C14.7594 15.4023 15.445 15.8744 15.942 16.3561C17.5083 17.9169 18.2852 20.1361 18.5179 22.3199C18.7098 24.25 17.7914 26.4435 15.942 27.1853C14.6084 27.6639 13.0012 27.5547 11.8437 26.6811C10.875 25.9489 10.3466 24.7382 10.2239 23.5371C10.0384 21.4978 10.5668 19.4071 11.6865 17.7114C12.2652 16.8218 12.9855 15.8969 14.0423 15.6014Z" fill="#FF0000"/>
<path d="M27.3474 17.2821C28.0928 17.2692 28.8383 17.2628 29.5868 17.2467C30.3952 18.8011 31.0022 20.455 31.757 22.0351C32.6849 20.5578 33.1724 18.8589 33.9147 17.2885C34.6758 17.2692 35.437 17.2564 36.2013 17.2339C36.4309 20.0664 36.6668 22.9054 36.7171 25.7476C35.9434 25.7348 35.1728 25.7315 34.4022 25.7315C34.2795 24.4148 34.2135 23.0917 34.0185 21.7846C33.4775 22.732 33.1441 23.7789 32.6503 24.7456C32.1313 24.9768 31.5463 24.8452 31.0022 24.8741C30.5398 23.8014 30.0523 22.7384 29.4421 21.7428C29.3069 23.0564 29.2377 24.3731 29.1779 25.6898C28.3948 25.7187 27.6148 25.7348 26.8379 25.754C26.9385 22.9279 27.1807 20.1082 27.3474 17.2821Z" fill="#FF0000"/>
<path d="M46.9725 17.7911C48.5545 16.847 50.4637 17.1649 52.203 17.2677C52.1841 17.9485 52.1653 18.6261 52.1558 19.307C50.9795 19.2845 49.7969 19.2652 48.6332 19.4772C48.435 20.5916 48.3092 21.7445 48.5105 22.8685C48.5294 23.3246 48.759 23.5815 49.2025 23.6425C50.2026 23.787 51.2186 23.6843 52.2282 23.6682C52.2565 24.3651 52.2879 25.062 52.3194 25.7621C50.5832 25.8424 48.6835 26.2117 47.0794 25.3478C45.7553 24.4968 45.9346 22.6887 45.9062 21.3077C45.9786 20.1066 45.8559 18.5458 46.9725 17.7911Z" fill="#FF0000"/>
<path d="M37.5723 17.3503C40.0853 17.2508 42.6015 17.2893 45.1145 17.3278C45.0862 18.0215 45.0579 18.712 45.0328 19.4057C44.2307 19.4314 43.4287 19.4474 42.6298 19.4699C42.6141 21.5574 42.6581 23.6481 42.5952 25.7356C41.7649 25.7356 40.9377 25.7323 40.1136 25.7323C40.0916 23.6513 40.1356 21.567 40.0759 19.486C39.2675 19.4506 38.4655 19.4153 37.6635 19.3447C37.6352 18.6799 37.6037 18.0151 37.5723 17.3503Z" fill="#FF0000"/>
</svg>
