<svg width="60" height="42" viewBox="0 0 60 42" fill="none" xmlns="http://www.w3.org/2000/svg">
<rect width="60" height="42" rx="6" fill="#F9F9F9"/>
<path d="M11 15.2507C12.5926 15.1494 14.188 15.1972 15.7834 15.1944C16.3955 15.1719 17.2209 15.2985 17.3898 16.0214C17.833 17.7934 18.146 19.5965 18.4756 21.3939C17.6613 19.4277 16.1739 17.7963 14.3597 16.7358C13.3211 16.0579 12.0941 15.802 11 15.2507Z" fill="#FFB930"/>
<path d="M18.8511 23.0417C19.851 20.4258 20.8093 17.793 21.8314 15.1855C22.895 15.208 23.9585 15.2024 25.0194 15.2024C23.4295 19.0447 21.8369 22.887 20.2443 26.7293C19.1835 26.7265 18.1254 26.7237 17.0674 26.749C16.1201 23.4243 15.2477 20.077 14.3613 16.7354C16.1755 17.7958 17.6629 19.4273 18.4772 21.3934C18.6351 21.9335 18.7348 22.4904 18.8511 23.0417Z" fill="#03A6DC"/>
<path d="M26.2508 15.1945C27.2618 15.1917 28.2727 15.1917 29.2837 15.1945C28.6494 19.0424 28.0179 22.8932 27.3864 26.7411C26.3754 26.7411 25.3645 26.7411 24.3535 26.7411C24.985 22.8904 25.6165 19.0424 26.2508 15.1945Z" fill="#03A6DC"/>
<path d="M31.939 16.1007C33.7892 14.7365 36.2737 14.8012 38.3843 15.4285C38.2541 16.261 38.1212 17.0936 38.0131 17.929C36.8304 17.5353 35.4982 17.1246 34.2906 17.6337C33.7865 17.8081 33.4319 18.5422 33.9471 18.922C35.0578 19.8755 36.6753 20.1709 37.5063 21.4704C38.5034 23.0118 37.6946 25.1917 36.1795 26.044C34.0939 27.2788 31.543 26.9947 29.3105 26.3731C29.4047 25.4899 29.5543 24.6151 29.7011 23.7375C31.0832 24.3141 32.7007 24.8514 34.1549 24.2382C34.7836 24.0047 35.0301 23.0709 34.4041 22.6771C33.3018 21.8107 31.7812 21.476 30.9779 20.2327C30.0639 18.8938 30.701 16.9868 31.939 16.1007Z" fill="#03A6DC"/>
<path d="M42.0718 16.5423C42.2962 16.0135 42.5953 15.3834 43.2185 15.2793C44.1962 15.1331 45.1906 15.2203 46.1738 15.209C46.9854 19.0541 47.8135 22.8993 48.6251 26.7444C47.6972 26.7416 46.7693 26.7416 45.8415 26.7613C45.7002 26.1818 45.5673 25.5996 45.4371 25.0145C44.1436 25.0117 42.8501 25.0117 41.5566 25.0117C41.3434 25.5855 41.1301 26.1621 40.9196 26.7416C39.8588 26.7444 38.798 26.7444 37.7344 26.7444C39.1774 23.3409 40.6343 19.9458 42.0718 16.5423ZM43.9996 18.4634C43.465 19.853 42.9581 21.2538 42.4319 22.6461C43.2656 22.6461 44.0993 22.6461 44.933 22.6602C44.6422 21.2594 44.4317 19.8305 43.9996 18.4634Z" fill="#03A6DC"/>
</svg>
