<svg width="60" height="42" viewBox="0 0 60 42" fill="none" xmlns="http://www.w3.org/2000/svg">
<rect width="60" height="42" rx="6" fill="#F9F9F9"/>
<path d="M34.1608 10.0488C36.7607 9.78011 39.4199 10.6398 41.508 12.1815C43.9094 13.9336 45.5413 16.6911 45.8983 19.6435C46.3719 22.8909 45.1698 26.2658 42.9123 28.6108C40.8988 30.7253 37.9847 32.0485 35.0405 31.9483C31.8241 32.1004 28.6495 30.524 26.5978 28.0944C25.7946 27.2566 25.3238 26.1866 24.7819 25.1794C24.649 24.6321 24.4422 24.1094 24.2965 23.5675C23.7228 21.0432 23.9851 18.3075 25.2017 16.0063C26.9065 12.6523 30.3889 10.2901 34.1608 10.0488ZM34.3429 16.9616C33.751 17.0818 33.1673 17.2958 32.6755 17.6509C31.6 18.3421 30.9963 19.5916 30.8551 20.8346C30.866 21.9802 31.3132 23.1176 32.131 23.9272C33.0371 24.7541 34.312 25.3023 35.5578 25.0783C37.0576 24.8433 38.3763 23.7269 38.8516 22.2835C39.4618 20.882 38.9254 19.2118 37.9218 18.1345C36.9729 17.2503 35.6516 16.7212 34.3429 16.9616Z" fill="#8A3EFB"/>
<path d="M15 13.1908C17.9751 13.1826 20.9512 13.1799 23.9272 13.1908C23.9318 18.5309 23.9327 23.8701 23.9263 29.2102C22.6286 29.2048 21.3282 29.2357 20.0314 29.2002C19.6853 28.0847 19.3047 26.98 18.9996 25.8517C18.6417 25.1141 18.5944 24.2726 18.2274 23.5386C17.997 22.4331 17.508 21.405 17.2575 20.304C16.8678 19.4944 16.8122 18.5774 16.4306 17.7669C16.0045 16.2288 15.4681 14.718 15 13.1908Z" fill="#8A3EFB"/>
</svg>
