<svg width="116" height="30" viewBox="0 0 116 30" fill="none" xmlns="http://www.w3.org/2000/svg">
<path d="M29.4174 12V3.36352H35.4629V5.58433H32.1563V12H29.4174ZM35.0928 13.5422V10.137H35.7343C35.8495 9.96426 35.94 9.75863 36.0058 9.5201C36.0716 9.28156 36.1209 9.00602 36.1538 8.69346C36.1867 8.3809 36.2032 8.04367 36.2032 7.68176V5.46095H41.8169V10.137H42.4955V13.5422H40.5831V12H37.0051V13.5422H35.0928ZM37.9305 10.137H39.5097V7.32396H38.2512V7.92852C38.2512 8.47138 38.2224 8.92377 38.1649 9.28568C38.1073 9.63936 38.0292 9.92313 37.9305 10.137ZM46.4912 12.1727C45.8085 12.1727 45.1998 12.0494 44.6652 11.8026C44.1388 11.5558 43.7234 11.1857 43.4191 10.6922C43.1229 10.1905 42.9749 9.56533 42.9749 8.81684V8.57008C42.9749 7.83804 43.1188 7.23348 43.4067 6.75642C43.6946 6.27113 44.0935 5.90511 44.6035 5.65835C45.1217 5.4116 45.7098 5.28822 46.3678 5.28822C47.5029 5.28822 48.3501 5.57199 48.9094 6.13953C49.4687 6.69884 49.7484 7.52137 49.7484 8.6071V9.32269H45.3191C45.3355 9.57767 45.3931 9.79153 45.4918 9.96426C45.5905 10.1288 45.7221 10.2521 45.8866 10.3344C46.0594 10.4084 46.2609 10.4454 46.4912 10.4454C46.7791 10.4454 47.0011 10.4002 47.1574 10.3097C47.3219 10.211 47.433 10.0876 47.4905 9.93958H49.662C49.5304 10.6963 49.1932 11.2597 48.6503 11.6299C48.1157 11.9918 47.3959 12.1727 46.4912 12.1727ZM46.4295 7.01552C46.2156 7.01552 46.0264 7.05253 45.8619 7.12656C45.7057 7.20058 45.5823 7.30751 45.4918 7.44734C45.4013 7.57894 45.3479 7.75579 45.3314 7.97787H47.4782C47.47 7.74756 47.4206 7.56249 47.3301 7.42266C47.2397 7.28284 47.1163 7.18002 46.96 7.11422C46.812 7.04842 46.6351 7.01552 46.4295 7.01552Z" fill="#214F9A"/>
<path d="M50.1028 12L53.1996 3.36352H55.9509L59.0477 12H56.1236L55.6795 10.5935H53.1009L52.6567 12H50.1028ZM53.7301 8.55774H55.0379L54.3964 6.20122L53.7301 8.55774ZM59.6437 12V5.46095H63.5548C64.1552 5.46095 64.6323 5.53909 64.986 5.69537C65.3479 5.84342 65.607 6.04494 65.7633 6.29992C65.9278 6.5549 66.01 6.84279 66.01 7.16357C66.01 7.49258 65.9195 7.7928 65.7386 8.06423C65.5576 8.32744 65.2903 8.50428 64.9366 8.59476C65.3397 8.69346 65.6481 8.88264 65.862 9.1623C66.084 9.44196 66.1951 9.76685 66.1951 10.137C66.1951 10.7045 65.9977 11.1569 65.6029 11.4941C65.2081 11.8314 64.6076 12 63.8015 12H59.6437ZM61.9632 10.4084H63.1106C63.3574 10.4084 63.5466 10.3632 63.6782 10.2727C63.8098 10.1822 63.8756 10.0588 63.8756 9.90257C63.8756 9.73806 63.8139 9.61469 63.6905 9.53243C63.5753 9.44196 63.3862 9.39672 63.123 9.39672H61.9632V10.4084ZM61.9632 8.01488H62.9996C63.2792 8.01488 63.4643 7.96964 63.5548 7.87916C63.6453 7.78046 63.6905 7.66531 63.6905 7.5337C63.6905 7.4021 63.6411 7.29106 63.5424 7.20058C63.452 7.10188 63.271 7.05253 62.9996 7.05253H61.9632V8.01488ZM68.4886 12V7.32396H66.6256V5.46095H72.6711V7.32396H70.8081V12H68.4886ZM76.5391 12.1727C75.8975 12.1727 75.3135 12.0535 74.7871 11.8149C74.2607 11.5682 73.8453 11.1939 73.541 10.6922C73.2367 10.1905 73.0845 9.55711 73.0845 8.79216V8.54541C73.0845 7.82981 73.2367 7.23348 73.541 6.75642C73.8453 6.27113 74.2607 5.90511 74.7871 5.65835C75.3135 5.4116 75.8975 5.28822 76.5391 5.28822C77.1807 5.28822 77.7605 5.4116 78.2787 5.65835C78.8051 5.90511 79.2205 6.27113 79.5249 6.75642C79.8292 7.23348 79.9813 7.82981 79.9813 8.54541V8.79216C79.9813 9.53243 79.8292 10.1576 79.5249 10.6675C79.2205 11.1693 78.8051 11.5476 78.2787 11.8026C77.7605 12.0494 77.1807 12.1727 76.5391 12.1727ZM76.5391 10.285C76.7612 10.285 76.9545 10.2316 77.119 10.1246C77.2835 10.0095 77.4069 9.84088 77.4891 9.6188C77.5796 9.39672 77.6248 9.12117 77.6248 8.79216V8.54541C77.6248 8.25752 77.5796 8.01077 77.4891 7.80514C77.4069 7.59951 77.2835 7.44323 77.119 7.3363C76.9545 7.22937 76.7612 7.17591 76.5391 7.17591C76.3006 7.17591 76.099 7.22937 75.9345 7.3363C75.7783 7.44323 75.6549 7.59951 75.5644 7.80514C75.4822 8.01077 75.441 8.25752 75.441 8.54541V8.79216C75.441 9.12117 75.4822 9.39672 75.5644 9.6188C75.6549 9.84088 75.7783 10.0095 75.9345 10.1246C76.099 10.2316 76.3006 10.285 76.5391 10.285ZM84.071 12.1727C83.4129 12.1727 82.8207 12.037 82.2943 11.7656C81.7761 11.4941 81.3649 11.0747 81.0605 10.5071C80.7644 9.93958 80.6164 9.21165 80.6164 8.32333V8.07657C80.6164 7.09777 80.7274 6.26291 80.9495 5.57199C81.1798 4.88107 81.554 4.34643 82.0722 3.96807C82.5904 3.58971 83.2896 3.37997 84.1697 3.33884C84.5151 3.32239 84.8688 3.31005 85.2307 3.30183C85.6008 3.2936 85.9381 3.27304 86.2424 3.24014C86.555 3.19901 86.8017 3.13732 86.9827 3.05507V4.97977C86.9004 5.02912 86.7606 5.07848 86.5632 5.12783C86.374 5.16895 86.1026 5.20185 85.7489 5.22653C85.4034 5.25121 84.9428 5.26766 84.3671 5.27588C83.9147 5.27588 83.5487 5.33757 83.269 5.46095C82.9976 5.5761 82.7919 5.76117 82.6521 6.01615C82.5123 6.26291 82.4095 6.5878 82.3437 6.99084C82.4588 6.80166 82.6151 6.62482 82.8125 6.46031C83.0181 6.29581 83.2772 6.16421 83.5898 6.0655C83.9023 5.95857 84.293 5.90511 84.7619 5.90511C85.2965 5.90511 85.7695 6.00793 86.1807 6.21356C86.6002 6.41919 86.9251 6.73175 87.1554 7.15123C87.3939 7.57072 87.5132 8.10125 87.5132 8.74281V8.98957C87.5132 9.67226 87.361 10.2521 87.0567 10.7292C86.7524 11.198 86.337 11.5558 85.8106 11.8026C85.2924 12.0494 84.7125 12.1727 84.071 12.1727ZM84.071 10.285C84.4082 10.285 84.6714 10.174 84.8606 9.95192C85.058 9.72984 85.1567 9.43373 85.1567 9.0636V8.81684C85.1567 8.43848 85.0539 8.14237 84.8482 7.92852C84.6508 7.71466 84.3917 7.60773 84.071 7.60773C83.7419 7.60773 83.4746 7.71466 83.269 7.92852C83.0716 8.13415 82.9729 8.43025 82.9729 8.81684V9.05126C82.9729 9.28979 83.0222 9.50776 83.1209 9.70516C83.2196 9.89434 83.3512 10.0383 83.5158 10.137C83.6803 10.2357 83.8653 10.285 84.071 10.285ZM89.4119 14.6403C89.2885 14.6403 89.1651 14.628 89.0418 14.6033V12.7156C89.1651 12.7403 89.2885 12.7526 89.4119 12.7526C89.5764 12.7526 89.7039 12.7279 89.7944 12.6786C89.8931 12.6375 89.9794 12.5593 90.0535 12.4442C90.1275 12.329 90.2015 12.1768 90.2755 11.9877L87.5982 5.46095H90.1028L91.497 9.37204L92.7925 5.46095H95.0009L92.5827 12C92.3524 12.6169 92.1056 13.1186 91.8424 13.5052C91.5875 13.9 91.2708 14.1879 90.8924 14.3689C90.5141 14.5498 90.0206 14.6403 89.4119 14.6403ZM98.4659 12.1727C97.7997 12.1727 97.2116 12.0411 96.7016 11.7779C96.1917 11.5065 95.7927 11.1199 95.5048 10.6182C95.2252 10.1164 95.0854 9.50776 95.0854 8.79216V8.54541C95.0854 7.87916 95.2293 7.3034 95.5172 6.81811C95.8051 6.3246 96.204 5.94624 96.714 5.68303C97.2321 5.41982 97.8161 5.28822 98.4659 5.28822C99.2144 5.28822 99.819 5.4116 100.28 5.65835C100.748 5.89689 101.098 6.22178 101.328 6.63304C101.567 7.03608 101.707 7.48847 101.748 7.9902H99.49C99.4488 7.71055 99.3501 7.50492 99.1939 7.37331C99.0458 7.24171 98.8361 7.17591 98.5646 7.17591C98.3425 7.17591 98.1451 7.22937 97.9724 7.3363C97.8079 7.435 97.6763 7.58717 97.5776 7.7928C97.4871 7.9902 97.4419 8.24107 97.4419 8.54541V8.79216C97.4419 9.1294 97.4871 9.40906 97.5776 9.63114C97.6681 9.85322 97.7956 10.0177 97.9601 10.1246C98.1246 10.2234 98.3261 10.2727 98.5646 10.2727C98.8032 10.2727 99.0047 10.211 99.1692 10.0876C99.3337 9.95603 99.4406 9.7504 99.49 9.47074H101.748C101.707 10.0301 101.559 10.5112 101.304 10.9143C101.049 11.3173 100.687 11.6299 100.218 11.8519C99.7573 12.0658 99.1733 12.1727 98.4659 12.1727Z" fill="#447BCC"/>
<path d="M108.703 29.2162H106.662C106.379 29.2162 106.151 28.986 106.151 28.6998C106.151 28.4135 106.379 28.1833 106.662 28.1833H108.703C108.985 28.1833 109.213 28.4135 109.213 28.6998C109.213 28.986 108.985 29.2162 108.703 29.2162ZM104.037 29.2162H101.996C101.714 29.2162 101.486 28.986 101.486 28.6998C101.486 28.4135 101.714 28.1833 101.996 28.1833H104.037C104.32 28.1833 104.548 28.4135 104.548 28.6998C104.548 28.986 104.32 29.2162 104.037 29.2162ZM99.3722 29.2162H97.3311C97.0483 29.2162 96.8209 28.986 96.8209 28.6998C96.8209 28.4135 97.0483 28.1833 97.3311 28.1833H99.3722C99.655 28.1833 99.8824 28.4135 99.8824 28.6998C99.8824 28.986 99.655 29.2162 99.3722 29.2162ZM94.707 29.2162H92.6659C92.3831 29.2162 92.1557 28.986 92.1557 28.6998C92.1557 28.4135 92.3831 28.1833 92.6659 28.1833H94.707C94.9898 28.1833 95.2172 28.4135 95.2172 28.6998C95.2172 28.986 94.9898 29.2162 94.707 29.2162ZM90.0418 29.2162H88.0007C87.7179 29.2162 87.4905 28.986 87.4905 28.6998C87.4905 28.4135 87.7179 28.1833 88.0007 28.1833H90.0418C90.3246 28.1833 90.552 28.4135 90.552 28.6998C90.552 28.986 90.3246 29.2162 90.0418 29.2162ZM85.3766 29.2162H83.3355C83.0527 29.2162 82.8253 28.986 82.8253 28.6998C82.8253 28.4135 83.0527 28.1833 83.3355 28.1833H85.3766C85.6594 28.1833 85.8868 28.4135 85.8868 28.6998C85.8868 28.986 85.6594 29.2162 85.3766 29.2162ZM80.7113 29.2162H78.6703C78.3875 29.2162 78.1601 28.986 78.1601 28.6998C78.1601 28.4135 78.3875 28.1833 78.6703 28.1833H80.7113C80.9942 28.1833 81.2216 28.4135 81.2216 28.6998C81.2216 28.986 80.9942 29.2162 80.7113 29.2162ZM76.0462 29.2162H74.0051C73.7223 29.2162 73.4949 28.986 73.4949 28.6998C73.4949 28.4135 73.7223 28.1833 74.0051 28.1833H76.0462C76.329 28.1833 76.5564 28.4135 76.5564 28.6998C76.5564 28.986 76.329 29.2162 76.0462 29.2162ZM71.381 29.2162H69.3399C69.0571 29.2162 68.8297 28.986 68.8297 28.6998C68.8297 28.4135 69.0571 28.1833 69.3399 28.1833H71.381C71.6638 28.1833 71.8912 28.4135 71.8912 28.6998C71.8912 28.986 71.6638 29.2162 71.381 29.2162ZM66.7158 29.2162H64.6747C64.3919 29.2162 64.1645 28.986 64.1645 28.6998C64.1645 28.4135 64.3919 28.1833 64.6747 28.1833H66.7158C66.9986 28.1833 67.226 28.4135 67.226 28.6998C67.226 28.986 66.9986 29.2162 66.7158 29.2162ZM62.0505 29.2162H60.0095C59.7267 29.2162 59.4993 28.986 59.4993 28.6998C59.4993 28.4135 59.7267 28.1833 60.0095 28.1833H62.0505C62.3334 28.1833 62.5608 28.4135 62.5608 28.6998C62.5608 28.986 62.3334 29.2162 62.0505 29.2162ZM57.3853 29.2162H55.3443C55.0615 29.2162 54.8341 28.986 54.8341 28.6998C54.8341 28.4135 55.0615 28.1833 55.3443 28.1833H57.3853C57.6682 28.1833 57.8956 28.4135 57.8956 28.6998C57.8956 28.986 57.6682 29.2162 57.3853 29.2162ZM52.7201 29.2162H50.6791C50.3963 29.2162 50.1689 28.986 50.1689 28.6998C50.1689 28.4135 50.3963 28.1833 50.6791 28.1833H52.7201C53.003 28.1833 53.2304 28.4135 53.2304 28.6998C53.2304 28.986 53.003 29.2162 52.7201 29.2162ZM48.0549 29.2162H46.0139C45.7311 29.2162 45.5037 28.986 45.5037 28.6998C45.5037 28.4135 45.7311 28.1833 46.0139 28.1833H48.0549C48.3378 28.1833 48.5652 28.4135 48.5652 28.6998C48.5652 28.986 48.3378 29.2162 48.0549 29.2162ZM43.3897 29.2162H41.3487C41.0659 29.2162 40.8384 28.986 40.8384 28.6998C40.8384 28.4135 41.0659 28.1833 41.3487 28.1833H43.3897C43.6726 28.1833 43.9 28.4135 43.9 28.6998C43.9 28.986 43.6726 29.2162 43.3897 29.2162ZM38.7245 29.2162H36.6835C36.4007 29.2162 36.1732 28.986 36.1732 28.6998C36.1732 28.4135 36.4007 28.1833 36.6835 28.1833H38.7245C39.0074 28.1833 39.2348 28.4135 39.2348 28.6998C39.2348 28.986 39.0074 29.2162 38.7245 29.2162ZM34.0593 29.2162H32.0183C31.7355 29.2162 31.508 28.986 31.508 28.6998C31.508 28.4135 31.7355 28.1833 32.0183 28.1833H34.0593C34.3422 28.1833 34.5696 28.4135 34.5696 28.6998C34.5696 28.986 34.3422 29.2162 34.0593 29.2162ZM29.3941 29.2162H27.3531C27.0703 29.2162 26.8428 28.986 26.8428 28.6998C26.8428 28.4135 27.0703 28.1833 27.3531 28.1833H29.3941C29.677 28.1833 29.9044 28.4135 29.9044 28.6998C29.9044 28.986 29.677 29.2162 29.3941 29.2162ZM24.7289 29.2162H22.6879C22.4051 29.2162 22.1776 28.986 22.1776 28.6998C22.1776 28.4135 22.4051 28.1833 22.6879 28.1833H24.7289C25.0117 28.1833 25.2392 28.4135 25.2392 28.6998C25.2392 28.986 25.0117 29.2162 24.7289 29.2162ZM20.0637 29.2162H18.0227C17.7399 29.2162 17.5124 28.986 17.5124 28.6998C17.5124 28.4135 17.7399 28.1833 18.0227 28.1833H20.0637C20.3465 28.1833 20.574 28.4135 20.574 28.6998C20.574 28.986 20.3465 29.2162 20.0637 29.2162ZM15.3985 29.2162H14.308C13.894 29.2162 13.4858 29.0805 13.1271 28.8237C12.8968 28.6585 12.8414 28.3368 13.0047 28.1037C13.168 27.8705 13.4858 27.8145 13.7161 27.9797C13.9056 28.1155 14.1039 28.1833 14.3109 28.1833H15.4014C15.6843 28.1833 15.9117 28.4135 15.9117 28.6998C15.9117 28.986 15.6843 29.2162 15.4014 29.2162H15.3985ZM12.3486 26.5927C12.0746 26.5927 11.8471 26.3714 11.8384 26.094C11.8384 26.0438 11.8384 25.9966 11.8384 25.9464C11.8384 25.1673 12.0454 24.4118 12.4244 23.8246C12.579 23.5855 12.8939 23.5176 13.1301 23.6741C13.3662 23.8305 13.4333 24.1492 13.2788 24.3882C13.0076 24.8102 12.856 25.365 12.856 25.9494C12.856 25.9877 12.856 26.0231 12.856 26.0615C12.8647 26.3478 12.646 26.5868 12.3632 26.5956C12.3574 26.5956 12.3516 26.5956 12.3457 26.5956L12.3486 26.5927Z" fill="#447BCC"/>
<path d="M6.60397 14.6288L13.3656 5.21777C13.3656 5.21777 4.146 5.37418 4.146 5.68405V13.3835L6.60397 14.6288Z" fill="#C0DDFF"/>
<path d="M3.58969 13.5435L8.65727 15.0721L9.53199 16.2614L15.3052 16.1581L16.9817 14.6295L20.7401 13.5435L20.606 21.898L4.19325 22.0013L3.45557 19.4191L3.58969 13.5435Z" fill="#447BCC"/>
<path d="M3.25391 5.42486L21.4453 5.05007L20.6405 1.95731L12.0828 1.17822H6.77905L3.95952 1.85698L3.25391 5.42486Z" fill="#447BCC"/>
<path d="M15.3427 18.4448H9.51409C9.11172 18.4448 8.78516 18.7753 8.78516 19.1796C8.78516 19.5839 9.11172 19.9145 9.51409 19.9145H15.3427C15.7451 19.9145 16.0716 19.5839 16.0716 19.1796C16.0716 18.7724 15.7451 18.4448 15.3427 18.4448Z" fill="#214F9A"/>
<path d="M24.3494 5.74045L21.8681 4.92595V3.63042C21.8681 1.91878 20.489 0.528809 18.792 0.528809H6.03561C4.34156 0.528809 2.95949 1.92173 2.95949 3.63042V4.9348L0.504425 5.74045C0.204103 5.83784 0 6.12115 0 6.43987V9.32309C0 9.73034 0.326564 10.0579 0.728938 10.0579C1.13131 10.0579 1.45788 9.72739 1.45788 9.32309V6.97106L2.95657 6.47823V20.5638C2.95657 21.5289 3.56013 22.3522 4.4057 22.6739V24.9433C4.4057 25.3505 4.73227 25.6781 5.13464 25.6781H8.05039C8.45277 25.6781 8.77933 25.3476 8.77933 24.9433V22.8185H16.0658V24.9433C16.0658 25.3505 16.3924 25.6781 16.7947 25.6781H19.7105C20.1129 25.6781 20.4394 25.3476 20.4394 24.9433V22.665C21.2704 22.3375 21.8623 21.52 21.8623 20.5668V6.47233L23.3902 6.97402V9.32604C23.3902 9.7333 23.7167 10.0609 24.1191 10.0609C24.5215 10.0609 24.848 9.73034 24.848 9.32604V6.44282C24.848 6.1241 24.6439 5.84079 24.3436 5.74341L24.3494 5.74045ZM19.6347 21.3488H5.19295C4.76434 21.3488 4.41736 20.9977 4.41736 20.5668V14.4521L7.8667 15.5499L8.69769 16.692C8.83473 16.8809 9.05341 16.993 9.28667 16.993H15.5439C15.7771 16.993 15.9958 16.8809 16.1329 16.692L16.9638 15.5499L20.4132 14.4521V20.5668C20.4132 20.9977 20.0662 21.3488 19.6376 21.3488H19.6347ZM16.2961 14.219C16.1474 14.2662 16.0191 14.3606 15.9288 14.4846L15.1765 15.5204H9.65697L8.90471 14.4846C8.81432 14.3577 8.68311 14.2662 8.53732 14.219L4.4232 12.9116V6.19492H20.4161V12.9116L16.302 14.219H16.2961ZM6.03561 1.99846H18.7949C19.6872 1.99846 20.4132 2.73033 20.4132 3.63042V4.72528H4.41736V3.63042C4.41736 2.73033 5.14339 1.99846 6.03561 1.99846ZM7.32729 24.2085H5.86941V22.8185H7.32729V24.2085ZM17.5295 24.2085V22.8185H18.9874V24.2085H17.5295Z" fill="#214F9A"/>
<path d="M18.2587 18.4067C17.8563 18.4067 17.5298 18.7373 17.5298 19.1416V19.1652C17.5298 19.5724 17.8563 19.9 18.2587 19.9C18.6611 19.9 18.9877 19.5695 18.9877 19.1652V19.1416C18.9877 18.7343 18.6611 18.4067 18.2587 18.4067Z" fill="#F3F3F5"/>
<path d="M6.59808 18.4067C6.1957 18.4067 5.86914 18.7373 5.86914 19.1416V19.1652C5.86914 19.5724 6.1957 19.9 6.59808 19.9C7.00045 19.9 7.32702 19.5695 7.32702 19.1652V19.1416C7.32702 18.7343 7.00045 18.4067 6.59808 18.4067Z" fill="#F3F3F5"/>
<path d="M29.2645 24.3581V18.8806H30.0298V19.5484C30.1499 19.3183 30.3275 19.1357 30.5626 19.0007C30.8027 18.8656 31.0728 18.7981 31.3729 18.7981C31.8932 18.7981 32.3034 18.9607 32.6035 19.2858C32.9036 19.611 33.0537 20.1012 33.0537 20.7565V20.9065C33.0537 21.3567 32.9837 21.7344 32.8436 22.0396C32.7035 22.3397 32.5085 22.5648 32.2583 22.7149C32.0082 22.8649 31.7131 22.94 31.3729 22.94C31.0878 22.94 30.8277 22.8774 30.5926 22.7524C30.3575 22.6273 30.1899 22.4522 30.0899 22.2271V24.3581H29.2645ZM31.1779 22.2196C31.488 22.2196 31.7381 22.1121 31.9282 21.897C32.1183 21.6819 32.2133 21.3517 32.2133 20.9065V20.7565C32.2133 20.3363 32.1208 20.0261 31.9357 19.8261C31.7506 19.621 31.498 19.5184 31.1779 19.5184C30.9928 19.5184 30.8152 19.5584 30.6451 19.6385C30.48 19.7185 30.345 19.8361 30.2399 19.9911C30.1399 20.1462 30.0899 20.3388 30.0899 20.5689V21.0941C30.0899 21.3442 30.1399 21.5543 30.2399 21.7244C30.345 21.8895 30.48 22.0145 30.6451 22.0996C30.8102 22.1796 30.9878 22.2196 31.1779 22.2196ZM35.0439 22.94C34.7587 22.94 34.5136 22.8874 34.3085 22.7824C34.1084 22.6723 33.9559 22.5223 33.8508 22.3322C33.7458 22.1421 33.6932 21.9295 33.6932 21.6944C33.6932 21.2992 33.8108 21.0066 34.0459 20.8165C34.281 20.6214 34.6262 20.5239 35.0814 20.5239H36.3194V20.3063C36.3194 20.0061 36.2519 19.801 36.1168 19.691C35.9868 19.5759 35.7792 19.5184 35.4941 19.5184C35.2389 19.5184 35.0514 19.5584 34.9313 19.6385C34.8112 19.7185 34.7412 19.8286 34.7212 19.9686H33.9183C33.9334 19.7385 34.0059 19.5359 34.1359 19.3608C34.266 19.1858 34.4486 19.0482 34.6837 18.9482C34.9238 18.8481 35.2064 18.7981 35.5316 18.7981C35.8567 18.7981 36.1393 18.8481 36.3795 18.9482C36.6246 19.0482 36.8121 19.2058 36.9422 19.4209C37.0773 19.631 37.1448 19.9111 37.1448 20.2613V21.8445C37.1448 22.0546 37.1473 22.2396 37.1523 22.3997C37.1573 22.5548 37.1698 22.7074 37.1898 22.8574H36.4395C36.4245 22.7424 36.412 22.6448 36.402 22.5648C36.397 22.4848 36.3945 22.3847 36.3945 22.2647C36.2994 22.4497 36.1343 22.6098 35.8992 22.7449C35.6691 22.8749 35.384 22.94 35.0439 22.94ZM35.269 22.2196C35.459 22.2196 35.6316 22.1871 35.7867 22.1221C35.9468 22.0571 36.0743 21.9595 36.1694 21.8295C36.2694 21.6994 36.3194 21.5418 36.3194 21.3567V21.1391H35.2314C35.0213 21.1391 34.8513 21.1842 34.7212 21.2742C34.5962 21.3643 34.5336 21.4968 34.5336 21.6719C34.5336 21.837 34.5911 21.9695 34.7062 22.0696C34.8263 22.1696 35.0138 22.2196 35.269 22.2196ZM39.8108 22.94C39.4557 22.94 39.1355 22.8649 38.8504 22.7149C38.5653 22.5648 38.3402 22.3397 38.1751 22.0396C38.015 21.7394 37.935 21.3617 37.935 20.9065V20.7565C37.935 20.3263 38.02 19.9661 38.1901 19.676C38.3652 19.3859 38.5953 19.1683 38.8804 19.0232C39.1656 18.8731 39.4757 18.7981 39.8108 18.7981C40.161 18.7981 40.4561 18.8581 40.6962 18.9782C40.9413 19.0982 41.1314 19.2608 41.2665 19.4659C41.4066 19.671 41.4966 19.9011 41.5366 20.1562H40.6962C40.6462 19.9711 40.5562 19.8186 40.4261 19.6985C40.2961 19.5784 40.091 19.5184 39.8108 19.5184C39.6258 19.5184 39.4532 19.5609 39.2931 19.646C39.138 19.731 39.013 19.8661 38.9179 20.0512C38.8229 20.2312 38.7754 20.4663 38.7754 20.7565V20.9065C38.7754 21.2217 38.8229 21.4768 38.9179 21.6719C39.013 21.862 39.138 22.002 39.2931 22.0921C39.4532 22.1771 39.6258 22.2196 39.8108 22.2196C40.0459 22.2196 40.236 22.1671 40.3811 22.0621C40.5262 21.957 40.6312 21.7969 40.6962 21.5818H41.5366C41.4866 21.862 41.3815 22.1046 41.2215 22.3097C41.0664 22.5098 40.8688 22.6648 40.6287 22.7749C40.3886 22.8849 40.116 22.94 39.8108 22.94ZM42.3221 22.8574V18.8806H45.7737V22.8574H44.9483V19.5859H43.1475V22.8574H42.3221ZM46.8212 22.8574V18.8806H47.6466V21.6944L49.56 18.8806H50.3478V22.8574H49.5224V20.0437L47.6091 22.8574H46.8212ZM53.0517 22.94C52.6965 22.94 52.3764 22.8649 52.0912 22.7149C51.8061 22.5648 51.581 22.3397 51.4159 22.0396C51.2559 21.7394 51.1758 21.3617 51.1758 20.9065V20.7565C51.1758 20.3263 51.2609 19.9661 51.4309 19.676C51.606 19.3859 51.8361 19.1683 52.1212 19.0232C52.4064 18.8731 52.7165 18.7981 53.0517 18.7981C53.4018 18.7981 53.697 18.8581 53.9371 18.9782C54.1822 19.0982 54.3723 19.2608 54.5073 19.4659C54.6474 19.671 54.7374 19.9011 54.7774 20.1562H53.9371C53.887 19.9711 53.797 19.8186 53.6669 19.6985C53.5369 19.5784 53.3318 19.5184 53.0517 19.5184C52.8666 19.5184 52.694 19.5609 52.5339 19.646C52.3789 19.731 52.2538 19.8661 52.1588 20.0512C52.0637 20.2312 52.0162 20.4663 52.0162 20.7565V20.9065C52.0162 21.2217 52.0637 21.4768 52.1588 21.6719C52.2538 21.862 52.3789 22.002 52.5339 22.0921C52.694 22.1771 52.8666 22.2196 53.0517 22.2196C53.2868 22.2196 53.4769 22.1671 53.6219 22.0621C53.767 21.957 53.872 21.7969 53.9371 21.5818H54.7774C54.7274 21.862 54.6224 22.1046 54.4623 22.3097C54.3072 22.5098 54.1096 22.6648 53.8695 22.7749C53.6294 22.8849 53.3568 22.94 53.0517 22.94ZM56.726 22.94C56.4408 22.94 56.1957 22.8874 55.9906 22.7824C55.7906 22.6723 55.638 22.5223 55.5329 22.3322C55.4279 22.1421 55.3754 21.9295 55.3754 21.6944C55.3754 21.2992 55.4929 21.0066 55.728 20.8165C55.9631 20.6214 56.3083 20.5239 56.7635 20.5239H58.0015V20.3063C58.0015 20.0061 57.934 19.801 57.799 19.691C57.6689 19.5759 57.4613 19.5184 57.1762 19.5184C56.9211 19.5184 56.7335 19.5584 56.6134 19.6385C56.4934 19.7185 56.4233 19.8286 56.4033 19.9686H55.6005C55.6155 19.7385 55.688 19.5359 55.8181 19.3608C55.9481 19.1858 56.1307 19.0482 56.3658 18.9482C56.6059 18.8481 56.8885 18.7981 57.2137 18.7981C57.5388 18.7981 57.8215 18.8481 58.0616 18.9482C58.3067 19.0482 58.4943 19.2058 58.6243 19.4209C58.7594 19.631 58.8269 19.9111 58.8269 20.2613V21.8445C58.8269 22.0546 58.8294 22.2396 58.8344 22.3997C58.8394 22.5548 58.8519 22.7074 58.8719 22.8574H58.1216C58.1066 22.7424 58.0941 22.6448 58.0841 22.5648C58.0791 22.4848 58.0766 22.3847 58.0766 22.2647C57.9815 22.4497 57.8165 22.6098 57.5814 22.7449C57.3513 22.8749 57.0661 22.94 56.726 22.94ZM56.9511 22.2196C57.1412 22.2196 57.3137 22.1871 57.4688 22.1221C57.6289 22.0571 57.7564 21.9595 57.8515 21.8295C57.9515 21.6994 58.0015 21.5418 58.0015 21.3567V21.1391H56.9136C56.7035 21.1391 56.5334 21.1842 56.4033 21.2742C56.2783 21.3643 56.2157 21.4968 56.2157 21.6719C56.2157 21.837 56.2733 21.9695 56.3883 22.0696C56.5084 22.1696 56.696 22.2196 56.9511 22.2196ZM59.8422 22.8574V18.8806H60.6676V20.4789H62.5434V18.8806H63.3688V22.8574H62.5434V21.1842H60.6676V22.8574H59.8422ZM64.4219 22.8574V18.8806H65.2473V21.6944L67.1606 18.8806H67.9485V22.8574H67.1231V20.0437L65.2098 22.8574H64.4219ZM70.7274 22.94C70.3772 22.94 70.0546 22.8674 69.7595 22.7224C69.4643 22.5723 69.2267 22.3472 69.0466 22.0471C68.8666 21.7469 68.7765 21.3668 68.7765 20.9065V20.7565C68.7765 20.3163 68.8615 19.9511 69.0316 19.661C69.2067 19.3709 69.4368 19.1558 69.7219 19.0157C70.0071 18.8706 70.3172 18.7981 70.6524 18.7981C71.2576 18.7981 71.7203 18.9607 72.0405 19.2858C72.3656 19.611 72.5282 20.0762 72.5282 20.6814V21.1016H69.6169C69.6269 21.3718 69.6844 21.5894 69.7895 21.7544C69.8945 21.9195 70.0296 22.0396 70.1946 22.1146C70.3597 22.1846 70.5373 22.2196 70.7274 22.2196C71.0125 22.2196 71.2201 22.1746 71.3502 22.0846C71.4852 21.9945 71.5778 21.877 71.6278 21.7319H72.4532C72.3731 22.1271 72.1755 22.4272 71.8604 22.6323C71.5503 22.8374 71.1726 22.94 70.7274 22.94ZM70.6899 19.5184C70.5048 19.5184 70.3322 19.5509 70.1721 19.616C70.0121 19.681 69.882 19.7835 69.782 19.9236C69.6819 20.0637 69.6269 20.2512 69.6169 20.4864H71.7028C71.6978 20.2362 71.6503 20.0412 71.5603 19.9011C71.4702 19.761 71.3502 19.6635 71.2001 19.6085C71.05 19.5484 70.88 19.5184 70.6899 19.5184ZM76.9558 22.94C76.5906 22.94 76.2605 22.8649 75.9653 22.7149C75.6702 22.5598 75.4351 22.3322 75.26 22.0321C75.0899 21.7269 75.0049 21.3517 75.0049 20.9065V20.7565C75.0049 20.3363 75.0899 19.9811 75.26 19.691C75.4351 19.3959 75.6702 19.1733 75.9653 19.0232C76.2605 18.8731 76.5906 18.7981 76.9558 18.7981C77.3259 18.7981 77.6561 18.8731 77.9462 19.0232C78.2414 19.1733 78.474 19.3959 78.644 19.691C78.8191 19.9811 78.9067 20.3363 78.9067 20.7565V20.9065C78.9067 21.3517 78.8191 21.7269 78.644 22.0321C78.474 22.3322 78.2414 22.5598 77.9462 22.7149C77.6561 22.8649 77.3259 22.94 76.9558 22.94ZM76.9558 22.2196C77.1459 22.2196 77.3259 22.1746 77.496 22.0846C77.6661 21.9945 77.8037 21.8545 77.9087 21.6644C78.0138 21.4693 78.0663 21.2167 78.0663 20.9065V20.7565C78.0663 20.4713 78.0138 20.2387 77.9087 20.0587C77.8037 19.8736 77.6661 19.7385 77.496 19.6535C77.3259 19.5634 77.1459 19.5184 76.9558 19.5184C76.7657 19.5184 76.5856 19.5634 76.4155 19.6535C76.2455 19.7385 76.1079 19.8736 76.0028 20.0587C75.8978 20.2387 75.8453 20.4713 75.8453 20.7565V20.9065C75.8453 21.2167 75.8978 21.4693 76.0028 21.6644C76.1079 21.8545 76.2455 21.9945 76.4155 22.0846C76.5856 22.1746 76.7657 22.2196 76.9558 22.2196ZM79.7291 22.8574V18.8806H80.5545V20.4789H82.4303V18.8806H83.2557V22.8574H82.4303V21.1842H80.5545V22.8574H79.7291ZM84.2338 22.94C84.1937 22.94 84.1487 22.9375 84.0987 22.9325C84.0537 22.9325 84.0112 22.9275 83.9711 22.9174V22.1371C83.9861 22.1421 84.0237 22.1446 84.0837 22.1446C84.2238 22.1446 84.3363 22.0846 84.4213 21.9645C84.5114 21.8445 84.5764 21.6369 84.6164 21.3417C84.6614 21.0416 84.684 20.6214 84.684 20.0812V18.8806H87.6853V22.8574H86.8599V19.5859H85.4793V20.2312C85.4793 20.7615 85.4518 21.2042 85.3968 21.5593C85.3468 21.9095 85.2692 22.1846 85.1642 22.3847C85.0591 22.5848 84.9291 22.7274 84.774 22.8124C84.6189 22.8974 84.4388 22.94 84.2338 22.94ZM89.8976 22.94C89.6125 22.94 89.3674 22.8874 89.1623 22.7824C88.9622 22.6723 88.8096 22.5223 88.7046 22.3322C88.5995 22.1421 88.547 21.9295 88.547 21.6944C88.547 21.2992 88.6646 21.0066 88.8997 20.8165C89.1348 20.6214 89.4799 20.5239 89.9351 20.5239H91.1732V20.3063C91.1732 20.0061 91.1057 19.801 90.9706 19.691C90.8406 19.5759 90.633 19.5184 90.3478 19.5184C90.0927 19.5184 89.9051 19.5584 89.7851 19.6385C89.665 19.7185 89.595 19.8286 89.575 19.9686H88.7721C88.7871 19.7385 88.8597 19.5359 88.9897 19.3608C89.1198 19.1858 89.3024 19.0482 89.5375 18.9482C89.7776 18.8481 90.0602 18.7981 90.3854 18.7981C90.7105 18.7981 90.9931 18.8481 91.2332 18.9482C91.4783 19.0482 91.6659 19.2058 91.796 19.4209C91.931 19.631 91.9986 19.9111 91.9986 20.2613V21.8445C91.9986 22.0546 92.0011 22.2396 92.0061 22.3997C92.0111 22.5548 92.0236 22.7074 92.0436 22.8574H91.2933C91.2783 22.7424 91.2657 22.6448 91.2557 22.5648C91.2507 22.4848 91.2482 22.3847 91.2482 22.2647C91.1532 22.4497 90.9881 22.6098 90.753 22.7449C90.5229 22.8749 90.2378 22.94 89.8976 22.94ZM90.1227 22.2196C90.3128 22.2196 90.4854 22.1871 90.6405 22.1221C90.8005 22.0571 90.9281 21.9595 91.0231 21.8295C91.1232 21.6994 91.1732 21.5418 91.1732 21.3567V21.1391H90.0852C89.8751 21.1391 89.705 21.1842 89.575 21.2742C89.4499 21.3643 89.3874 21.4968 89.3874 21.6719C89.3874 21.837 89.4449 21.9695 89.56 22.0696C89.68 22.1696 89.8676 22.2196 90.1227 22.2196ZM93.0139 22.8574V18.8806H93.8393V21.6944L95.7526 18.8806H96.5405V22.8574H95.7151V20.0437L93.8017 22.8574H93.0139ZM94.7772 18.4304C94.362 18.4304 94.0568 18.3404 93.8618 18.1603C93.6717 17.9752 93.5766 17.7151 93.5766 17.38H94.342C94.342 17.56 94.377 17.6901 94.447 17.7701C94.5221 17.8502 94.6321 17.8902 94.7772 17.8902C94.9222 17.8902 95.0298 17.8502 95.0998 17.7701C95.1749 17.6901 95.2124 17.56 95.2124 17.38H95.9777C95.9777 17.7151 95.8802 17.9752 95.6851 18.1603C95.49 18.3404 95.1874 18.4304 94.7772 18.4304ZM97.5936 22.8574V18.8806H98.419V20.4789H100.295V18.8806H101.12V22.8574H100.295V21.1842H98.419V22.8574H97.5936Z" fill="url(#paint0_linear_23_1341)"/>
<path fill-rule="evenodd" clip-rule="evenodd" d="M111.769 26.4519C112.562 26.4519 116 22.5194 116 19.6356C116 17.3189 114.105 15.4409 111.769 15.4409C109.432 15.4409 107.538 17.3189 107.538 19.6356C107.538 22.5194 110.976 26.4519 111.769 26.4519ZM111.769 22.2573C113.229 22.2573 114.413 21.0835 114.413 19.6356C114.413 18.1877 113.229 17.0139 111.769 17.0139C110.308 17.0139 109.125 18.1877 109.125 19.6356C109.125 21.0835 110.308 22.2573 111.769 22.2573Z" fill="url(#paint1_linear_23_1341)"/>
<ellipse cx="111.769" cy="28.7153" rx="1.26923" ry="1.28462" fill="#447BCC"/>
<defs>
<linearGradient id="paint0_linear_23_1341" x1="42.0647" y1="13.0241" x2="46.8254" y2="30.83" gradientUnits="userSpaceOnUse">
<stop stop-color="#FAA848"/>
<stop offset="1" stop-color="#E8C619"/>
</linearGradient>
<linearGradient id="paint1_linear_23_1341" x1="109.083" y1="13.6057" x2="116.047" y2="16.6221" gradientUnits="userSpaceOnUse">
<stop stop-color="#FAA848"/>
<stop offset="1" stop-color="#E8C619"/>
</linearGradient>
</defs>
</svg>
