<svg width="370" height="261" viewBox="0 0 370 261" fill="none" xmlns="http://www.w3.org/2000/svg">
<g clip-path="url(#clip0_52_1499)">
<path d="M105.688 242.892C157.042 215.189 165.454 226.504 207.978 249.831C254.042 275.107 296.361 235.536 302.088 202.18C318.432 107.04 270.733 21.6202 212.843 4.05438C179.522 -6.05572 114.562 6.15613 109.316 68.3025C106.933 96.5673 118.368 122.214 89.5744 133.076C59.7933 144.309 14.6282 119.206 1.58288 172.375C-11.3468 225.073 57.668 268.783 105.679 242.892H105.688Z" fill="#F0F8FF"/>
<path d="M182.928 260.893C279.237 260.893 357.311 257.425 357.311 253.147C357.311 248.869 279.237 245.401 182.928 245.401C86.6195 245.401 8.5459 248.869 8.5459 253.147C8.5459 257.425 86.6195 260.893 182.928 260.893Z" fill="#D6E6F2"/>
<path d="M36.1662 189.723C36.1662 189.723 92.198 157.781 109.974 136.999C142.619 98.8321 233.776 68.3387 242.873 80.4056C251.321 91.6119 229.81 99.6837 223.665 103.47C217.52 107.266 186.023 122.078 186.023 122.078C186.023 122.078 236.782 111.28 251.001 109.296C264.971 107.348 276.415 124.388 248.244 132.297C220.135 140.188 193.697 151.874 193.697 151.874C193.697 151.874 258.933 140.233 263.219 150.28C267.407 160.1 259.386 168.253 196 169.875C196 169.875 187.553 185.529 213.67 184.75C239.787 183.962 253.553 187.694 244.331 196.3C235.119 204.916 191.394 203.53 177.566 206.655C163.738 209.781 152.062 224.946 110.73 226.223C82.1583 227.102 63.1017 241.877 63.1017 241.877C63.1017 241.877 37.1088 221.63 36.1484 189.732L36.1662 189.723Z" fill="#FBC6B4"/>
<path d="M171.172 159.8C171.172 159.8 150.764 218.423 106.239 184.441L171.172 141.89V159.8Z" fill="#F7B2A0"/>
<path d="M174.57 22.136H276.193C282.48 22.136 287.576 27.336 287.576 33.7318V225.018C287.576 231.422 282.471 236.613 276.193 236.613H173.511C167.224 236.613 162.129 231.413 162.129 225.018V34.8099C162.129 27.8162 167.705 22.127 174.578 22.127L174.57 22.136Z" fill="#94B8ED"/>
<path d="M285.015 22.1357H182.644C176.269 22.1357 171.102 27.4004 171.102 33.8946V224.854C171.102 231.348 176.269 236.613 182.644 236.613H285.015C291.39 236.613 296.557 231.348 296.557 224.854V33.8946C296.557 27.4004 291.39 22.1357 285.015 22.1357Z" fill="#B3D0FF"/>
<path d="M188.727 32.2373H280.613C284.455 32.2373 287.576 35.4171 287.576 39.3307V206.927C287.576 210.84 284.455 214.02 280.613 214.02H188.727C184.885 214.02 181.764 210.84 181.764 206.927V39.3307C181.764 35.4171 184.885 32.2373 188.727 32.2373Z" fill="#94B8ED"/>
<path d="M275.811 32.2373H188.727C184.881 32.2373 181.764 35.4131 181.764 39.3307V206.917C181.764 210.835 184.881 214.011 188.727 214.011H275.811C279.656 214.011 282.774 210.835 282.774 206.917V39.3307C282.774 35.4131 279.656 32.2373 275.811 32.2373Z" fill="#F0F8FF"/>
<path d="M268.519 227.427H203.88C201.906 227.427 200.287 225.779 200.287 223.767C200.287 221.756 201.906 220.107 203.88 220.107H268.519C270.494 220.107 272.112 221.756 272.112 223.767C272.112 225.779 270.494 227.427 268.519 227.427Z" fill="#94B8ED"/>
<path d="M307.619 39.0137H197.992V204.798H307.619V39.0137Z" fill="#D6E6F2"/>
<path d="M297.277 47.8828H208.076V54.3692H297.277V47.8828Z" fill="white"/>
<path d="M297.277 134.797H208.076V141.283H297.277V134.797Z" fill="white"/>
<path d="M252.806 58.1377H208.076V97.7537H252.806V58.1377Z" fill="white"/>
<path d="M297.277 58.1377H258.088V68.4471H297.277V58.1377Z" fill="white"/>
<path d="M297.277 72.7866H258.088V83.096H297.277V72.7866Z" fill="white"/>
<path d="M297.277 87.4443H258.088V97.7537H297.277V87.4443Z" fill="white"/>
<path d="M297.277 145.061H208.076V160.643H297.277V145.061Z" fill="white"/>
<path d="M297.277 186.924H208.076V196.2H297.277V186.924Z" fill="white"/>
<path d="M297.277 163.225H208.076V167.863H297.277V163.225Z" fill="white"/>
<path d="M297.277 179.024H208.076V183.663H297.277V179.024Z" fill="white"/>
<path d="M240.667 83.0962H355.541C363.526 83.0962 370 89.7004 370 97.8265V170.572C370 178.707 363.517 185.302 355.541 185.302H240.667C232.682 185.302 226.208 178.698 226.208 170.572V97.8265C226.208 89.6913 232.691 83.0962 240.667 83.0962Z" fill="#426ECE"/>
<path d="M236.479 83.0962H351.352C359.338 83.0962 365.812 89.7004 365.812 97.8265V170.572C365.812 178.707 359.329 185.302 351.352 185.302H236.479C228.493 185.302 222.02 178.698 222.02 170.572V97.8265C222.02 89.6913 228.502 83.0962 236.479 83.0962Z" fill="#5A7FE5"/>
<path d="M365.812 102.356H222.011V120.846H365.812V102.356Z" fill="#282738"/>
<path d="M346.275 129.733H241.895C240.738 129.733 239.796 128.773 239.796 127.595C239.796 126.417 240.738 125.457 241.895 125.457H346.275C347.431 125.457 348.374 126.417 348.374 127.595C348.374 128.773 347.431 129.733 346.275 129.733Z" fill="#AACEF2"/>
<g style="mix-blend-mode:overlay" opacity="0.2">
<path d="M232.486 185.312H285.512L365.812 126.517V93.768C365.812 87.8976 361.099 83.0962 355.336 83.0962H325.84L222.011 156.014V174.64C222.011 180.51 226.724 185.312 232.486 185.312Z" fill="white"/>
</g>
<path d="M325.133 49.9342C329.021 32.3735 318.199 14.927 300.961 10.9663C283.724 7.00564 266.598 18.0306 262.71 35.5913C258.823 53.152 269.645 70.5985 286.882 74.5592C304.12 78.5198 321.245 67.4949 325.133 49.9342Z" fill="#FAC22E"/>
<path d="M277.046 43.8242L292.261 60.5475L315.088 29.4109L309.513 24.981L292.119 49.7489L281.474 38.7872L277.046 43.8242Z" fill="white"/>
<path d="M211.144 53.5991H195.547V205.205H211.144V53.5991Z" fill="#FF6C52"/>
<path d="M211.144 105.146H195.547V205.205H211.144V105.146Z" fill="#FFA000"/>
<path d="M211.144 145.976H195.547V205.205H211.144V145.976Z" fill="#FEDA00"/>
<path d="M211.144 177.058H195.547V205.205H211.144V177.058Z" fill="#8DC73E"/>
<path d="M106.239 189.66C106.239 189.66 133.379 205.069 150.88 175.047C154.757 168.407 158.848 152.979 173.085 148.177C204.617 137.524 213.305 122.005 202.999 115.392C192.684 108.77 132.526 127.622 113.016 143.965C100.344 154.582 79.7664 175.437 106.248 189.66H106.239Z" fill="#FBC6B4"/>
<path d="M202.288 116.498C202.288 116.498 205.969 120.176 197.343 123.31C190.87 125.656 182.119 123.328 180.27 120.819C180.27 120.819 177.042 116.76 187.25 114.776C190.967 114.052 199.655 113.028 202.296 116.498H202.288Z" fill="#F7B2A0"/>
</g>
<defs>
<clipPath id="clip0_52_1499">
<rect width="370" height="260" fill="white" transform="translate(0 0.89209)"/>
</clipPath>
</defs>
</svg>
