<svg width="417" height="342" viewBox="0 0 417 342" fill="none" xmlns="http://www.w3.org/2000/svg">
<g clip-path="url(#clip0_52_1986)">
<path d="M363.338 106.942C299.929 117.887 337.107 -3.14704 250.727 48.2285C216.375 68.659 166.912 43.9352 119.543 57.4493C76.04 69.86 86.7564 110.582 90.9665 123.905C99.4682 150.818 57.1228 140.084 32.5768 151.647C-5.9252 169.786 -1.8689 243.075 34.5033 243.379C70.8771 243.684 359.815 242.611 359.815 242.611C359.815 242.611 375.689 232.339 384.117 211.168C401.396 167.765 419.171 97.3045 363.338 106.942Z" fill="#EBF2F9"/>
<path d="M101.287 84.5546V66.4061H106.797V35.2H136.336V66.4061H163.952V23.6316L194.426 12.0968V48.5651H201.376V0L231.852 10.0999V83.0445H270.393V126.131H284.794V136.985H317.872V118.294H336.865V67.5063H360.323V161.262V242.845H340.215H336.865H317.872H307.137H289.944H284.794H270.393H256.866H231.852H224.191H208.951H201.376H194.426H178.475H167.616H163.952H136.336H107.29H106.797H101.287H77.7513V84.5546H101.287Z" fill="#D5E7F7"/>
<path d="M206.738 13.7925H227.297V21.3206H206.738V13.7925Z" fill="#C4D9ED"/>
<path d="M206.738 27.936H227.297V35.4641H206.738V27.936Z" fill="#C4D9ED"/>
<path d="M206.738 40.6606H227.297V48.1887H206.738V40.6606Z" fill="#C4D9ED"/>
<path d="M336.427 101.723H360.321V113.344H336.427V101.723Z" fill="#C4D9ED"/>
<path d="M336.654 137.394H360.321V149.015H336.654V137.394Z" fill="#C4D9ED"/>
<path d="M336.654 154.948H360.321V166.569H336.654V154.948Z" fill="#C4D9ED"/>
<path d="M337.041 173.312H360.708V184.934H337.041V173.312Z" fill="#C4D9ED"/>
<path d="M337.041 191.299H360.708V202.921H337.041V191.299Z" fill="#C4D9ED"/>
<path d="M337.041 209.664H360.708V221.285H337.041V209.664Z" fill="#C4D9ED"/>
<path d="M168.79 40.6606H190.412V48.1887H168.79V40.6606Z" fill="#C4D9ED"/>
<path d="M168.79 28.0513H190.412V35.5794H168.79V28.0513Z" fill="#C4D9ED"/>
<path d="M168.792 52.9976H227.82V60.5257H168.792V52.9976Z" fill="#C4D9ED"/>
<path d="M168.792 64.3179H227.82V71.846H168.792V64.3179Z" fill="#C4D9ED"/>
<path d="M168.792 75.561H227.82V82.8009H168.792V75.561Z" fill="#C4D9ED"/>
<path d="M336.656 119.839H360.323V131.461H336.656V119.839Z" fill="#C4D9ED"/>
<path d="M259.325 90.1069H264.491V97.3884H259.325V90.1069Z" fill="#C4D9ED"/>
<path d="M249.664 90.1069H254.83V97.3884H249.664V90.1069Z" fill="#C4D9ED"/>
<path d="M240.219 90.1069H245.385V97.3884H240.219V90.1069Z" fill="#C4D9ED"/>
<path d="M231.264 90.1069H236.43V97.3884H231.264V90.1069Z" fill="#C4D9ED"/>
<path d="M222.138 90.1069H227.304V97.3884H222.138V90.1069Z" fill="#C4D9ED"/>
<path d="M212.905 90.1069H218.071V97.3884H212.905V90.1069Z" fill="#C4D9ED"/>
<path d="M203.245 90.1069H208.411V97.3884H203.245V90.1069Z" fill="#C4D9ED"/>
<path d="M193.801 90.1069H198.967V97.3884H193.801V90.1069Z" fill="#C4D9ED"/>
<path d="M184.847 90.1069H190.013V97.3884H184.847V90.1069Z" fill="#C4D9ED"/>
<path d="M175.719 90.1069H180.885V97.3884H175.719V90.1069Z" fill="#C4D9ED"/>
<path d="M166.208 90.1069H171.374V97.3884H166.208V90.1069Z" fill="#C4D9ED"/>
<path d="M156.547 90.1069H161.713V97.3884H156.547V90.1069Z" fill="#C4D9ED"/>
<path d="M147.102 90.1069H152.268V97.3884H147.102V90.1069Z" fill="#C4D9ED"/>
<path d="M138.146 90.1069H143.312V97.3884H138.146V90.1069Z" fill="#C4D9ED"/>
<path d="M129.021 90.1069H134.188V97.3884H129.021V90.1069Z" fill="#C4D9ED"/>
<path d="M119.791 90.1069H124.957V97.3884H119.791V90.1069Z" fill="#C4D9ED"/>
<path d="M110.129 90.1069H115.295V97.3884H110.129V90.1069Z" fill="#C4D9ED"/>
<path d="M100.685 90.1069H105.851V97.3884H100.685V90.1069Z" fill="#C4D9ED"/>
<path d="M91.7295 90.1069H96.8955V97.3884H91.7295V90.1069Z" fill="#C4D9ED"/>
<path d="M82.6015 90.1069H87.7676V97.3884H82.6015V90.1069Z" fill="#C4D9ED"/>
<path d="M259.325 102.957H264.491V110.238H259.325V102.957Z" fill="#C4D9ED"/>
<path d="M249.664 102.957H254.83V110.238H249.664V102.957Z" fill="#C4D9ED"/>
<path d="M240.219 102.957H245.385V110.238H240.219V102.957Z" fill="#C4D9ED"/>
<path d="M231.264 102.957H236.43V110.238H231.264V102.957Z" fill="#C4D9ED"/>
<path d="M222.138 102.957H227.304V110.238H222.138V102.957Z" fill="#C4D9ED"/>
<path d="M212.905 102.957H218.071V110.238H212.905V102.957Z" fill="#C4D9ED"/>
<path d="M203.245 102.957H208.411V110.238H203.245V102.957Z" fill="#C4D9ED"/>
<path d="M193.801 102.957H198.967V110.238H193.801V102.957Z" fill="#C4D9ED"/>
<path d="M184.847 102.957H190.013V110.238H184.847V102.957Z" fill="#C4D9ED"/>
<path d="M175.719 102.957H180.885V110.238H175.719V102.957Z" fill="#C4D9ED"/>
<path d="M166.208 102.957H171.374V110.238H166.208V102.957Z" fill="#C4D9ED"/>
<path d="M156.547 102.957H161.713V110.238H156.547V102.957Z" fill="#C4D9ED"/>
<path d="M147.102 102.957H152.268V110.238H147.102V102.957Z" fill="#C4D9ED"/>
<path d="M138.146 102.957H143.312V110.238H138.146V102.957Z" fill="#C4D9ED"/>
<path d="M129.021 102.957H134.188V110.238H129.021V102.957Z" fill="#C4D9ED"/>
<path d="M119.791 102.957H124.957V110.238H119.791V102.957Z" fill="#C4D9ED"/>
<path d="M110.129 102.957H115.295V110.238H110.129V102.957Z" fill="#C4D9ED"/>
<path d="M100.685 102.957H105.851V110.238H100.685V102.957Z" fill="#C4D9ED"/>
<path d="M91.7295 102.957H96.8955V110.238H91.7295V102.957Z" fill="#C4D9ED"/>
<path d="M82.6015 102.957H87.7676V110.238H82.6015V102.957Z" fill="#C4D9ED"/>
<path d="M259.325 115.609H264.491V122.891H259.325V115.609Z" fill="#C4D9ED"/>
<path d="M249.664 115.609H254.83V122.891H249.664V115.609Z" fill="#C4D9ED"/>
<path d="M240.219 115.609H245.385V122.891H240.219V115.609Z" fill="#C4D9ED"/>
<path d="M231.264 115.609H236.43V122.891H231.264V115.609Z" fill="#C4D9ED"/>
<path d="M222.138 115.609H227.304V122.891H222.138V115.609Z" fill="#C4D9ED"/>
<path d="M212.905 115.609H218.071V122.891H212.905V115.609Z" fill="#C4D9ED"/>
<path d="M203.245 115.609H208.411V122.891H203.245V115.609Z" fill="#C4D9ED"/>
<path d="M193.801 115.609H198.967V122.891H193.801V115.609Z" fill="#C4D9ED"/>
<path d="M184.847 115.609H190.013V122.891H184.847V115.609Z" fill="#C4D9ED"/>
<path d="M175.719 115.609H180.885V122.891H175.719V115.609Z" fill="#C4D9ED"/>
<path d="M166.208 115.609H171.374V122.891H166.208V115.609Z" fill="#C4D9ED"/>
<path d="M156.547 115.609H161.713V122.891H156.547V115.609Z" fill="#C4D9ED"/>
<path d="M147.102 115.609H152.268V122.891H147.102V115.609Z" fill="#C4D9ED"/>
<path d="M138.146 115.609H143.312V122.891H138.146V115.609Z" fill="#C4D9ED"/>
<path d="M129.021 115.609H134.188V122.891H129.021V115.609Z" fill="#C4D9ED"/>
<path d="M119.791 115.609H124.957V122.891H119.791V115.609Z" fill="#C4D9ED"/>
<path d="M110.129 115.609H115.295V122.891H110.129V115.609Z" fill="#C4D9ED"/>
<path d="M100.685 115.609H105.851V122.891H100.685V115.609Z" fill="#C4D9ED"/>
<path d="M91.7295 115.609H96.8955V122.891H91.7295V115.609Z" fill="#C4D9ED"/>
<path d="M82.6015 115.609H87.7676V122.891H82.6015V115.609Z" fill="#C4D9ED"/>
<path d="M259.325 129.052H264.491V136.334H259.325V129.052Z" fill="#C4D9ED"/>
<path d="M249.664 129.052H254.83V136.334H249.664V129.052Z" fill="#C4D9ED"/>
<path d="M240.219 129.052H245.385V136.334H240.219V129.052Z" fill="#C4D9ED"/>
<path d="M231.264 129.052H236.43V136.334H231.264V129.052Z" fill="#C4D9ED"/>
<path d="M222.138 129.052H227.304V136.334H222.138V129.052Z" fill="#C4D9ED"/>
<path d="M212.905 129.052H218.071V136.334H212.905V129.052Z" fill="#C4D9ED"/>
<path d="M203.245 129.052H208.411V136.334H203.245V129.052Z" fill="#C4D9ED"/>
<path d="M193.801 129.052H198.967V136.334H193.801V129.052Z" fill="#C4D9ED"/>
<path d="M184.847 129.052H190.013V136.334H184.847V129.052Z" fill="#C4D9ED"/>
<path d="M175.719 129.052H180.885V136.334H175.719V129.052Z" fill="#C4D9ED"/>
<path d="M166.208 129.052H171.374V136.334H166.208V129.052Z" fill="#C4D9ED"/>
<path d="M156.547 129.052H161.713V136.334H156.547V129.052Z" fill="#C4D9ED"/>
<path d="M147.102 129.052H152.268V136.334H147.102V129.052Z" fill="#C4D9ED"/>
<path d="M138.146 129.052H143.312V136.334H138.146V129.052Z" fill="#C4D9ED"/>
<path d="M129.021 129.052H134.188V136.334H129.021V129.052Z" fill="#C4D9ED"/>
<path d="M119.791 129.052H124.957V136.334H119.791V129.052Z" fill="#C4D9ED"/>
<path d="M110.129 129.052H115.295V136.334H110.129V129.052Z" fill="#C4D9ED"/>
<path d="M100.685 129.052H105.851V136.334H100.685V129.052Z" fill="#C4D9ED"/>
<path d="M91.7295 129.052H96.8955V136.334H91.7295V129.052Z" fill="#C4D9ED"/>
<path d="M82.6015 129.052H87.7676V136.334H82.6015V129.052Z" fill="#C4D9ED"/>
<path d="M259.325 141.902H264.491V149.183H259.325V141.902Z" fill="#C4D9ED"/>
<path d="M249.664 141.902H254.83V149.183H249.664V141.902Z" fill="#C4D9ED"/>
<path d="M240.219 141.902H245.385V149.183H240.219V141.902Z" fill="#C4D9ED"/>
<path d="M231.264 141.902H236.43V149.183H231.264V141.902Z" fill="#C4D9ED"/>
<path d="M222.138 141.902H227.304V149.183H222.138V141.902Z" fill="#C4D9ED"/>
<path d="M212.905 141.902H218.071V149.183H212.905V141.902Z" fill="#C4D9ED"/>
<path d="M203.245 141.902H208.411V149.183H203.245V141.902Z" fill="#C4D9ED"/>
<path d="M193.801 141.902H198.967V149.183H193.801V141.902Z" fill="#C4D9ED"/>
<path d="M184.847 141.902H190.013V149.183H184.847V141.902Z" fill="#C4D9ED"/>
<path d="M175.719 141.902H180.885V149.183H175.719V141.902Z" fill="#C4D9ED"/>
<path d="M166.208 141.902H171.374V149.183H166.208V141.902Z" fill="#C4D9ED"/>
<path d="M156.547 141.902H161.713V149.183H156.547V141.902Z" fill="#C4D9ED"/>
<path d="M147.102 141.902H152.268V149.183H147.102V141.902Z" fill="#C4D9ED"/>
<path d="M138.146 141.902H143.312V149.183H138.146V141.902Z" fill="#C4D9ED"/>
<path d="M129.021 141.902H134.188V149.183H129.021V141.902Z" fill="#C4D9ED"/>
<path d="M119.791 141.902H124.957V149.183H119.791V141.902Z" fill="#C4D9ED"/>
<path d="M110.129 141.902H115.295V149.183H110.129V141.902Z" fill="#C4D9ED"/>
<path d="M91.7295 141.902H96.8955V149.183H91.7295V141.902Z" fill="#C4D9ED"/>
<path d="M100.685 141.902H105.851V149.183H100.685V141.902Z" fill="#C4D9ED"/>
<path d="M82.6015 141.902H87.7676V149.183H82.6015V141.902Z" fill="#C4D9ED"/>
<path d="M259.325 154.556H264.491V161.838H259.325V154.556Z" fill="#C4D9ED"/>
<path d="M249.664 154.556H254.83V161.838H249.664V154.556Z" fill="#C4D9ED"/>
<path d="M240.219 154.556H245.385V161.838H240.219V154.556Z" fill="#C4D9ED"/>
<path d="M231.264 154.556H236.43V161.838H231.264V154.556Z" fill="#C4D9ED"/>
<path d="M222.138 154.556H227.304V161.838H222.138V154.556Z" fill="#C4D9ED"/>
<path d="M212.905 154.556H218.071V161.838H212.905V154.556Z" fill="#C4D9ED"/>
<path d="M203.245 154.556H208.411V161.838H203.245V154.556Z" fill="#C4D9ED"/>
<path d="M193.801 154.556H198.967V161.838H193.801V154.556Z" fill="#C4D9ED"/>
<path d="M184.847 154.556H190.013V161.838H184.847V154.556Z" fill="#C4D9ED"/>
<path d="M175.719 154.556H180.885V161.838H175.719V154.556Z" fill="#C4D9ED"/>
<path d="M166.208 154.556H171.374V161.838H166.208V154.556Z" fill="#C4D9ED"/>
<path d="M156.547 154.556H161.713V161.838H156.547V154.556Z" fill="#C4D9ED"/>
<path d="M147.102 154.556H152.268V161.838H147.102V154.556Z" fill="#C4D9ED"/>
<path d="M138.146 154.556H143.312V161.838H138.146V154.556Z" fill="#C4D9ED"/>
<path d="M129.021 154.556H134.188V161.838H129.021V154.556Z" fill="#C4D9ED"/>
<path d="M119.791 154.556H124.957V161.838H119.791V154.556Z" fill="#C4D9ED"/>
<path d="M110.129 154.556H115.295V161.838H110.129V154.556Z" fill="#C4D9ED"/>
<path d="M91.7295 154.556H96.8955V161.838H91.7295V154.556Z" fill="#C4D9ED"/>
<path d="M82.6015 154.556H87.7676V161.838H82.6015V154.556Z" fill="#C4D9ED"/>
<path d="M309.467 91.0385V75.8926H308.845V91.0385H300.321V109.73H317.874V91.0385H309.467Z" fill="#C4D9ED"/>
<path d="M360.323 79.1486V67.5274H355.386V62.4702H354.763V67.5274H336.757H336.429H333.023V62.4702H332.402V67.5274H328.031V118.312H336.757V96.4307H360.323V84.8095H336.757V79.1486H360.323Z" fill="#C4D9ED"/>
<path d="M43.7146 127.817H44.9316V143.402H43.7146V127.817Z" fill="#D5E7F7"/>
<path d="M324.145 242.524L205.827 242.524V173.314H324.145V242.524Z" fill="#C4D9ED"/>
<path d="M216.778 190.04H210.47V180.407H216.778V190.04Z" fill="#D5E7F7"/>
<path d="M227.9 190.04H221.592V180.407H227.9V190.04Z" fill="#D5E7F7"/>
<path d="M239.101 190.04H232.793V180.407H239.101V190.04Z" fill="#D5E7F7"/>
<path d="M250.224 190.04H243.916V180.407H250.224V190.04Z" fill="#D5E7F7"/>
<path d="M261.68 190.04H255.372V180.407H261.68V190.04Z" fill="#D5E7F7"/>
<path d="M272.805 190.04H266.497V180.407H272.805V190.04Z" fill="#D5E7F7"/>
<path d="M284.001 190.04H277.693V180.407H284.001V190.04Z" fill="#D5E7F7"/>
<path d="M295.126 190.04H288.818V180.407H295.126V190.04Z" fill="#D5E7F7"/>
<path d="M306.792 190.04H300.484V180.407H306.792V190.04Z" fill="#D5E7F7"/>
<path d="M317.917 190.04H311.609V180.407H317.917V190.04Z" fill="#D5E7F7"/>
<path d="M216.778 204.284H210.47V194.651H216.778V204.284Z" fill="#D5E7F7"/>
<path d="M227.9 204.284H221.592V194.651H227.9V204.284Z" fill="#D5E7F7"/>
<path d="M239.101 204.284H232.793V194.651H239.101V204.284Z" fill="#D5E7F7"/>
<path d="M250.224 204.284H243.916V194.651H250.224V204.284Z" fill="#D5E7F7"/>
<path d="M261.68 204.284H255.372V194.651H261.68V204.284Z" fill="#D5E7F7"/>
<path d="M272.805 204.284H266.497V194.651H272.805V204.284Z" fill="#D5E7F7"/>
<path d="M284.001 204.284H277.693V194.651H284.001V204.284Z" fill="#D5E7F7"/>
<path d="M295.126 204.284H288.818V194.651H295.126V204.284Z" fill="#D5E7F7"/>
<path d="M306.792 204.284H300.484V194.651H306.792V204.284Z" fill="#D5E7F7"/>
<path d="M317.917 204.284H311.609V194.651H317.917V204.284Z" fill="#D5E7F7"/>
<path d="M216.778 219.585H210.47V209.953H216.778V219.585Z" fill="#D5E7F7"/>
<path d="M227.9 219.585H221.592V209.953H227.9V219.585Z" fill="#D5E7F7"/>
<path d="M239.101 219.585H232.793V209.953H239.101V219.585Z" fill="#D5E7F7"/>
<path d="M250.224 219.585H243.916V209.953H250.224V219.585Z" fill="#D5E7F7"/>
<path d="M261.68 219.585H255.372V209.953H261.68V219.585Z" fill="#D5E7F7"/>
<path d="M272.805 219.585H266.497V209.953H272.805V219.585Z" fill="#D5E7F7"/>
<path d="M284.001 219.585H277.693V209.953H284.001V219.585Z" fill="#D5E7F7"/>
<path d="M295.126 219.585H288.818V209.953H295.126V219.585Z" fill="#D5E7F7"/>
<path d="M306.792 219.585H300.484V209.953H306.792V219.585Z" fill="#D5E7F7"/>
<path d="M317.917 219.585H311.609V209.953H317.917V219.585Z" fill="#D5E7F7"/>
<path d="M216.778 233.829H210.47V224.197H216.778V233.829Z" fill="#D5E7F7"/>
<path d="M227.9 233.829H221.592V224.197H227.9V233.829Z" fill="#D5E7F7"/>
<path d="M239.101 233.829H232.793V224.197H239.101V233.829Z" fill="#D5E7F7"/>
<path d="M250.224 233.829H243.916V224.197H250.224V233.829Z" fill="#D5E7F7"/>
<path d="M261.68 233.829H255.372V224.197H261.68V233.829Z" fill="#D5E7F7"/>
<path d="M272.805 233.829H266.497V224.197H272.805V233.829Z" fill="#D5E7F7"/>
<path d="M284.001 233.829H277.693V224.197H284.001V233.829Z" fill="#D5E7F7"/>
<path d="M295.126 233.829H288.818V224.197H295.126V233.829Z" fill="#D5E7F7"/>
<path d="M306.792 233.829H300.484V224.197H306.792V233.829Z" fill="#D5E7F7"/>
<path d="M317.917 233.829H311.609V224.197H317.917V233.829Z" fill="#D5E7F7"/>
<path d="M283.385 176.474H308.075V154.948L283.385 164.4V176.474Z" fill="#C4D9ED"/>
<path d="M161.699 242.525H105.198V181.062L161.699 200.621V242.525Z" fill="#C4D9ED"/>
<path d="M160.209 204.554H106.69V202.655H160.209V204.554Z" fill="#D5E7F7"/>
<path d="M160.209 210.66H106.69V208.761H160.209V210.66Z" fill="#D5E7F7"/>
<path d="M160.209 216.765H106.69V214.865H160.209V216.765Z" fill="#D5E7F7"/>
<path d="M160.209 222.869H106.69V220.97H160.209V222.869Z" fill="#D5E7F7"/>
<path d="M160.209 228.974H106.69V227.074H160.209V228.974Z" fill="#D5E7F7"/>
<path d="M160.209 235.08H106.69V233.18H160.209V235.08Z" fill="#D5E7F7"/>
<path d="M312.824 173.313H308.076V154.947H312.824V173.313Z" fill="#C4D9ED"/>
<path d="M293.228 170.47V164.163H302.86V170.47H293.228Z" fill="#D5E7F7"/>
<path d="M113.524 65.5386H110.249V37.7626H113.524V65.5386Z" fill="#C4D9ED"/>
<path d="M120.037 65.5386H116.762V37.7626H120.037V65.5386Z" fill="#C4D9ED"/>
<path d="M126.459 65.5386H123.185V37.7626H126.459V65.5386Z" fill="#C4D9ED"/>
<path d="M133.109 65.5386H129.834V37.7626H133.109V65.5386Z" fill="#C4D9ED"/>
<path d="M46.6615 200.903H315.82V221.919H46.6615V200.903Z" fill="#1C2948"/>
<path d="M76.2635 242.818C66.5968 242.818 58.7604 234.981 58.7604 225.315C58.7604 215.648 66.5968 207.812 76.2635 207.812C85.9302 207.812 93.7666 215.648 93.7666 225.315C93.7666 234.981 85.9302 242.818 76.2635 242.818Z" fill="#2D3A62"/>
<path d="M76.2638 214.47C82.253 214.47 87.1084 219.326 87.1084 225.315C87.1084 231.304 82.253 236.159 76.2638 236.159C70.2747 236.159 65.4193 231.304 65.4193 225.315C65.4193 219.326 70.2747 214.47 76.2638 214.47ZM74.7778 215.658C72.4157 216.019 70.3339 217.226 68.8478 218.959L72.6063 221.281C73.2196 220.725 73.9594 220.309 74.7778 220.077V215.658ZM77.7483 215.658V220.077C78.5666 220.309 79.3065 220.725 79.9198 221.281L83.6783 218.959C82.1922 217.226 80.1104 216.019 77.7483 215.658ZM85.27 229.102C85.76 227.938 86.0323 226.658 86.0323 225.315C86.0323 223.971 85.7537 222.658 85.2508 221.481L81.4939 223.801C81.6333 224.282 81.7085 224.79 81.7085 225.315C81.7085 225.84 81.6381 226.312 81.5084 226.778L85.2716 229.102H85.27ZM77.7483 234.971C80.128 234.608 82.2226 233.386 83.7103 231.632L79.9566 229.313C79.3369 229.887 78.5826 230.316 77.7483 230.553V234.971ZM78.7252 225.315C78.7252 223.955 77.6234 222.852 76.2622 222.852C74.9011 222.852 73.7993 223.954 73.7993 225.315C73.7993 226.676 74.9011 227.778 76.2622 227.778C77.6234 227.778 78.7252 226.676 78.7252 225.315ZM74.7778 234.971V230.553C73.9418 230.316 73.1892 229.887 72.5694 229.313L68.8158 231.632C70.3051 233.386 72.3997 234.609 74.7778 234.971ZM71.0193 226.778C70.8896 226.312 70.8191 225.822 70.8191 225.315C70.8191 224.807 70.8944 224.282 71.0337 223.801L67.2769 221.481C66.7741 222.658 66.4954 223.954 66.4954 225.315C66.4954 226.676 66.766 227.938 67.2577 229.102L71.0209 226.778H71.0193Z" fill="#98BDF4"/>
<path d="M294.051 242.818C284.384 242.818 276.547 234.981 276.547 225.315C276.547 215.648 284.384 207.812 294.051 207.812C303.717 207.812 311.554 215.648 311.554 225.315C311.554 234.981 303.717 242.818 294.051 242.818Z" fill="#2D3A62"/>
<path d="M294.051 214.47C300.04 214.47 304.896 219.326 304.896 225.315C304.896 231.304 300.04 236.159 294.051 236.159C288.062 236.159 283.206 231.304 283.206 225.315C283.206 219.326 288.062 214.47 294.051 214.47ZM292.565 215.658C290.203 216.019 288.121 217.226 286.635 218.959L290.393 221.281C291.007 220.725 291.747 220.309 292.565 220.077V215.658ZM295.535 215.658V220.077C296.354 220.309 297.094 220.725 297.707 221.281L301.465 218.959C299.979 217.226 297.897 216.019 295.535 215.658ZM303.057 229.102C303.547 227.938 303.819 226.658 303.819 225.315C303.819 223.971 303.541 222.658 303.038 221.481L299.281 223.801C299.42 224.282 299.496 224.79 299.496 225.315C299.496 225.84 299.425 226.312 299.295 226.778L303.059 229.102H303.057ZM295.535 234.971C297.915 234.608 300.01 233.386 301.497 231.632L297.744 229.313C297.124 229.887 296.37 230.316 295.535 230.553V234.971ZM296.512 225.315C296.512 223.955 295.411 222.852 294.051 222.852C292.691 222.852 291.59 223.954 291.59 225.315C291.59 226.676 292.691 227.778 294.051 227.778C295.411 227.778 296.512 226.676 296.512 225.315ZM292.565 234.971V230.553C291.729 230.316 290.976 229.887 290.357 229.313L286.603 231.632C288.092 233.386 290.187 234.608 292.565 234.971ZM288.806 226.778C288.677 226.312 288.606 225.822 288.606 225.315C288.606 224.807 288.682 224.282 288.821 223.801L285.064 221.481C284.561 222.658 284.283 223.954 284.283 225.315C284.283 226.676 284.553 227.938 285.045 229.102L288.808 226.778H288.806Z" fill="#98BDF4"/>
<path d="M202.343 114.42H355.436V109.702C355.436 107.576 353.711 105.851 351.584 105.851H210.352C209.095 105.851 207.918 106.464 207.197 107.492L202.343 114.42Z" fill="#A8D29F"/>
<path d="M355.436 111.616V114.42H202.343L204.307 111.616H355.436Z" fill="#82B378"/>
<path d="M42.6374 114.42H364.938C370.402 114.42 374.833 118.85 374.833 124.315V214.4C374.833 216.827 373.1 218.911 370.713 219.353L343.585 224.375H313.449C313.449 213.762 304.845 205.158 294.232 205.158C283.62 205.158 275.016 213.762 275.016 224.375H95.6608C95.6608 213.762 87.0566 205.158 76.4442 205.158C65.8319 205.158 57.2276 213.762 57.2276 224.375H37.6475C34.9396 224.375 32.7441 222.179 32.7441 219.471V124.317C32.7441 118.853 37.1735 114.422 42.639 114.422L42.6374 114.42Z" fill="#A8D29F"/>
<path d="M60.5781 213.528C58.4643 216.615 57.2264 220.348 57.2264 224.372H37.6463C34.9384 224.372 32.7429 222.177 32.7429 219.469C32.7429 216.188 35.4028 213.528 38.684 213.528H60.5781Z" fill="#82B378"/>
<path d="M374.831 213.528V214.397C374.831 216.825 373.098 218.908 370.711 219.35L343.583 224.372H313.447C313.447 220.348 312.209 216.614 310.095 213.528H374.831Z" fill="#82B378"/>
<path d="M278.365 213.528C276.251 216.615 275.014 220.348 275.014 224.372H95.6587C95.6587 220.348 94.4209 216.614 92.307 213.528H278.365Z" fill="#82B378"/>
<path d="M372.517 187.094H376.894V210.261H372.517V187.094Z" fill="#B64C41"/>
<path d="M372.517 180.812H376.894V185.189H372.517V180.812Z" fill="#F1A34F"/>
<path d="M32.7427 185.92H34.999V206.87H32.7427V185.92Z" fill="#B64C41"/>
<path d="M164.47 127.63H257.243C259.011 127.63 260.445 129.064 260.445 130.833V172.798C260.445 174.567 259.011 176.001 257.243 176.001H164.47C162.701 176.001 161.267 174.567 161.267 172.798V130.833C161.267 129.064 162.701 127.63 164.47 127.63Z" fill="#163560"/>
<path d="M68.8022 127.63H102.944C104.713 127.63 106.146 129.064 106.146 130.833V172.798C106.146 174.567 104.713 176.001 102.944 176.001H68.8022C67.0334 176.001 65.5995 174.567 65.5995 172.798V130.833C65.5995 129.064 67.0334 127.63 68.8022 127.63Z" fill="#163560"/>
<path d="M59.2064 127.63H35.9447C34.1768 127.63 32.742 129.065 32.742 130.833V176.001H41.0468C52.8361 176.001 62.4092 166.43 62.4092 154.639V130.831C62.4092 129.063 60.9743 127.628 59.2064 127.628V127.63Z" fill="#163560"/>
<path d="M164.47 127.63H257.243C259.011 127.63 260.445 129.064 260.445 130.833V172.798C260.445 174.567 259.011 176.001 257.243 176.001H164.47C162.701 176.001 161.267 174.567 161.267 172.798V130.833C161.267 129.064 162.701 127.63 164.47 127.63Z" fill="#98BDF4"/>
<path d="M68.8022 127.63H102.944C104.713 127.63 106.146 129.064 106.146 130.833V172.798C106.146 174.567 104.713 176.001 102.944 176.001H68.8022C67.0334 176.001 65.5995 174.567 65.5995 172.798V130.833C65.5995 129.064 67.0334 127.63 68.8022 127.63Z" fill="#98BDF4"/>
<path d="M59.2064 127.63H35.9447C34.1768 127.63 32.742 129.065 32.742 130.833V176.001H41.0468C52.8361 176.001 62.4092 166.43 62.4092 154.639V130.831C62.4092 129.063 60.9743 127.628 59.2064 127.628V127.63Z" fill="#98BDF4"/>
<path d="M270.418 127.63H363.191C364.96 127.63 366.394 129.064 366.394 130.833V172.798C366.394 174.567 364.96 176.001 363.191 176.001H270.418C268.649 176.001 267.215 174.567 267.215 172.798V130.833C267.215 129.064 268.649 127.63 270.418 127.63Z" fill="#163560"/>
<path d="M270.418 127.63H363.191C364.96 127.63 366.394 129.064 366.394 130.833V172.798C366.394 174.567 364.96 176.001 363.191 176.001H270.418C268.649 176.001 267.215 174.567 267.215 172.798V130.833C267.215 129.064 268.649 127.63 270.418 127.63Z" fill="#98BDF4"/>
<path d="M112.026 127.63H154.943C156.712 127.63 158.146 129.063 158.146 130.833V224.373H108.823V130.833C108.823 129.063 110.256 127.63 112.026 127.63Z" fill="#98BDF4"/>
<mask id="mask0_52_1986" style="mask-type:luminance" maskUnits="userSpaceOnUse" x="161" y="127" width="100" height="50">
<path d="M164.471 127.63H257.244C259.012 127.63 260.446 129.064 260.446 130.833V172.799C260.446 174.568 259.012 176.002 257.244 176.002H164.471C162.702 176.002 161.268 174.568 161.268 172.799V130.833C161.268 129.064 162.702 127.63 164.471 127.63Z" fill="white"/>
</mask>
<g mask="url(#mask0_52_1986)">
<path d="M258.31 202.498H272.002L211.713 96.269H198.021L258.31 202.498Z" fill="#D5E7F7"/>
<path d="M235.979 204.93H249.671L189.382 98.7012H175.69L235.979 204.93Z" fill="#D5E7F7"/>
<path d="M195.704 207.093H209.396L149.107 100.863H135.415L195.704 207.093Z" fill="#D5E7F7"/>
<path d="M227.484 206.87H231.094L170.805 100.643H167.194L227.484 206.87Z" fill="#D5E7F7"/>
</g>
<mask id="mask1_52_1986" style="mask-type:luminance" maskUnits="userSpaceOnUse" x="65" y="127" width="42" height="50">
<path d="M68.8032 127.63H102.945C104.714 127.63 106.147 129.064 106.147 130.833V172.798C106.147 174.567 104.714 176.001 102.945 176.001H68.8032C67.0344 176.001 65.6004 174.567 65.6004 172.798V130.833C65.6004 129.064 67.0344 127.63 68.8032 127.63Z" fill="white"/>
</mask>
<g mask="url(#mask1_52_1986)">
<path d="M101.527 197.026H115.217L54.928 90.7983H41.2377L101.527 197.026Z" fill="#D5E7F7"/>
<path d="M93.0311 198.965H96.6406L36.3518 92.7378H32.7423L93.0311 198.965Z" fill="#D5E7F7"/>
</g>
<mask id="mask2_52_1986" style="mask-type:luminance" maskUnits="userSpaceOnUse" x="32" y="127" width="31" height="50">
<path d="M59.2074 127.631H35.9457C34.1778 127.631 32.7429 129.065 32.7429 130.833V176.002H41.0477C52.8371 176.002 62.4102 166.43 62.4102 154.639V130.832C62.4102 129.064 60.9753 127.629 59.2074 127.629V127.631Z" fill="white"/>
</mask>
<g mask="url(#mask2_52_1986)">
<path d="M68.782 195.087H75.6279L15.3391 88.8574H8.49318L68.782 195.087Z" fill="#D5E7F7"/>
<path d="M60.2873 197.026H63.8984L3.60959 90.7983H-0.00153351L60.2873 197.026Z" fill="#D5E7F7"/>
</g>
<mask id="mask3_52_1986" style="mask-type:luminance" maskUnits="userSpaceOnUse" x="267" y="127" width="100" height="50">
<path d="M270.416 127.63H363.189C364.958 127.63 366.392 129.064 366.392 130.833V172.799C366.392 174.568 364.958 176.002 363.189 176.002H270.416C268.647 176.002 267.213 174.568 267.213 172.799V130.833C267.213 129.064 268.647 127.63 270.416 127.63Z" fill="white"/>
</mask>
<g mask="url(#mask3_52_1986)">
<path d="M365.762 201.377H379.454L319.165 95.1479H305.473L365.762 201.377Z" fill="#D5E7F7"/>
<path d="M318.522 201.377H332.214L271.925 95.1479H258.233L318.522 201.377Z" fill="#D5E7F7"/>
<path d="M357.914 201.377H361.519L301.23 95.1479H297.625L357.914 201.377Z" fill="#D5E7F7"/>
</g>
<mask id="mask4_52_1986" style="mask-type:luminance" maskUnits="userSpaceOnUse" x="108" y="127" width="51" height="98">
<path d="M112.025 127.63H154.942C156.711 127.63 158.145 129.064 158.145 130.833V224.373H108.822V130.833C108.822 129.064 110.255 127.63 112.025 127.63Z" fill="white"/>
</mask>
<g mask="url(#mask4_52_1986)">
<path d="M175.66 227.358H189.351L129.062 121.13H115.372L175.66 227.358Z" fill="#D5E7F7"/>
<path d="M167.165 229.298H170.774L110.486 123.069H106.876L167.165 229.298Z" fill="#D5E7F7"/>
<path d="M142.917 225.418H149.763L89.4739 119.189H82.6279L142.917 225.418Z" fill="#D5E7F7"/>
</g>
<path d="M132.203 127.63H134.846V224.373H132.203V127.63Z" fill="#163560"/>
<path d="M270.417 176.802H363.19C365.398 176.802 367.193 175.007 367.193 172.798V130.833C367.193 128.624 365.398 126.829 363.19 126.829H270.417C268.209 126.829 266.414 128.624 266.414 130.833V172.798C266.414 175.007 268.209 176.802 270.417 176.802ZM363.19 128.43C364.514 128.43 365.592 129.508 365.592 130.833V172.798C365.592 174.123 364.514 175.2 363.19 175.2H270.417C269.093 175.2 268.015 174.123 268.015 172.798V130.833C268.015 129.508 269.093 128.43 270.417 128.43H363.19Z" fill="#163560"/>
<path d="M164.47 176.802H257.243C259.451 176.802 261.246 175.007 261.246 172.798V130.833C261.246 128.624 259.451 126.829 257.243 126.829H164.47C162.261 126.829 160.466 128.624 160.466 130.833V172.798C160.466 175.007 162.261 176.802 164.47 176.802ZM257.243 128.43C258.567 128.43 259.645 129.508 259.645 130.833V172.798C259.645 174.123 258.567 175.2 257.243 175.2H164.47C163.145 175.2 162.068 174.123 162.068 172.798V130.833C162.068 129.508 163.145 128.43 164.47 128.43H257.243Z" fill="#163560"/>
<path d="M108.02 225.173H158.944V130.833C158.944 128.624 157.149 126.829 154.941 126.829H112.024C109.816 126.829 108.02 128.624 108.02 130.833V225.173ZM157.343 223.572H109.622V130.833C109.622 129.508 110.699 128.43 112.024 128.43H154.941C156.265 128.43 157.343 129.508 157.343 130.833V223.572Z" fill="#163560"/>
<path d="M68.8004 176.802H102.942C105.15 176.802 106.945 175.007 106.945 172.798V130.833C106.945 128.624 105.15 126.829 102.942 126.829H68.8004C66.5921 126.829 64.7969 128.624 64.7969 130.833V172.798C64.7969 175.007 66.5921 176.802 68.8004 176.802ZM102.942 128.43C104.266 128.43 105.344 129.508 105.344 130.833V172.798C105.344 174.123 104.266 175.2 102.942 175.2H68.8004C67.476 175.2 66.3983 174.123 66.3983 172.798V130.833C66.3983 129.508 67.476 128.43 68.8004 128.43H102.942Z" fill="#163560"/>
<path d="M33.6612 176.802H41.0468C53.267 176.802 63.21 166.861 63.21 154.639V130.831C63.21 128.623 61.4148 126.828 59.2065 126.828H35.9448C33.7365 126.828 31.9414 128.623 31.9414 130.831V175.081C31.9414 176.029 32.7132 176.8 33.6612 176.8V176.802ZM59.2065 128.431C60.5308 128.431 61.6086 129.508 61.6086 130.833V154.64C61.6086 165.978 52.3846 175.202 41.0468 175.202H33.6612C33.5956 175.202 33.5427 175.149 33.5427 175.084V130.834C33.5427 129.51 34.6205 128.432 35.9448 128.432H59.2065V128.431Z" fill="#163560"/>
<path d="M103.297 224.373H163.749V227.236H103.297V224.373Z" fill="#A8D29F"/>
<path d="M100.656 227.236H166.393V230.099H100.656V227.236Z" fill="#82B378"/>
<path d="M25.1223 157.843C27.0088 157.843 28.5381 156.314 28.5381 154.427V126.456C28.5381 124.569 27.0088 123.04 25.1223 123.04C23.2359 123.04 21.7066 124.569 21.7066 126.456V154.427C21.7066 156.314 23.2359 157.843 25.1223 157.843Z" fill="#A8D29F"/>
<path d="M26.5773 125.268H58.7123C59.9437 125.268 60.9414 124.27 60.9414 123.039C60.9414 121.807 59.9437 120.81 58.7123 120.81H26.5773C25.3459 120.81 24.3482 121.807 24.3482 123.039C24.3482 124.27 25.3459 125.268 26.5773 125.268Z" fill="#82B378"/>
<path d="M173.817 173.214C173.65 172.703 173.525 172.331 173.463 172.147C173.434 172.062 173.418 172.018 173.418 172.018C173.418 172.018 173.367 172.066 173.284 172.17C172.769 172.815 171.002 175.589 172.329 182.009C172.524 182.953 172.787 183.977 173.13 185.085C173.13 185.085 168.236 184.222 166.856 183.301C166.798 183.157 166.079 181.027 165.531 180.739C164.984 180.45 163.976 180.135 163.747 180.249C163.517 180.364 163.086 181.975 163.747 182.811C164.409 183.645 166.108 184.452 166.108 184.452C166.108 184.452 171.576 188.827 175.377 188.712C178.552 188.616 175.053 177.023 173.817 173.215V173.214Z" fill="#D9935C"/>
<path d="M197.237 201.569C197.048 201.046 196.966 200.274 196.966 200.274C194.204 201.483 191.181 200.964 191.181 200.964C190.921 202.029 191.149 203.512 191.149 203.512C194.257 204.346 197.703 202.519 197.703 202.519C197.703 202.519 197.376 201.959 197.236 201.569H197.237Z" fill="white"/>
<path d="M192.992 193.316C192.867 193.619 192.326 193.888 191.547 194.08C191.474 194.097 191.4 194.115 191.325 194.133C189.558 194.517 186.764 194.539 184.703 193.776C182.399 192.922 180.727 180.742 180.016 174.498C180.005 174.402 179.993 174.309 179.985 174.216C179.756 172.195 179.636 170.865 179.636 170.865C179.636 170.865 180.961 168.792 186.083 169.483C191.206 170.174 191.723 171.901 192.185 175.009C192.646 178.117 193.394 192.336 192.992 193.314V193.316Z" fill="#466AA5"/>
<path d="M191.324 194.134C189.558 194.518 186.763 194.541 184.703 193.777C182.398 192.923 180.726 180.743 180.015 174.5C180.004 174.404 179.993 174.311 179.985 174.218C180.507 172.408 180.902 171.252 180.902 171.252C180.902 171.252 187.335 170.475 188.587 172.418C189.681 174.115 191.007 190.127 191.324 194.136V194.134Z" fill="#2B478B"/>
<path d="M194.251 200.16C193.871 199.92 193.505 199.191 193.37 198.901C192.201 195.995 190.851 190.343 190.406 189.302C190.244 188.925 189.934 187.139 189.525 184.839C188.793 180.714 187.754 174.93 186.712 172.638C186.587 172.365 186.228 172.129 185.759 171.934C184.513 171.413 182.49 171.159 182.016 171.104C181.512 170.701 180.817 168.966 180.826 166.324L180.601 166.369L176.805 167.12C176.805 167.12 176.892 168.315 176.895 169.439C176.898 170.377 176.841 171.266 176.629 171.377C176.355 171.401 176.195 171.418 176.195 171.418C176.195 171.418 173.031 175.812 172.765 179.901C172.499 183.987 175.3 185.763 172.744 193.932C170.136 202.274 187.863 197.013 186.891 194.83C185.129 190.878 184.285 189.76 184.257 188.518C184.236 187.643 184.617 186.708 185.362 184.686C185.427 184.929 185.493 185.171 185.557 185.408C185.98 186.976 186.342 188.375 186.489 189.075C186.942 191.223 191.918 199.479 191.918 199.479C191.918 199.479 192.068 199.58 192.244 200.083C192.42 200.586 193.828 203.25 194.43 203.25C195.032 203.25 195.159 202.346 195.285 201.768C195.412 201.19 194.733 200.461 194.254 200.16H194.251Z" fill="#D9935C"/>
<path d="M185.756 155.749C184.914 155.233 183.57 155.85 183.57 155.85C184.035 155.196 185.732 155.409 185.732 155.409C182.344 154.689 181.644 156.86 181.589 157.052C179.138 154.841 175.214 159.555 175.214 159.555L180.846 167.019C180.846 167.019 181.36 165.831 182.039 166.202C183.098 166.781 185.144 164.441 184.489 161.365C184.419 161.032 184.334 160.729 184.24 160.449C184.459 160.545 184.709 160.623 184.943 160.623C185.557 160.623 186.488 159.052 186.614 158.524C186.739 157.995 186.602 156.261 185.759 155.747L185.756 155.749Z" fill="#233862"/>
<path d="M176.803 167.12C176.803 167.12 176.89 168.315 176.893 169.439C179.016 169.38 180.139 167.442 180.599 166.368L176.803 167.119V167.12Z" fill="#CB7D45"/>
<path d="M180.99 165.956C180.99 165.956 182.103 164.198 182.371 162.694C182.561 161.621 182.015 157.642 178.017 158.214C178.017 158.214 176.856 158.329 175.763 159.066C174.896 159.652 173.642 160.918 175.043 164.39L175.406 165.562L180.99 165.955V165.956Z" fill="#233862"/>
<path d="M176.094 168.185C176.094 168.185 181.119 168.269 181.122 165.138C181.125 162.007 181.777 159.911 178.568 159.725C175.36 159.54 174.736 160.734 174.48 161.778C174.225 162.822 174.786 168.083 176.094 168.185Z" fill="#D9935C"/>
<path d="M182.436 232.751C181.172 237.78 179.268 241.636 179.268 241.636L177.611 241.521C177.611 241.521 178.423 237.655 178.376 232.431C178.344 228.78 177.891 224.464 176.448 220.344C171.49 206.183 172.291 195.878 172.291 195.878L181.614 196.968L182.048 197.02C182.087 201.302 182.197 207.115 182.295 211.661C182.38 215.749 182.455 218.813 182.455 218.813C184.247 222.674 183.597 228.123 182.433 232.751H182.436Z" fill="#AA413E"/>
<path d="M185.654 183.873C184.712 186.473 184.227 187.535 184.251 188.518C181.25 183.871 175.828 183.17 175.828 183.17L186.123 181.993C186.029 182.63 185.876 183.259 185.654 183.873Z" fill="#CB7D45"/>
<path d="M187.785 231.948C187.249 237.669 184.888 241.368 184.888 241.368L184.097 241.945C184.097 241.945 183.348 237.914 182.818 233.118C182.313 228.561 181.62 223.737 180.837 222.264C177.727 216.425 176.792 194.382 176.792 194.382L186.245 193.913C187.196 195.511 187.609 198.133 187.708 201.113C187.957 208.636 186.189 218.445 185.924 219.863C185.924 219.863 185.924 219.865 185.924 219.867C185.904 219.976 185.936 220.084 185.987 220.184C187.867 223.907 188.139 228.167 187.787 231.946L187.785 231.948Z" fill="#B64C41"/>
<path d="M179.767 163.865C181.878 164.408 182.794 163.842 182.794 163.842C182.794 163.842 182.637 161.697 180.839 160.31C178.23 158.298 176.433 159.423 176.323 159.588C175.994 159.304 175.407 159.098 174.63 160.039C173.466 161.452 174.502 163.947 174.502 163.947C174.981 164.003 175.093 162.361 175.343 161.564C175.527 160.976 176.132 160.379 176.438 160.103C176.537 160.465 177.548 163.98 180.073 165.148C180.073 165.148 178.911 164.116 178.055 162.683C178.545 163.239 179.12 163.697 179.766 163.863L179.767 163.865Z" fill="#233862"/>
<path d="M188.071 197.684C188.087 198.003 188.071 198.258 188.011 198.44C187.81 199.073 187.119 199.361 185.449 199.188C184.429 199.082 183.973 197.372 183.771 195.912C183.158 198 182.299 199.172 181.189 199.417C179.57 199.777 171.403 200.77 170.869 196.888C170.281 192.619 172.041 185.057 172.138 180.982C171.898 179.536 171.817 178.282 171.842 177.204C171.911 174.301 172.763 172.672 173.418 172.017C173.604 171.875 173.789 171.787 174.534 171.659C174.915 171.595 175.442 171.519 176.19 171.42C176.19 171.42 176.496 171.386 176.488 171.398C176.35 171.644 174.5 174.445 174.645 175.166C174.795 175.92 181.356 175.241 181.808 174.826C182.261 174.411 182.977 171.236 182.977 171.236C182.977 171.236 185.299 171.49 186.436 172.317C186.436 172.317 186.431 172.322 186.423 172.331C186.561 172.429 186.663 172.535 186.722 172.645C187.934 174.953 189.145 180.778 189.997 184.934C187.933 186.071 186.13 185.733 185.571 185.583C186.303 190.368 187.96 195.506 188.069 197.686L188.071 197.684Z" fill="#F1A34F"/>
<path d="M176.192 171.42C176.192 171.42 176.189 171.426 176.181 171.438C175.959 171.79 172.474 177.359 172.139 180.982C171.899 179.536 171.817 178.282 171.843 177.204C172.291 175.835 173.379 172.796 174.535 171.659C174.681 171.514 176.191 171.42 176.191 171.42H176.192Z" fill="#466AA5"/>
<path d="M167.899 183.629L166.437 179.236C166.412 179.159 166.328 179.118 166.253 179.143L163.949 179.91C163.872 179.936 163.832 180.018 163.856 180.095L165.318 184.487C165.343 184.564 165.427 184.606 165.502 184.58L167.806 183.813C167.883 183.787 167.923 183.706 167.899 183.629Z" fill="#F1A34F"/>
<path d="M167.372 183.685L165.981 179.505C165.936 179.369 165.789 179.297 165.654 179.342L163.564 180.039C163.428 180.083 163.356 180.231 163.401 180.365L164.793 184.545C164.837 184.681 164.985 184.753 165.119 184.708L167.209 184.012C167.345 183.967 167.417 183.819 167.372 183.685Z" fill="#D86713"/>
<path d="M187.785 231.947C187.249 237.669 184.888 241.368 184.888 241.368L184.083 242.102C184.083 242.102 183.348 237.913 182.818 233.116C183.377 233.156 185.839 233.246 187.785 231.946V231.947Z" fill="#D9935C"/>
<path d="M182.435 232.751C181.171 237.78 179.267 241.636 179.267 241.636L177.61 241.521C177.61 241.521 178.422 237.655 178.375 232.431C178.937 232.715 180.098 233.001 182.433 232.75L182.435 232.751Z" fill="#D9935C"/>
<path d="M180.221 243.024H179.163C178.809 242.968 178.546 242.866 178.183 242.818C177.63 242.746 177.377 242.971 177.326 243.024C177.319 243.031 177.316 243.036 177.316 243.036H172.823C172.709 242.874 172.818 242.501 172.925 242.225C172.997 242.038 173.153 241.897 173.346 241.841C173.824 241.703 174.762 241.58 175.622 240.802C176.106 240.364 177.96 239.194 177.96 239.194H177.97C178.01 239.194 178.203 239.251 179.047 239.964C179.483 240.331 180.226 239.445 180.226 239.445C180.226 239.445 180.365 239.561 180.469 239.775C180.553 239.945 180.614 240.177 180.565 240.465C180.498 240.87 180.714 241.623 180.887 242.132C180.991 242.441 181.08 242.659 181.08 242.659C181.08 242.659 181.131 242.914 180.22 243.028L180.221 243.024Z" fill="#233862"/>
<path d="M180.469 239.773C180.216 239.951 179.683 240.302 179.331 240.348C178.853 240.411 177.961 239.192 177.961 239.192H177.971C178.011 239.192 178.205 239.25 179.049 239.962C179.484 240.329 180.227 239.443 180.227 239.443C180.227 239.443 180.367 239.559 180.471 239.773H180.469Z" fill="#466AA5"/>
<path d="M180.221 243.024H179.163C178.809 242.968 178.546 242.865 178.183 242.817C177.63 242.745 177.377 242.971 177.326 243.024C177.319 243.03 177.316 243.035 177.316 243.035H172.823C172.709 242.873 172.818 242.5 172.925 242.225C173.061 242.103 173.1 242.752 173.175 242.856C173.25 242.958 176.841 242.894 177.049 242.742C177.255 242.592 177.878 242.327 178.745 242.536C179.499 242.716 180.612 242.254 180.887 242.13C180.991 242.439 181.08 242.657 181.08 242.657C181.08 242.657 181.131 242.912 180.22 243.026L180.221 243.024Z" fill="#466AA5"/>
<path d="M185.87 243.024H184.811C184.457 242.968 184.195 242.865 183.831 242.817C183.279 242.745 183.026 242.971 182.974 243.024C182.968 243.03 182.965 243.035 182.965 243.035H178.471C178.358 242.873 178.466 242.5 178.574 242.225C178.646 242.037 178.801 241.896 178.995 241.84C179.472 241.703 180.411 241.579 181.27 240.801C181.754 240.364 183.609 239.193 183.609 239.193H183.618C183.658 239.193 183.852 239.251 184.696 239.964C185.131 240.33 185.874 239.445 185.874 239.445C185.874 239.445 186.014 239.56 186.118 239.775C186.201 239.944 186.262 240.177 186.214 240.465C186.147 240.87 186.363 241.623 186.536 242.132C186.64 242.441 186.728 242.659 186.728 242.659C186.728 242.659 186.779 242.913 185.868 243.027L185.87 243.024Z" fill="#233862"/>
<path d="M186.117 239.773C185.864 239.951 185.331 240.302 184.979 240.348C184.501 240.411 183.608 239.192 183.608 239.192H183.617C183.657 239.192 183.851 239.25 184.695 239.962C185.131 240.329 185.874 239.443 185.874 239.443C185.874 239.443 186.013 239.559 186.117 239.773Z" fill="#466AA5"/>
<path d="M185.87 243.024H184.811C184.457 242.968 184.195 242.865 183.831 242.817C183.279 242.745 183.026 242.971 182.974 243.024C182.968 243.03 182.965 243.035 182.965 243.035H178.471C178.358 242.873 178.466 242.5 178.574 242.225C178.71 242.103 178.748 242.752 178.824 242.856C178.899 242.958 182.489 242.894 182.697 242.742C182.905 242.592 183.527 242.327 184.393 242.536C185.147 242.716 186.26 242.254 186.536 242.13C186.64 242.439 186.728 242.657 186.728 242.657C186.728 242.657 186.779 242.912 185.868 243.026L185.87 243.024Z" fill="#466AA5"/>
<path opacity="0.4" d="M188.07 197.684C186.949 197.309 185.51 196.313 183.78 194.079C179.203 188.164 183.391 181.214 183.953 181.084C184.514 180.955 185.571 185.581 185.571 185.581C186.302 190.366 187.96 195.505 188.069 197.684H188.07Z" fill="#D86713"/>
<path d="M185.507 170.808C185.507 170.808 180.901 173.945 180.557 180.594C180.211 187.243 186.199 188.596 186.199 188.596L185.81 186.495C185.81 186.495 180.959 184.74 182.226 179.443C183.493 174.147 187.291 171.268 187.291 171.268L185.507 170.807V170.808Z" fill="#466AA5"/>
<path d="M163.617 180.98C163.617 180.98 164.05 180.088 164.841 180.447C165.632 180.807 165.288 182.159 164.826 182.634C164.365 183.11 164.237 183.325 164.237 183.325L163.619 180.979L163.617 180.98Z" fill="#D9935C"/>
<path d="M325.786 190.234C325.786 190.234 325.024 191.104 325.469 191.645C325.914 192.186 326.707 192.652 327.455 192.135C328.203 191.616 328.404 189.688 327.974 189.688C327.543 189.688 325.786 190.234 325.786 190.234Z" fill="#CB8757"/>
<path d="M327.254 182.032C327.254 182.032 325.067 189.171 325.528 190.207C325.989 191.243 327.478 191.054 328.316 189.824C329.154 188.594 327.254 182.032 327.254 182.032Z" fill="#AA413E"/>
<path d="M332.966 166.102C332.966 166.102 329.593 166.712 328.343 167.962C327.092 169.213 324.141 172.903 325.998 185.204C325.998 185.204 326.147 188.912 330.315 189.269C334.484 189.626 332.966 166.102 332.966 166.102Z" fill="#B64C41"/>
<path d="M331.095 165.783C331.159 165.139 331.135 164.572 331.104 164.209C331.082 163.943 331.055 163.787 331.055 163.787L331.104 163.771L335.154 162.537L335.255 162.506C335.314 163.824 335.391 164.801 335.473 165.527C335.564 166.35 335.662 166.848 335.745 167.149H330.819C330.968 166.684 331.051 166.217 331.095 165.783Z" fill="#D9935C"/>
<path d="M329.521 157.342C329.521 157.342 329.986 150.707 338.601 153.22C340.556 153.79 340.302 159.693 335.568 161.94L329.521 157.342Z" fill="#2B478B"/>
<path d="M340.716 196.694C340.136 200.731 336.245 211.223 336.358 214.849C336.448 217.707 336.402 224.308 336.024 228.695C335.92 229.888 335.798 230.911 335.641 231.655C335.306 233.273 334.877 235.135 334.647 236.309C334.132 238.945 334.402 240.482 333.982 241.898C333.519 243.445 328.215 243.161 329.814 242.223C330.384 241.888 331.215 241.176 331.625 240.257C333.116 236.918 331.026 222.521 330.403 216.971C330.323 216.277 330.267 215.727 330.243 215.349C330.035 211.92 327.682 189.081 327.682 189.081C333.397 185.902 341.292 192.657 340.717 196.694H340.716Z" fill="#D9935C"/>
<path d="M340.715 196.694C340.136 200.731 336.244 211.224 336.358 214.849C336.448 217.708 336.401 224.308 336.023 228.695L330.403 216.971C330.322 216.278 330.266 215.727 330.242 215.349C330.034 211.92 327.623 189.072 327.623 189.072C333.338 185.893 341.292 192.656 340.715 196.693V196.694Z" fill="#CB8757"/>
<path d="M328.316 189.823C328.316 189.823 333.225 212.386 333.784 215.775C334.341 219.162 338.812 235.113 337.837 239.11C337.262 241.467 336.259 242.166 336.259 242.166C336.024 242.598 339.906 243.456 340.22 241.802C340.618 239.701 340.702 236.753 341.284 231.755C342.289 223.149 340.296 218.251 339.814 214.654C339.332 211.057 341.435 199.623 340.268 195.716C338.224 188.878 333.673 186.074 328.316 189.823Z" fill="#D9935C"/>
<path d="M341.416 210.557C341.416 210.557 340.138 210.756 338.257 210.887L337.233 206.784L336.875 210.962C333.851 211.085 329.905 210.933 326.996 209.731L327.624 189.071C327.624 189.071 331.838 190.183 336.907 188.235C336.907 188.235 343.5 193.382 341.416 210.555V210.557Z" fill="#B64C41"/>
<path d="M342.12 238.722C341.886 240.047 341.84 242.43 341.832 243.035H341.415L341.377 239.893C341.347 239.932 341.319 239.964 341.294 239.992C340.922 240.407 340.434 242.425 340.072 243.033H335.468C335.421 242.901 335.455 242.771 335.532 242.651C335.743 242.319 336.265 242.063 336.265 242.063C336.265 242.063 337.739 242.29 339.204 241.922C339.819 241.768 340.858 236.308 340.858 236.308C340.858 236.308 342.307 237.19 342.468 237.592C342.546 237.786 342.368 238.245 342.12 238.719V238.722Z" fill="#AA413E"/>
<path d="M335.773 238.977C335.606 240.118 335.55 241.802 335.531 242.651C335.528 242.813 335.526 242.942 335.524 243.035H335.108L335.071 240.012C334.701 240.459 334.219 242.435 333.862 243.035H329.258C329.082 242.539 330.056 242.065 330.056 242.065C330.056 242.065 331.529 242.292 332.994 241.924C333.609 241.77 334.649 236.31 334.649 236.31C334.649 236.31 336.098 237.192 336.258 237.594C336.349 237.823 336.088 238.42 335.771 238.977H335.773Z" fill="#AA413E"/>
<path d="M337.261 188.564C337.261 188.564 333.39 191.235 327.543 189.282C327.543 189.282 325.546 182.449 326.176 175.87C326.599 171.457 329.103 167.98 330.964 166.614C331.257 166.874 331.773 167.324 335.59 166.398C335.59 166.398 337.341 167.133 337.653 167.809C338.318 169.253 336.087 185.696 337.261 188.566V188.564Z" fill="#E7F0FD"/>
<path d="M338.882 190.724C337.156 191.078 335.827 189.861 333.785 189.277C333.106 189.083 332.507 188.843 332.054 188.564C330.228 187.441 329.343 179.132 329.658 175.987C329.969 172.846 335.59 166.396 335.59 166.396C336.887 167.358 337.129 169.597 337.907 172.534C339.779 179.603 338.884 190.723 338.884 190.723L338.882 190.724Z" fill="#B64C41"/>
<path d="M338.882 190.725C337.156 191.079 335.255 190.436 333.785 189.277C333.035 188.21 332.437 186.91 332.116 185.32C331.187 180.737 334.851 175.761 337.907 172.536C339.779 179.605 338.884 190.725 338.884 190.725H338.882Z" fill="#AA413E"/>
<path d="M335.154 162.537C334.693 163.31 333.234 165.45 331.095 165.783C331.159 165.139 331.135 164.572 331.104 164.208C331.082 163.943 331.055 163.787 331.055 163.787L331.104 163.771L335.154 162.537Z" fill="#CB7D45"/>
<path d="M329.958 164.071C329.958 164.071 334.986 165.081 335.566 161.939C336.147 158.799 337.187 156.813 334.001 156.035C330.816 155.257 329.969 156.341 329.519 157.342C329.071 158.343 328.664 163.726 329.958 164.069V164.071Z" fill="#D9935C"/>
<path d="M337.314 156.509C335.633 154.399 333.524 154.677 332.42 155.029C332.199 154.993 331.889 154.967 331.463 154.957C328.18 154.881 329.088 158.673 329.088 158.673C329.206 156.28 331.278 156.027 331.278 156.027C331.278 156.027 331.304 156.019 331.35 156.006C331.168 156.672 331.232 157.741 332.84 158.749C335.434 160.378 335.234 163.635 334.545 164.551C334.545 164.551 339.708 159.513 337.317 156.511L337.314 156.509Z" fill="#2B478B"/>
<path d="M327.786 194.465C327.378 192.734 326.915 191.831 326.372 191.706C326.219 191.671 326.062 191.706 325.919 191.807C325.498 192.108 325.142 193.029 324.83 194.625C324.606 195.772 324.492 196.853 324.492 196.864L324.837 196.899C324.837 196.888 324.949 195.823 325.17 194.691C325.549 192.744 325.929 192.223 326.119 192.087C326.201 192.03 326.259 192.033 326.294 192.042C327.026 192.212 327.66 195.149 327.889 196.962L328.231 196.919C328.231 196.906 328.076 195.694 327.786 194.465Z" fill="#233862"/>
<path d="M331.811 203.195L331.06 198.208C330.9 197.149 329.99 196.366 328.92 196.366H323.594C323.114 196.366 322.723 196.755 322.723 197.237V203.324C322.723 203.805 323.112 204.195 323.594 204.195H330.951C331.484 204.195 331.891 203.721 331.813 203.195H331.811Z" fill="#233862"/>
<path d="M328.182 196.366H323.494C323.047 196.366 322.661 196.683 322.576 197.122L321.415 203.08C321.303 203.657 321.745 204.193 322.333 204.193H327.35C327.816 204.193 328.211 203.849 328.275 203.388L329.108 197.429C329.187 196.867 328.749 196.364 328.182 196.364V196.366Z" fill="#2B478B"/>
<path d="M328.218 191.166C328.218 191.166 326.044 191.736 325.917 192.184C325.791 192.634 326.535 193.912 327.765 193.615C328.995 193.317 329.977 191.851 329.977 191.851L328.218 191.166Z" fill="#DA935B"/>
<path d="M335.59 166.396C335.59 166.396 338.794 166.813 340.327 169.996C341.859 173.18 339.007 184.548 338.596 185.313C338.183 186.08 333.394 192.209 329.327 192.739C329.327 192.739 327.599 192.129 327.657 191.126C327.657 191.126 334.323 184.529 334.796 183.585C335.268 182.642 334.608 172.294 334.667 170.938C334.727 169.581 335.59 166.395 335.59 166.395V166.396Z" fill="#B64C41"/>
<path d="M263.832 196.666C263.768 195.004 261.523 194.184 261.523 194.184C260.429 193.522 260.494 185.768 260.092 181.201C259.994 180.087 259.88 179.172 259.755 178.605C259.115 175.72 258.919 165.511 256.996 163.906C255.073 162.303 250.603 161.626 250.603 161.626C250.603 161.626 252.041 169.329 253.612 177.376C255.318 186.122 259.47 194.482 259.829 194.808C259.829 194.808 259.832 194.81 259.832 194.811C260.202 195.603 261.189 196.701 261.717 197.053C262.364 197.486 262.02 198.349 262.796 198.435C263.828 198.549 263.866 197.532 263.832 196.666Z" fill="#D9935C"/>
<path d="M250.665 160.694L250.662 161.326C250.662 161.326 250.833 163.303 248.401 163.591C245.968 163.881 244.125 162.821 244.191 161.296C244.41 160.116 244.65 159.306 244.666 158.329C244.673 157.965 244.647 157.581 244.58 157.145L249.294 157.051L250.683 157.278L250.665 160.696V160.694Z" fill="#D9935C"/>
<path d="M250.683 157.277L250.665 160.694C250.164 160.926 249.598 161.069 248.966 161.069C246.799 161.069 245.398 159.48 244.666 158.327C244.673 157.964 244.647 157.579 244.58 157.144L249.294 157.049L250.683 157.277Z" fill="#CB7D45"/>
<path d="M250.958 158.937C250.958 158.937 244.92 160.158 244.218 156.385C243.517 152.614 242.265 150.231 246.09 149.292C249.916 148.354 250.934 149.654 251.476 150.855C252.015 152.058 252.512 158.523 250.958 158.937Z" fill="#D9935C"/>
<path d="M250.601 161.628C250.601 161.628 251.431 166.067 252.516 171.726C252.861 173.521 253.231 175.44 253.61 177.377C255.147 180.391 256.467 182.441 256.875 182.055C257.706 181.27 259.167 181.172 260.091 181.201C259.993 180.087 259.879 179.172 259.755 178.605C259.703 178.378 259.657 178.104 259.61 177.792C259.072 174.16 258.768 165.383 256.995 163.906C255.072 162.303 250.603 161.626 250.603 161.626L250.601 161.628Z" fill="#739AF0"/>
<path d="M256.875 182.055C257.706 181.27 259.167 181.172 260.091 181.201C259.993 180.087 259.879 179.172 259.755 178.605C259.703 178.378 259.657 178.104 259.61 177.792L255 166.662C255 166.662 256.468 182.439 256.877 182.055H256.875Z" fill="#4A75CB"/>
<path d="M246.53 243.035C246.53 243.035 246.28 241.231 245.758 240.185C245.236 239.139 241.91 239.805 241.91 239.805C241.91 239.805 241.246 240.375 241.103 243.035H246.53Z" fill="#233862"/>
<path d="M257.828 243.035C257.047 242.558 257.5 239.097 257.5 239.097C257.5 239.097 261.142 236.184 261.641 238.415C262.142 240.646 265.1 241.647 266.785 241.919C267.947 242.108 268.023 242.654 268.135 243.035H257.83H257.828Z" fill="#233862"/>
<path d="M250.295 217.255C250.444 218.072 250.537 218.741 250.563 219.221C250.9 225.824 256.119 240.918 257.053 241.271C258.497 241.815 260.771 240.657 261.961 240.278C262.454 240.121 262.788 239.623 262.677 239.118C260.092 227.236 259.143 210.127 258.797 199.998C258.622 194.896 257.746 191.372 257.746 191.372C257.746 191.372 245.017 187.975 244.942 192.272C244.874 196.073 249.158 210.982 250.294 217.253L250.295 217.255Z" fill="#2B478B"/>
<path d="M250.295 217.255L258.799 199.998C258.624 194.896 257.748 191.372 257.748 191.372C257.748 191.372 245.019 187.975 244.944 192.272C244.876 196.073 249.16 210.982 250.295 217.253V217.255Z" fill="#233862"/>
<path d="M253.126 192.287L246.397 241.058C246.397 241.058 243.442 241.77 241.144 241.2C241.144 241.2 239.175 215.263 239.338 208.991C239.501 202.72 237.924 192.212 239.698 191.053C241.473 189.893 253.126 192.287 253.126 192.287Z" fill="#2B478B"/>
<path d="M238.732 191.053C238.71 191.618 239.158 192.089 239.722 192.097L250.326 192.259L258.115 192.377C258.48 192.384 257.327 189.466 257.303 170.44C257.297 166.195 250.725 161.626 250.603 161.626C250.603 162.239 249.639 163.367 248.156 163.464C246.395 163.58 244.233 162.704 244.233 161.688C244.233 161.677 244.028 161.898 243.699 162.377C242.82 163.658 241.049 166.782 239.917 172.221C239.023 176.516 239.368 182.258 238.726 189.666C238.679 190.201 238.748 190.677 238.734 191.051L238.732 191.053Z" fill="#FFA412"/>
<path d="M239.122 192.156C239.122 192.156 240.532 192.787 243.169 193.335C245.129 193.742 247.767 194.102 251.008 194.123C256.163 194.156 258.113 192.379 258.113 192.379C258.478 192.385 257.325 189.467 257.301 170.441C257.295 166.196 250.723 161.627 250.601 161.627C250.601 161.627 250.771 167.282 249.061 168.944C249.061 168.944 246.662 167.091 243.55 161.818C242.671 163.099 241.047 166.784 239.917 172.222C239.688 173.329 239.539 174.531 239.435 175.833C239.135 179.585 239.202 184.167 238.724 189.668C238.677 190.203 238.746 190.678 238.732 191.053C238.709 191.618 238.557 192.148 239.122 192.156Z" fill="#739AF0"/>
<path d="M239.123 192.156C239.123 192.156 240.532 192.787 243.169 193.335C243.999 192.07 245.045 189.788 245.189 186.189C245.434 180.106 239.654 172.27 239.654 172.27L239.433 175.833C239.134 179.585 239.201 184.167 238.722 189.667C238.676 190.202 238.745 190.678 238.73 191.053C238.708 191.618 238.556 192.148 239.121 192.156H239.123Z" fill="#4A75CB"/>
<path d="M254.446 173.87L246.857 169.489C246.232 169.128 245.433 169.341 245.073 169.966L238.576 181.217C238.216 181.842 238.429 182.641 239.055 183.001L246.644 187.383C247.268 187.743 248.067 187.53 248.428 186.905L254.924 175.654C255.285 175.029 255.072 174.23 254.446 173.87Z" fill="#B64C41"/>
<path d="M253.159 179.917C252.986 179.441 251.291 178.825 250.702 178.825C250.113 178.825 248.628 180.216 248.593 180.248C248.166 180.229 243.968 180.027 240.849 179.571C240.029 179.451 239.284 179.313 238.703 179.158C237.987 178.966 241.539 169.967 243.329 164.675C243.757 163.413 244.084 162.361 244.229 161.69C244.229 161.69 243.917 161.741 243.425 161.837C242.031 162.113 239.196 162.76 237.99 163.671C236.359 164.904 232.285 178.817 234.784 184.193C234.784 184.193 236.802 184.39 240.25 184.036C242.721 183.781 245.93 183.243 249.655 182.148C249.748 182.156 249.834 182.156 249.905 182.149C250.423 182.101 252.43 181.627 252.914 181.437C253.397 181.246 253.328 180.391 253.155 179.917H253.159Z" fill="#D9935C"/>
<path d="M234.784 184.193C234.784 184.193 236.802 184.39 240.25 184.036C240.059 183.099 239.883 181.269 240.849 179.571C240.029 179.451 239.284 179.313 238.703 179.158C237.987 178.966 241.539 169.968 243.329 164.675C243.472 162.965 243.549 161.82 243.549 161.82L243.426 161.839C242.031 162.114 239.196 162.761 237.99 163.673C236.359 164.906 232.285 178.818 234.784 184.194V184.193Z" fill="#739AF0"/>
<path d="M249.062 168.944C249.062 168.944 244.264 166.83 244.192 166.664C244.12 166.497 244.429 165.215 244.762 164.835C244.762 164.835 242.457 165.05 242.315 164.765C242.172 164.48 242.124 162.105 242.124 162.105C242.124 162.105 243.028 161.155 244.214 161.059C244.214 161.059 245.253 163.637 245.639 164.408C246.661 166.451 249.06 168.944 249.06 168.944H249.062Z" fill="#4A75CB"/>
<path d="M250.201 164.763C250.201 164.763 249.892 167.234 249.061 168.944C249.061 168.944 251.567 167.199 251.78 166.629C251.993 166.059 251.175 164.954 251.175 164.954C251.175 164.954 252.67 164.919 252.707 164.419C252.742 163.919 252.244 161.961 252.244 161.961C252.244 161.961 251.021 161.034 250.664 161.069L250.201 164.763Z" fill="#4A75CB"/>
<path d="M252.648 148.053C252.648 148.053 250.965 147.923 248.978 147.06C247.366 146.358 245.332 147.13 244.672 147.478C244.69 147.372 244.733 147.226 244.832 147.081C244.832 147.081 244.536 147.29 244.493 147.585C244.462 147.607 244.448 147.623 244.456 147.628C244.456 147.628 244.12 147.567 243.903 147.663C243.903 147.663 244.054 147.641 244.108 147.739C244.115 147.748 244.123 147.758 244.132 147.766C241.618 148.981 241.386 152.954 242.195 153.874C243.168 154.98 244.336 157.47 244.336 157.47C244.336 157.47 244.762 156.881 244.584 155.909C244.406 154.935 245.247 154.935 246.31 154.493C247.372 154.051 246.488 152.812 247.417 152.059C248.346 151.307 251.753 151.75 251.708 151.174C252.974 150.712 252.645 148.181 252.645 148.051L252.648 148.053Z" fill="#233862"/>
<path d="M246.734 177.598C246.385 177.598 246.101 177.882 246.101 178.231C246.101 178.58 246.385 178.863 246.734 178.863C247.083 178.863 247.366 178.58 247.366 178.231C247.366 177.882 247.083 177.598 246.734 177.598Z" fill="#ED6058"/>
<path d="M272.848 240.731C272.489 241.57 272.878 242.542 273.717 242.9C274.556 243.259 275.528 242.87 275.887 242.031C276.246 241.192 275.857 240.22 275.017 239.861C274.178 239.502 273.206 239.891 272.848 240.731Z" fill="#D86713"/>
<path d="M272.697 240.731C272.339 241.57 272.728 242.542 273.567 242.9C274.406 243.259 275.378 242.87 275.737 242.031C276.095 241.192 275.706 240.22 274.867 239.861C274.028 239.502 273.056 239.891 272.697 240.731Z" fill="#F1A34F"/>
<path d="M259.578 240.731C259.219 241.57 259.609 242.542 260.448 242.901C261.287 243.26 262.259 242.871 262.617 242.031C262.976 241.192 262.587 240.22 261.748 239.862C260.909 239.503 259.937 239.892 259.578 240.731Z" fill="#D86713"/>
<path d="M259.427 240.731C259.068 241.57 259.457 242.542 260.296 242.901C261.135 243.26 262.107 242.871 262.466 242.031C262.825 241.192 262.436 240.22 261.597 239.862C260.757 239.503 259.785 239.892 259.427 240.731Z" fill="#F1A34F"/>
<path d="M276.266 240.518L273.915 241.362C273.678 241.447 273.427 241.49 273.174 241.487L259.836 241.351L258.38 238.936L276.268 240.517L276.266 240.518Z" fill="#D86713"/>
<path d="M267.392 199.382C267.357 199.068 266.907 195.862 263.071 195.758L260.285 195.463C260.103 195.428 258.926 195.229 258.022 195.919C257.412 196.384 257.078 197.128 257.026 198.133C256.959 199.428 258.588 207.808 259.332 211.552L254.344 212.55C254.344 212.55 252.245 213.403 252.661 217.082C253.028 220.318 254.634 238.478 254.634 238.478C254.634 238.478 254.969 242.257 263.041 241.16L261.542 211.11L260.03 211.413C259.058 206.527 257.681 199.266 257.737 198.169C257.777 197.386 258.018 196.823 258.45 196.49C259.145 195.956 260.144 196.163 260.152 196.164L263.009 196.469H263.038C266.409 196.555 266.673 199.343 266.683 199.46V199.479L269.062 212.526L269.764 212.398L267.39 199.382H267.392Z" fill="#D86713"/>
<path d="M257.551 216.105L259.487 236.443C259.566 237.266 259.857 238.022 260.305 238.656C261.135 239.831 262.501 240.593 264.033 240.603L270.71 240.645H270.875L275.056 240.672C275.477 240.675 275.882 240.621 276.266 240.52C276.356 240.496 276.446 240.47 276.534 240.441C277.981 239.961 279.094 238.784 279.508 237.335C279.684 236.718 279.732 236.052 279.626 235.371L276.595 215.913C276.271 213.837 274.582 212.246 272.49 212.046L271.312 211.933L271.03 211.908L270.793 211.885L266.852 211.509L266.368 211.463L262.565 211.099C261.968 211.043 261.391 211.101 260.853 211.256C260.818 211.266 260.783 211.277 260.747 211.288L260.528 211.363C258.651 212.062 257.348 213.954 257.553 216.11L257.551 216.105Z" fill="#F1A34F"/>
<path opacity="0.4" d="M260.305 238.655C261.135 239.831 262.501 240.593 264.033 240.603L270.709 240.644H270.874L275.055 240.672C275.477 240.675 275.882 240.62 276.266 240.519C276.356 240.495 276.445 240.47 276.534 240.441C277.981 239.96 279.65 238.209 279.674 236.349C279.674 236.349 265.551 236.165 262.6 236.62C261.077 236.855 260.622 237.92 260.307 238.657L260.305 238.655Z" fill="#D86713"/>
<path d="M277.815 237.171C277.7 236.351 274.989 217.1 274.569 215.385C274.199 213.881 272.017 212.384 271.31 211.93L271.029 211.905L270.792 211.882C270.82 211.9 273.917 213.786 274.324 215.445C274.742 217.149 277.538 237.006 277.565 237.207C277.567 237.223 277.644 239.141 276.054 240.571L276.265 240.52C276.355 240.496 276.444 240.47 276.533 240.441C278.027 238.957 277.826 237.247 277.815 237.173V237.171Z" fill="#D86713"/>
<path d="M269.123 215.401C268.811 213.344 267.544 212.067 266.849 211.504L266.365 211.458C266.81 211.759 268.511 213.051 268.875 215.437C269.301 218.235 270.963 238.558 270.979 238.763V238.778L270.985 238.79C270.988 238.8 271.225 239.897 270.542 240.643H270.71L270.875 240.646C271.53 239.847 271.27 238.867 271.23 238.73C271.179 238.102 269.547 218.176 269.124 215.401H269.123Z" fill="#D86713"/>
<path d="M263.349 215.287C262.952 212.677 261.219 211.48 260.851 211.253C260.815 211.263 260.78 211.274 260.745 211.285L260.525 211.36C260.538 211.368 261.182 211.732 261.736 212.359C262.29 212.989 262.892 213.958 263.1 215.324C263.526 218.12 264.843 238.376 264.857 238.579V238.595L264.862 238.609C264.865 238.619 264.923 239.858 264.239 240.605L264.66 240.608C265.182 239.927 265.15 238.696 265.107 238.55C265.065 237.903 263.771 218.062 263.349 215.288V215.287Z" fill="#D86713"/>
<path d="M386.508 237.964C386.186 239.046 384.701 239.772 384.501 241.096C384.344 242.124 383.827 242.789 383.265 243.035H379.279C379.185 242.782 379.065 242.153 380.08 241.93C381.366 241.649 381.849 240.09 381.769 238.646C381.736 238.039 381.752 237.349 381.782 236.752C381.822 235.924 381.889 235.273 381.889 235.273L384.62 234.631L384.906 235L385.182 235.354C385.182 235.354 386.828 236.88 386.506 237.964H386.508Z" fill="#233862"/>
<path d="M364.739 243.035H355.362C355.471 242.696 355.803 242.163 356.791 242.004C358.231 241.772 360.725 240.933 361.281 239.093C361.299 239.034 361.315 238.974 361.328 238.912C361.77 236.944 364.98 239.514 364.98 239.514C364.98 239.514 364.99 239.592 365.003 239.725C365.075 240.414 365.251 242.577 364.735 243.035H364.739Z" fill="#233862"/>
<path d="M357.173 190.457C357.173 190.457 357.662 196.544 358.235 203.862C359.015 213.802 359.952 226.013 360.045 228.325C360.205 232.341 360.849 238.766 360.849 238.766C360.849 238.766 362.373 240.292 365.427 239.648C365.427 239.648 368.148 230.477 368.924 220.773C368.936 220.614 368.948 220.454 368.961 220.294C369.683 210.415 370.808 189.613 370.808 189.613L357.175 190.457H357.173Z" fill="#2B478B"/>
<path d="M357.173 190.458C357.173 190.458 357.662 196.544 358.235 203.863L368.922 220.775C368.934 220.616 368.946 220.456 368.959 220.296C369.681 210.417 370.806 189.615 370.806 189.615L357.173 190.459V190.458Z" fill="#233862"/>
<path d="M359.401 191.179C359.401 191.179 368.196 213.226 373.979 223.587C379.761 233.947 381.569 236.838 381.569 236.838C381.569 236.838 384.883 235.512 385.184 234.609C385.184 234.609 382.972 214.608 379.1 209.731C376.912 206.977 374.341 198.707 374.221 195.817C374.1 192.926 373.437 187.203 373.437 187.203L359.403 191.179H359.401Z" fill="#2B478B"/>
<path d="M350.506 185.092L350.003 186.095C350.003 186.095 347.447 186.452 348.15 189.117C348.15 189.117 348.53 190.214 349.234 189.866C349.939 189.519 349.591 189.549 350.602 189.081C351.612 188.615 352.197 187.717 351.971 186.895L352.133 186.023L350.506 185.092Z" fill="#AB7041"/>
<path d="M363.912 157.148C363.521 154.839 363.509 153.472 363.509 153.472L367.97 149.875C367.804 154.82 370.973 157.198 370.973 157.198C370.973 157.198 365.027 160.125 361.59 159.041C361.59 159.041 362.436 157.96 363.912 157.15V157.148Z" fill="#9C5F33"/>
<path d="M362.457 153.39C362.457 153.39 368.134 154.333 368.666 150.789C369.199 147.245 370.289 144.979 366.688 144.228C363.086 143.475 362.177 144.723 361.711 145.862C361.245 147.002 360.992 153.053 362.455 153.39H362.457Z" fill="#AB7041"/>
<path d="M368.63 151.034C368.63 151.034 368.516 146.286 363.344 145.525C359.801 145.003 361.946 142.044 362.351 141.575C362.351 141.575 365.059 142.092 367.831 142.7C373.649 143.977 369.245 150.329 368.63 151.036V151.034Z" fill="#233862"/>
<path d="M351.103 186.485C350.344 185.707 349.781 184.693 349.781 184.693C349.781 184.693 356.231 176.68 356.755 175.849C357.278 175.018 361.195 161.69 361.195 161.69L371.102 159.683C371.102 159.683 362.834 176.741 361.464 178.82C359.202 182.256 352.429 187.371 352.429 187.371C352.429 187.371 351.699 187.097 351.103 186.485Z" fill="#74ACBE"/>
<path d="M356.794 190.963C356.898 191.05 357.018 191.101 357.156 191.101C358.446 191.083 362.209 191.801 365.393 191.472C368.077 191.215 370.453 190.42 373.004 189.275C373.344 189.123 374.124 188.707 374.106 188.329C374.095 187.914 374.053 187.314 374.002 186.555C373.821 183.92 373.507 179.392 373.813 174.165C373.869 173.191 373.898 172.227 373.901 171.276C373.927 164.193 372.537 157.864 369.714 155.757C369.472 155.584 367.979 156.405 366.62 157.076C365.363 157.696 364.107 157.765 362.92 157.525L361.734 158.574C360.288 159.916 358.706 161.74 358.017 164.51C357.431 166.867 357.088 171.119 356.898 175.524C356.811 177.521 356.742 179.534 356.725 181.445V181.513C356.709 181.702 356.709 181.909 356.709 182.1C356.64 187.005 356.709 190.893 356.795 190.962L356.794 190.963Z" fill="#9ED9F0"/>
<path d="M374.001 186.556C373.82 183.922 373.507 179.393 373.812 174.166C373.868 173.193 373.897 172.229 373.9 171.277C372.725 168.425 371.764 166.358 371.764 166.358H368.802C368.802 166.358 366.629 181.198 374.003 186.556H374.001Z" fill="#74ACBE"/>
<path d="M396.981 200.177L394.68 192.774C393.988 190.551 391.605 189.297 389.381 189.987L372.299 195.296C370.076 195.988 368.823 198.371 369.513 200.595L371.814 207.998C372.504 210.221 374.889 211.475 377.113 210.785L394.195 205.476C396.418 204.786 397.671 202.401 396.981 200.177Z" fill="#D86713"/>
<path d="M399.259 199.559L396.932 192.07C396.239 189.839 393.846 188.58 391.614 189.274L385.743 191.099L385.247 189.503C385.018 188.764 384.23 188.351 383.492 188.579L383.157 188.683L380.102 189.632L378.39 190.164C378.033 190.276 377.739 190.519 377.565 190.851C377.39 191.182 377.354 191.562 377.466 191.919L377.962 193.516L374.561 194.573C374.429 194.613 374.303 194.659 374.18 194.712C374.18 194.712 374.176 194.712 374.175 194.712C374.173 194.712 374.175 194.712 374.172 194.712C374.167 194.715 374.159 194.717 374.154 194.72C372.179 195.561 371.113 197.795 371.763 199.888L374.09 207.377C374.69 209.307 376.562 210.509 378.502 210.349H378.505C378.806 210.325 379.109 210.268 379.408 210.173L379.416 210.17L396.46 204.873C398.69 204.179 399.949 201.787 399.256 199.554L399.259 199.559ZM378.801 193.256L378.305 191.66C378.218 191.384 378.374 191.09 378.649 191.005L380.311 190.487L383.154 189.603L383.751 189.418C383.802 189.402 383.855 189.394 383.906 189.394C384.129 189.394 384.337 189.538 384.406 189.762L384.902 191.359L378.8 193.255L378.801 193.256Z" fill="#F1A34F"/>
<path d="M379.766 187.478L380.328 188.447C380.328 188.447 379.227 190.78 381.84 191.653C381.84 191.653 382.964 191.937 383.06 191.157C383.156 190.377 382.992 190.684 383.153 189.583C383.317 188.482 382.886 187.501 382.074 187.24L381.433 186.626L379.763 187.478H379.766Z" fill="#AB7041"/>
<path d="M381.258 187.744C380.191 187.952 379.033 187.867 379.033 187.867C379.033 187.867 375.866 178.081 375.458 177.188C375.049 176.294 366.048 165.712 366.048 165.712L369.798 156.327C369.798 156.327 379.535 172.59 380.524 174.875C382.158 178.652 382.725 187.12 382.725 187.12C382.725 187.12 382.095 187.581 381.258 187.744Z" fill="#9ED9F0"/>
<path d="M300.937 241.99C300.895 242.454 300.802 242.856 300.621 243.035H291.751C291.803 242.768 292.043 242.089 293.159 241.932C294.559 241.735 297.026 240.957 297.478 239.118C297.931 237.28 300.897 239.754 300.897 239.754C300.897 239.754 301.027 241.008 300.935 241.99H300.937Z" fill="#D86713"/>
<path d="M308.767 243.035H299.565C299.724 242.739 300.114 242.2 300.936 241.99C301.027 241.966 301.125 241.947 301.227 241.932C302.629 241.735 305.095 240.957 305.548 239.118C306.001 237.28 308.967 239.754 308.967 239.754C308.967 239.754 309.234 242.324 308.767 243.035Z" fill="#D86713"/>
<path d="M304.77 193.343C304.77 193.343 304.763 193.674 304.749 194.272C304.666 198.123 304.338 213.009 304.025 221.311C304.012 221.614 304.001 221.905 303.99 222.189C303.984 222.339 303.979 222.49 303.972 222.639C303.785 226.652 303.241 230.581 302.691 233.723C301.99 237.732 301.277 240.46 301.277 240.46C298.605 241.002 296.872 239.985 296.872 239.985C296.872 239.985 296.151 233.765 295.877 230C295.788 228.778 295.347 224.612 294.795 219.542C294.367 215.621 293.871 211.16 293.418 207.104C293.394 206.887 293.371 206.671 293.346 206.458C292.612 199.899 292.005 194.557 292.005 194.557L296.733 194.107L304.771 193.341L304.77 193.343Z" fill="#2B478B"/>
<path d="M302.691 233.725L294.795 219.543C294.367 215.623 293.871 211.162 293.417 207.105C293.393 206.889 293.371 206.673 293.345 206.46C292.612 199.901 292.005 194.558 292.005 194.558L296.732 194.108L304.752 194.272L302.693 233.723L302.691 233.725Z" fill="#233862"/>
<path d="M292.878 194.594C292.878 194.594 297.296 216.435 300.896 226.977C304.496 237.519 304.541 240.448 304.541 240.448C304.541 240.448 307.845 241.163 309.3 240.332C309.3 240.332 310.131 220.349 307.954 215.04C306.512 211.53 305.411 204.058 305.785 201.367C306.16 198.677 306.509 193.279 306.509 193.279L292.877 194.592L292.878 194.594Z" fill="#2B478B"/>
<path d="M298.243 165.272L303.156 163.887C303.156 163.887 302.322 161.845 302.032 159.717C301.872 158.535 301.878 157.327 302.29 156.427C302.314 156.371 302.343 156.315 302.37 156.262C302.557 155.912 302.444 155.752 302.194 155.713C301.749 155.641 300.869 155.955 300.5 156.264C299.936 156.735 297.22 158.114 297.079 158.186C297.074 158.186 297.073 158.187 297.073 158.187C297.073 158.187 297.068 158.208 297.063 158.246V158.25C297.047 158.344 297.017 158.546 296.988 158.826C296.85 160.136 296.733 163.184 298.243 165.273V165.272Z" fill="#D9935C"/>
<path d="M305.335 195.762C304.291 196.502 302.644 196.768 300.832 196.741C298.715 196.707 296.372 196.27 294.5 195.71C293.493 195.409 292.621 195.072 291.994 194.746C289.196 193.287 289.593 191.344 289.66 184.074C289.728 176.653 294.295 167.062 295.118 165.458C296.582 162.599 303.147 163.655 303.147 163.655C304.589 164.345 305.101 166.648 305.24 169.654C305.396 172.994 305.093 177.206 305.093 181.046C305.093 184.221 305.692 187.029 306.129 189.357C306.694 192.38 306.986 194.595 305.336 195.764L305.335 195.762Z" fill="#F1A34F"/>
<path opacity="0.4" d="M306.126 189.355C304.863 192.018 302.374 195.015 300.831 196.741C298.714 196.707 296.371 196.27 294.499 195.71C293.711 193.823 293.365 190.673 294.094 185.475C294.649 181.512 298.696 165.567 298.696 165.567C301.963 165.141 303.995 166.92 305.239 169.654C305.394 172.994 305.092 177.206 305.092 181.046C305.092 184.221 305.691 187.029 306.128 189.357L306.126 189.355Z" fill="#D86713"/>
<path d="M304.812 202.027H301.846V201.105C301.846 199.574 300.602 198.33 299.071 198.33H296.616C295.085 198.33 293.841 199.574 293.841 201.105V202.027H290.873C289.983 202.027 289.254 202.756 289.254 203.646V211.2C289.254 212.09 289.983 212.819 290.873 212.819H304.812C305.702 212.819 306.431 212.09 306.431 211.2V203.646C306.431 202.756 305.702 202.027 304.812 202.027ZM294.939 201.105C294.939 200.181 295.69 199.43 296.614 199.43H299.069C299.993 199.43 300.744 200.181 300.744 201.105V202.027H294.939V201.105Z" fill="#D6716B"/>
<path d="M296.993 196.472C296.993 196.472 295.284 199.768 296.138 201.049C296.993 202.33 300.043 200.682 300.288 199.95C300.532 199.218 300.288 195.678 300.288 195.678L296.993 196.47V196.472Z" fill="#DA935B"/>
<path d="M304.303 170.693C304.303 170.693 303.667 179.761 303.675 183.513C303.683 187.265 300.698 197.245 300.698 197.245C300.698 197.245 298.722 197.404 297.947 197.303C297.053 197.187 296.522 196.777 296.522 196.777C296.522 196.777 297.178 184.986 295.926 180.467C294.675 175.948 294.61 166.872 294.61 166.872C294.61 166.872 295.305 164.913 299.465 165.531C304.401 166.265 304.305 170.693 304.305 170.693H304.303Z" fill="#F1A34F"/>
<path d="M302.246 159.482C302.246 159.482 303.365 163.021 303.144 163.653C303.144 163.653 297.07 164.471 294.605 166.874C294.605 166.874 295.406 163.424 296.393 162.561C297.379 161.698 302.246 159.48 302.246 159.48V159.482Z" fill="#F1A34F"/>
<path d="M296.913 158.825H296.988C297.539 158.82 300.971 158.833 301.936 159.648C301.972 159.676 302.004 159.699 302.034 159.717C301.874 158.535 301.88 157.327 302.292 156.427C302.257 156.152 302.223 155.905 302.196 155.713C301.751 155.641 300.872 155.955 300.502 156.264C299.938 156.735 297.222 158.114 297.081 158.186L297.065 158.246V158.25L296.915 158.826L296.913 158.825Z" fill="#CB8757"/>
<path d="M294.775 158.607C294.775 158.607 300.453 159.694 301.074 156.147C301.697 152.6 302.849 150.354 299.25 149.51C295.652 148.666 294.707 149.896 294.213 151.028C293.716 152.161 293.314 158.232 294.775 158.607Z" fill="#D9935C"/>
<path d="M302.097 157.69C302.097 157.69 301.802 157.464 302.95 155.723C304.1 153.981 304.645 154.46 304.659 152.602C304.673 150.746 305.364 149.63 303.21 148.422C301.056 147.213 301.399 146.094 300.106 145.827C298.814 145.559 296.934 146.624 295.824 146.4C294.714 146.176 291.239 150.698 293.465 151.769C293.465 151.769 294.5 151.821 295.225 151.374C295.951 150.925 298.615 150.474 298.928 151.284C299.24 152.094 300.928 157.067 302.095 157.693L302.097 157.69Z" fill="#233862"/>
<path d="M215.672 195.764C215.672 195.764 219.706 193.927 222.758 195.535C225.81 197.141 223.945 210.399 219.579 211.683C219.579 211.683 210.209 223.07 215.672 195.764Z" fill="#233862"/>
<path d="M208.528 197.3C208.33 195.748 208.716 192.937 208.716 192.937C208.716 192.937 207.345 192.867 206.578 194.673C204.988 198.416 205.678 206.496 205.774 207.652C205.774 207.652 205.228 209.949 206.04 213.922C205.92 214.204 205.758 214.57 205.662 214.716C205.648 214.732 205.635 214.75 205.622 214.767C205.523 214.916 205.515 215.117 205.616 215.277L206.141 216.109C206.19 216.188 206.261 216.247 206.339 216.282C206.365 216.295 206.392 216.305 206.421 216.311L207.071 216.465L207.135 214.247C207.135 214.247 207.13 214.247 207.127 214.247C207.35 212.076 208.709 198.723 208.527 197.3H208.528ZM206.847 214.409L206.833 214.391L206.86 214.407C206.86 214.407 206.849 214.41 206.847 214.409Z" fill="#A05F32"/>
<path d="M220.145 241.163L219.626 243.035H215.246C215.246 243.035 213.942 240.642 220.145 241.163Z" fill="#AA413E"/>
<path d="M210.752 241.163L210.233 243.035H205.853C205.853 243.035 204.55 240.642 210.752 241.163Z" fill="#AA413E"/>
<path d="M218.657 181.734C218.111 180.889 217.344 180.852 216.606 180.134C215.912 179.46 214.618 179.017 213.587 179.017C210.292 179.017 207.438 181.034 208.088 184.455C208.295 185.542 208.12 186.399 209.001 187.669C210.101 189.254 211.438 190.527 213.587 190.527C214.727 190.527 215.727 190.265 216.606 189.434C217.085 188.98 217.772 188.926 218.193 188.433C219.045 187.438 218.981 186.127 219.293 184.772C219.58 183.531 219.226 182.615 218.657 181.733V181.734Z" fill="#2B478B"/>
<path d="M211.302 188.825C211.302 188.825 212.025 191.62 210.564 192.81L214.672 194.909L215.213 192.191C215.213 192.191 214.438 190.068 214.649 187.112L211.302 188.825Z" fill="#A05F32"/>
<path d="M211.195 190.233C211.195 190.233 215.4 190.745 215.49 187.783C215.58 184.82 213.828 182.902 212.657 182.924C210.324 182.967 209.939 183.91 209.669 184.892C209.398 185.874 209.259 190.025 211.195 190.233Z" fill="#AF7041"/>
<path d="M207.184 212.619L215.494 213.306C215.494 213.306 216.469 227.878 211.01 241.388C211.01 241.388 210.321 241.647 208.52 241.647C207.26 241.647 206.353 241.298 206.353 241.298L207.184 212.617V212.619Z" fill="#233862"/>
<path d="M220.079 213.456C220.079 213.456 222.635 223.388 220.563 241.512C220.563 241.512 219.483 241.863 217.84 241.85C216.061 241.837 214.923 241.514 214.923 241.514L212.218 217.983C212.115 217.287 210.753 213.627 210.753 213.627L220.079 213.458V213.456Z" fill="#2B478B"/>
<path d="M220.269 198.728L220.812 194.265C220.73 194.149 220.663 194.05 220.581 193.953C219.626 192.783 215.953 192.273 215.213 192.191C215.179 192.225 213.484 193.624 212.265 193.459C211.227 193.328 211.049 192.777 211.082 192.185C208.908 192.546 207.68 193.238 207.68 193.238C205.465 194.068 205.02 201.426 205.02 201.426C205.315 201.338 206.783 201.596 207.466 201.722L207.192 212.628C212.478 214.934 220.086 213.451 220.086 213.451L220.07 213.385L219.559 204.658L220.036 200.672L220.267 198.729L220.269 198.728Z" fill="white"/>
<path d="M212.319 188.526C212.319 188.526 212.228 188.896 211.307 188.827C211.307 188.827 210.534 188.769 210.563 188.363C210.563 188.363 211.317 188.082 212.319 188.524V188.526Z" fill="white"/>
<path d="M216.88 213.096C217.24 213.546 219.016 213.781 220.08 213.456L219.556 204.663L220.269 198.734L219.58 198.414C219.58 198.414 216.555 200.84 216.909 202.775C217.263 204.709 216.417 212.516 216.88 213.096Z" fill="#9ED9F0"/>
<path d="M223.379 199.173C223.379 199.173 220.829 199.982 219.922 200.741C219.744 200.89 219.805 200.827 219.702 200.903L216.429 194.627L215.82 193.424L215.26 192.287L215.21 192.188C215.21 192.188 215.26 192.188 215.342 192.204C215.654 192.238 216.429 192.335 217.318 192.534C217.878 192.665 218.487 192.814 219.03 193.029H219.046C219.704 193.275 220.264 193.589 220.576 193.951C220.658 194.05 220.725 194.148 220.807 194.263C221.877 195.794 223.376 199.17 223.376 199.17L223.379 199.173Z" fill="white"/>
<path d="M219.938 210.98C219.938 210.98 208.558 198.811 215.82 193.426C216.248 193.096 216.743 192.8 217.319 192.537C217.88 192.668 218.488 192.817 219.031 193.032C218.439 193.197 217.319 193.624 216.429 194.629C214.667 196.589 213.844 200.754 219.838 209.433L219.938 210.982V210.98Z" fill="#2B478B"/>
<path d="M211.617 182.951C211.617 182.951 215.21 182.95 214.384 185.416C213.864 186.971 215.595 187.213 215.595 187.213C215.595 187.213 216.344 185.373 216.427 184.721C216.49 184.223 216.31 183.078 215.905 182.78C215.041 182.144 211.617 182.953 211.617 182.953V182.951Z" fill="#2B478B"/>
<path d="M223.319 199.195C222.209 199.538 220.433 200.238 219.924 200.741C220.489 202.039 220.861 202.944 220.861 202.944C220.436 202.755 218.241 202.577 217.104 202.496C216.976 202.486 215.933 202.145 215.933 202.145C215.933 202.145 215.925 200.368 213.891 200.228C213.891 200.228 213.044 200.233 213.219 200.811C213.392 201.389 213.411 201.138 213.637 201.959C213.864 202.781 214.454 203.405 215.083 203.442C218.1 205.979 222.255 206 223.508 205.942C223.73 205.932 223.923 205.775 223.972 205.558C224.448 203.497 224.164 201.357 223.319 199.197V199.195Z" fill="#A05F32"/>
<path d="M416.669 242.691H4.48868C4.30612 242.691 4.1572 242.84 4.1572 243.022V243.048C4.1572 243.231 4.30612 243.38 4.48868 243.38H416.669C416.851 243.38 417 243.231 417 243.048V243.022C417 242.84 416.851 242.691 416.669 242.691Z" fill="#283250"/>
</g>
<ellipse cx="134.201" cy="6.74069" rx="134.201" ry="6.74069" transform="matrix(-1 0 0 1 307.604 328.248)" fill="#8D96A5" fill-opacity="0.07"/>
<path d="M228.95 319.465L229.543 323.263L221.2 332.466C220.206 333.563 219.965 335.143 220.585 336.483L242.06 326.636L236.209 316.14L228.952 319.467L228.95 319.465Z" fill="#272828"/>
<path d="M174.425 324.513L173.364 328.208L161.914 333.091C160.551 333.673 159.666 335.007 159.666 336.484H183.312L182.415 324.515H174.425V324.513Z" fill="#272828"/>
<path d="M186.02 97.7525C186.02 97.7525 182.136 101.039 181.569 105.082C181.399 106.299 181.695 107.995 181.695 107.995L187.844 100.463L186.02 97.7505V97.7525Z" fill="#1A1949"/>
<path d="M189.406 124.622C183.161 122.996 179.711 115.55 181.7 107.992C183.689 100.434 190.364 95.6254 196.609 97.2519C202.853 98.8783 206.304 106.324 204.315 113.882C202.326 121.44 195.651 126.249 189.406 124.622Z" fill="#F4D2C6"/>
<path d="M182.879 103.511C182.879 103.511 194.546 110.884 200.501 105.96C206.458 101.038 200.501 105.96 200.501 105.96L186.732 98.8071L182.879 103.511Z" fill="#EDA19D"/>
<path d="M204.526 112.975C204.526 112.975 197.86 133.816 198.453 140.66C198.453 140.66 190.854 140.949 184.48 137.022C184.48 137.022 193.6 120.121 193.836 115.762L204.526 112.977V112.975Z" fill="#F4D2C6"/>
<path d="M190.564 124.852C190.564 124.852 192.975 125.444 196.812 123.705C196.812 123.705 194.624 129.23 189.021 128.121L190.564 124.852Z" fill="#EDA19D"/>
<path d="M186.031 100.456C186.031 100.456 193.735 105.313 198.828 105.844C203.922 106.375 205.824 105.016 205.824 105.016C205.824 105.016 209.815 100.608 207.039 97.8734C204.264 95.1393 187.729 89.2603 187.729 89.2603C187.729 89.2603 183.71 97.0636 186.029 100.454L186.031 100.456Z" fill="#59445A"/>
<path d="M201.773 102.722C201.773 102.722 198.517 109.221 198.892 111.782C199.268 114.343 202.089 121.209 202.089 121.209C202.089 121.209 209.536 113.834 210.212 110.632C210.889 107.43 207.647 102.217 207.647 102.217L201.771 102.722H201.773Z" fill="#59445A"/>
<path d="M204.327 114.837C203.91 116.421 202.282 117.368 200.69 116.954C199.097 116.539 198.145 114.919 198.562 113.335C198.979 111.751 200.607 110.803 202.199 111.218C203.791 111.633 204.744 113.252 204.327 114.837Z" fill="#F4D2C6"/>
<path d="M210.778 190.182L219.329 263.771L238.844 318.11L227.93 322.536L198.11 277.08C195.899 273.986 194.17 270.58 192.981 266.973L177.538 220.133L210.78 190.18L210.778 190.182Z" fill="#8D96A5"/>
<path d="M167.528 220.402L170.632 160.311H206.755L210.268 185.59C211.975 197.879 210.554 210.443 205.824 221.92C205.639 222.37 205.449 222.818 205.255 223.266L194.766 247.415L191.71 259.48L183.728 324.389H172.904L165.001 255.781L167.528 220.4V220.402Z" fill="#A6B1C2"/>
<path d="M206.755 160.31L205.832 147.669C205.2 139.005 198.23 131.978 189.505 131.617C189.277 131.607 189.048 131.603 188.821 131.601C187.983 131.597 187.153 131.652 186.337 131.76C179.187 132.717 173.473 138.172 171.924 145.183L170.634 160.31H206.757H206.755Z" fill="#FBFBFF"/>
<path d="M202.588 161.14C202.588 161.14 207.144 138.052 194.776 132.698C194.776 132.698 209.76 134.357 206.756 160.311L202.588 161.14Z" fill="#A6B1C2"/>
<path d="M171.558 149.486L182.8 154.894L170.635 160.311L171.558 149.486Z" fill="#EAEAEC"/>
<path d="M197.291 191.768H178.357L177.836 208.147C177.672 213.336 181.854 217.631 187.072 217.631C191.97 217.631 196.017 213.83 196.297 208.965L197.291 191.768Z" fill="#8D96A5"/>
<path d="M178.233 195.367H197.063V196.077H178.233V195.367Z" fill="#A6B1C2"/>
<rect x="-0.396786" y="0.307584" width="160.049" height="96.4216" rx="12.4107" transform="matrix(-0.992696 -0.124129 -0.126297 0.991559 263.036 165.613)" fill="#FBFBFF" stroke="#F2F2FC" stroke-width="0.709184"/>
<rect width="2.59682" height="4.39243" transform="matrix(-0.992696 -0.124129 -0.126297 0.991559 216.148 208.034)" fill="white"/>
<rect width="4.43624" height="6.19444" transform="matrix(-0.992696 -0.124129 -0.126297 0.991559 227.058 196.917)" fill="white"/>
<path d="M122.923 201.853C122.535 201.803 122.26 201.45 122.308 201.063L124.132 186.563C124.18 186.177 124.534 185.904 124.923 185.953L136.45 187.428C136.838 187.478 137.114 187.831 137.065 188.218L135.242 202.718C135.193 203.104 134.839 203.377 134.451 203.328L132.775 203.113C132.387 203.064 132.112 202.71 132.16 202.324L133.643 190.533C133.691 190.147 133.416 189.793 133.028 189.744L127.663 189.057C127.275 189.007 126.921 189.281 126.872 189.667L125.39 201.457C125.341 201.844 124.987 202.117 124.599 202.067L122.923 201.853Z" fill="#333333"/>
<path d="M139.221 203.938C138.832 203.888 138.557 203.535 138.606 203.148L140.429 188.648C140.478 188.262 140.832 187.989 141.22 188.039L147.287 188.815C148.022 188.909 148.678 189.144 149.255 189.522C149.833 189.899 150.314 190.37 150.7 190.935C151.101 191.502 151.39 192.116 151.566 192.775C151.742 193.435 151.789 194.093 151.706 194.75C151.593 195.646 151.276 196.47 150.755 197.222C150.234 197.975 149.574 198.558 148.775 198.972C147.977 199.385 147.075 199.528 146.071 199.399L142.995 199.006C142.607 198.956 142.252 199.229 142.204 199.615L141.71 203.545C141.661 203.932 141.307 204.205 140.919 204.155L139.221 203.938ZM142.721 195.506C142.672 195.893 142.947 196.246 143.335 196.296L146.231 196.666C146.606 196.714 146.957 196.653 147.283 196.482C147.609 196.312 147.887 196.044 148.115 195.679C148.346 195.299 148.493 194.855 148.557 194.347C148.627 193.795 148.581 193.311 148.42 192.896C148.273 192.483 148.048 192.158 147.742 191.922C147.452 191.688 147.119 191.547 146.744 191.499L143.983 191.145C143.595 191.096 143.241 191.369 143.192 191.755L142.721 195.506Z" fill="#333333"/>
<path d="M163.258 204.261C163.646 204.31 163.922 204.664 163.873 205.05L163.708 206.36C163.66 206.747 163.306 207.02 162.918 206.97L153.235 205.731C152.846 205.682 152.571 205.328 152.62 204.941L154.443 190.441C154.492 190.055 154.846 189.782 155.234 189.832L164.714 191.045C165.103 191.094 165.378 191.448 165.329 191.834L165.165 193.144C165.116 193.531 164.762 193.804 164.374 193.754L157.997 192.938C157.609 192.889 157.255 193.162 157.206 193.548L156.901 195.978C156.852 196.365 157.127 196.718 157.516 196.768L162.835 197.448C163.223 197.498 163.499 197.852 163.45 198.238L163.311 199.347C163.262 199.733 162.908 200.006 162.52 199.957L157.2 199.276C156.812 199.226 156.458 199.499 156.409 199.886L156.064 202.629C156.016 203.015 156.291 203.369 156.679 203.419L163.258 204.261Z" fill="#333333"/>
<path d="M179.766 209.126C179.378 209.076 179.103 208.723 179.152 208.336L180.019 201.441C180.11 200.71 179.157 200.343 178.734 200.947L175.55 205.498C175.399 205.713 175.141 205.826 174.88 205.793L173.998 205.68C173.737 205.647 173.515 205.472 173.423 205.226L171.466 200.017C171.206 199.326 170.191 199.441 170.099 200.172L169.232 207.067C169.184 207.454 168.83 207.727 168.441 207.677L166.743 207.46C166.355 207.41 166.08 207.056 166.128 206.67L167.952 192.17C168 191.783 168.354 191.51 168.743 191.56L170.942 191.842C171.204 191.875 171.426 192.051 171.518 192.298L174.483 200.279C174.682 200.814 175.402 200.908 175.729 200.441L180.616 193.46C180.766 193.245 181.024 193.132 181.285 193.165L183.464 193.444C183.852 193.493 184.127 193.847 184.079 194.234L182.255 208.733C182.207 209.12 181.853 209.393 181.465 209.343L179.766 209.126Z" fill="#333333"/>
<path d="M186.317 209.964C185.929 209.915 185.654 209.561 185.702 209.174L187.525 194.675C187.574 194.288 187.928 194.015 188.316 194.065L189.992 194.279C190.38 194.329 190.655 194.682 190.607 195.069L189.533 203.613C189.445 204.305 190.313 204.693 190.771 204.166L198.184 195.644C198.339 195.466 198.573 195.377 198.809 195.407L200.608 195.637C200.997 195.687 201.272 196.041 201.223 196.427L199.4 210.927C199.352 211.314 198.997 211.587 198.609 211.537L196.934 211.323C196.545 211.273 196.27 210.919 196.319 210.533L197.376 202.123C197.463 201.431 196.595 201.043 196.137 201.57L188.831 209.969C188.676 210.147 188.442 210.236 188.207 210.206L186.317 209.964Z" fill="#333333"/>
<path d="M204.985 212.467C204.597 212.417 204.322 212.063 204.37 211.677L204.515 210.524C204.564 210.137 204.918 209.864 205.306 209.914L205.863 209.985C206.253 210.035 206.556 209.99 206.771 209.851C206.987 209.712 207.192 209.472 207.387 209.133L207.66 208.695C207.777 208.506 207.798 208.274 207.717 208.067L203.4 197.045C203.204 196.546 203.615 196.022 204.148 196.09L205.952 196.321C206.218 196.355 206.442 196.535 206.532 196.787L209.107 204.018C209.308 204.582 210.076 204.659 210.383 204.146L214.179 197.8C214.323 197.56 214.596 197.427 214.876 197.463L216.584 197.682C217.095 197.747 217.369 198.317 217.098 198.754L209.566 210.891C209.076 211.632 208.565 212.128 208.03 212.378C207.496 212.629 206.817 212.701 205.992 212.595L204.985 212.467Z" fill="#333333"/>
<path d="M230.836 215.661C230.448 215.611 230.172 215.257 230.221 214.871L231.088 207.976C231.18 207.245 230.226 206.878 229.804 207.481L226.619 212.032C226.469 212.247 226.211 212.361 225.949 212.328L225.068 212.215C224.806 212.181 224.585 212.006 224.492 211.76L222.535 206.551C222.275 205.86 221.261 205.976 221.169 206.707L220.302 213.602C220.253 213.988 219.899 214.261 219.511 214.211L217.813 213.994C217.425 213.945 217.149 213.591 217.198 213.204L219.021 198.704C219.07 198.318 219.424 198.045 219.812 198.095L222.011 198.376C222.273 198.41 222.496 198.586 222.587 198.833L225.553 206.814C225.751 207.349 226.472 207.442 226.798 206.976L231.685 199.995C231.836 199.78 232.094 199.666 232.355 199.7L234.533 199.978C234.922 200.028 235.197 200.382 235.148 200.768L233.325 215.268C233.276 215.654 232.922 215.927 232.534 215.878L230.836 215.661Z" fill="#333333"/>
<path fill-rule="evenodd" clip-rule="evenodd" d="M253.765 253.985C251.329 258.494 246.297 261.279 240.908 260.605L106.668 243.819C99.669 242.944 94.7173 236.568 95.6077 229.577L103.053 171.128C121.623 208.918 156.06 238.694 200.21 250.048C218.213 254.679 236.301 255.852 253.765 253.985Z" fill="#F2F2FC" fill-opacity="0.4"/>
<path d="M170.976 168.104L167.315 177.408L142.039 219.206L149.136 222.832L179.628 187.669L185.635 174.648L170.976 168.104Z" fill="#F4D2C6"/>
<path d="M168.753 169.422L181.11 187.078L187.996 172.251L171.142 166.046L168.753 169.422Z" fill="#EDA19D"/>
<path d="M142.039 219.21C142.039 219.21 133.111 226.891 134.477 228.787C135.104 229.656 139.558 225.913 140.106 226.69C140.653 227.467 136.208 240.456 137.703 240.47C139.199 240.485 144.74 238.696 146.013 237.339C147.287 235.982 149.134 222.836 149.134 222.836L142.039 219.21Z" fill="#F4D2C6"/>
<path d="M179.471 135.779L167.185 166.488L188.482 175.996L200.191 151.41L179.471 135.779Z" fill="#FBFBFF"/>
<path d="M219.056 260.228L218.443 257.777L193.012 254.713L191.787 258.084L219.056 260.228Z" fill="#757D8B"/>
<path d="M191.787 259.309L193.013 255.02L193.319 254.713L165.131 251.343V255.939L191.787 259.309Z" fill="#979EAA"/>
<defs>
<clipPath id="clip0_52_1986">
<rect width="417" height="243.434" fill="white" transform="matrix(-1 0 0 1 417 0)"/>
</clipPath>
</defs>
</svg>
