<svg width="28" height="24" viewBox="0 0 28 24" fill="none" xmlns="http://www.w3.org/2000/svg">
<rect y="24" width="24" height="28" transform="rotate(-90 0 24)" fill="white"/>
<path d="M9.26277 2.4927C8.87225 2.10217 8.23908 2.10217 7.84856 2.4927L1.4846 8.85666C1.09407 9.24718 1.09407 9.88035 1.4846 10.2709C1.87512 10.6614 2.50829 10.6614 2.89881 10.2709L8.55566 4.61402L14.2125 10.2709C14.603 10.6614 15.2362 10.6614 15.6267 10.2709C16.0173 9.88035 16.0173 9.24718 15.6267 8.85666L9.26277 2.4927ZM18.7374 21.5069C19.128 21.8974 19.7611 21.8974 20.1517 21.5069L26.5156 15.143C26.9061 14.7524 26.9061 14.1193 26.5156 13.7287C26.1251 13.3382 25.4919 13.3382 25.1014 13.7287L19.4446 19.3856L13.7877 13.7287C13.3972 13.3382 12.764 13.3382 12.3735 13.7287C11.983 14.1193 11.983 14.7524 12.3735 15.143L18.7374 21.5069ZM9.55566 20.7998L9.55566 3.19981H7.55566L7.55566 20.7998H9.55566ZM18.4446 3.19981V20.7998H20.4446V3.19981H18.4446Z" fill="black"/>
</svg>
