<svg width="260" height="232" viewBox="0 0 260 232" fill="none" xmlns="http://www.w3.org/2000/svg">
<g style="mix-blend-mode:multiply" opacity="0.5">
<path fill-rule="evenodd" clip-rule="evenodd" d="M92.3465 213.462C92.1174 213.141 92 212.815 92 212.485C92 207.226 121.994 202.961 158.995 202.961C195.996 202.961 226 207.211 226 212.485C226 217.759 195.996 222.024 158.995 222.024C151.923 222.024 145.107 221.869 138.708 221.58C138.901 221.87 139 222.164 139 222.461C139 227.735 107.877 232 69.4951 232C31.1135 232 0 227.735 0 222.461C0 217.202 31.1135 212.937 69.4951 212.937C77.5001 212.937 85.1894 213.122 92.3465 213.462Z" fill="#6795FF"/>
</g>
<path fill-rule="evenodd" clip-rule="evenodd" d="M228.108 73.1419C237.007 78.6888 239.713 90.3822 234.153 99.2597L179.957 185.786C174.396 194.663 162.675 197.363 153.776 191.816L90.171 152.17C81.2719 146.623 78.5654 134.93 84.1259 126.052L138.322 39.5261C143.882 30.6486 155.604 27.9487 164.503 33.4957L228.108 73.1419ZM181.934 75.5291C178.284 73.2539 177.174 68.4577 179.455 64.8165C181.736 61.1753 186.543 60.0679 190.193 62.343C193.844 64.6182 194.954 69.4144 192.673 73.0556C190.392 76.6968 185.584 77.8042 181.934 75.5291Z" fill="#2F539B"/>
<path fill-rule="evenodd" clip-rule="evenodd" d="M128.582 54.627C128.723 54.716 128.863 54.8045 129.004 54.8925C149.812 67.8621 175.718 65.9341 194.185 51.9966L164.301 33.3695C155.402 27.8226 143.68 30.5225 138.12 39.4L128.582 54.627Z" fill="#FBB03B"/>
<path fill-rule="evenodd" clip-rule="evenodd" d="M172.463 78.4583C181.362 84.0052 184.069 95.6986 178.508 104.576L124.312 191.102C118.752 199.98 107.03 202.68 98.131 197.133L34.5264 157.486C25.6274 151.939 22.9209 140.246 28.4814 131.369L82.6772 44.8425C88.2377 35.9651 99.9594 33.2651 108.858 38.8121L172.463 78.4583ZM126.29 80.8455C122.64 78.5703 121.53 73.7741 123.81 70.1329C126.091 66.4917 130.899 65.3843 134.549 67.6594C138.199 69.9346 139.309 74.7308 137.028 78.372C134.748 82.0132 129.94 83.1206 126.29 80.8455Z" fill="#6795FF"/>
<path fill-rule="evenodd" clip-rule="evenodd" d="M58.1784 171.226C59.2344 168.893 60.4592 166.603 61.8567 164.372C78.6843 137.506 114.158 129.335 141.089 146.122C143.539 147.649 145.833 149.329 147.967 151.143L123.776 189.765C118.216 198.642 106.494 201.342 97.5952 195.795L58.1784 171.226Z" fill="white"/>
<path fill-rule="evenodd" clip-rule="evenodd" d="M224.554 27.946C223.927 31.9686 225.092 37.9311 229.345 46.515C233.707 55.319 234.617 61.998 232.622 66.8778C230.598 71.8303 225.819 74.3895 220.18 75.5055C214.524 76.6247 207.675 76.3716 200.891 75.4262C194.087 74.4779 187.244 72.818 181.555 71.0523C180.764 70.8068 180.322 69.9681 180.568 69.179C180.814 68.3899 181.655 67.9492 182.446 68.1947C188.007 69.9205 194.689 71.5401 201.306 72.4623C207.944 73.3873 214.414 73.5956 219.596 72.57C224.795 71.5412 228.372 69.3494 229.844 65.7477C231.346 62.0734 230.894 56.3949 226.656 47.841C222.309 39.067 220.82 32.4226 221.59 27.4857C222.386 22.3819 225.556 19.3293 229.786 17.7901C233.915 16.288 239.073 16.2025 244.184 16.822C249.327 17.4453 254.58 18.8024 258.991 20.3257C259.774 20.596 260.189 21.4483 259.918 22.2292C259.647 23.0102 258.793 23.4241 258.01 23.1538C253.754 21.6843 248.712 20.3854 243.823 19.7929C238.903 19.1966 234.294 19.3355 230.814 20.6017C227.436 21.8308 225.156 24.0903 224.554 27.946Z" fill="#FBB03B"/>
</svg>
